{
.appVersion = "3091";
classes = (
{
automatic = 1;
code = "A Aacute Abreve Acircumflex Adieresis Agrave Amacron Aogonek Aring Atilde AE B C Cacute Ccaron Ccedilla Cdotaccent D Eth Dcaron Dcroat E Eacute Ecaron Ecircumflex Edieresis Edotaccent Egrave Emacron Eogonek F G Gbreve Gcommaaccent Gdotaccent H Hbar I Iacute Icircumflex Idieresis Idotaccent Igrave Imacron Iogonek J K Kcommaaccent L Lacute Lcaron Lcommaaccent Lslash M N Nacute Ncaron Ncommaaccent Ntilde Eng O Oacute Ocircumflex Odieresis Ograve Ohungarumlaut Omacron Oslash Otilde OE P Thorn Q R Racute Rcaron Rcommaaccent S Sacute Scaron Scedilla Scommaaccent Germandbls Schwa T Tbar Tcaron Tcedilla Tcommaaccent U Uacute Ucircumflex Udieresis Ugrave Uhungarumlaut Umacron Uogonek Uring V W Wacute Wcircumflex Wdieresis Wgrave X Y Yacute Ycircumflex Ydieresis Ygrave Z Zacute Zcaron Zdotaccent";
name = Uppercase;
}
);
copyright = "© Benedetta Bovani and Colllettivo, 2021";
customParameters = (
{
name = "Use Typo Metrics";
value = 1;
},
{
name = unicodeRanges;
value = (
0,
1,
2
);
},
{
name = licenseURL;
value = "https://scripts.sil.org/OFL_web";
},
{
name = license;
value = "SIL OpenFont License";
},
{
name = vendorID;
value = CLT;
}
);
date = "2022-04-09 16:41:27 +0000";
designer = "Benedetta Bovani";
familyName = "Ortica Angular";
featurePrefixes = (
{
automatic = 1;
code = "languagesystem DFLT dflt;\012\012languagesystem latn dflt;\012languagesystem latn AZE;\012languagesystem latn CRT;\012languagesystem latn KAZ;\012languagesystem latn TAT;\012languagesystem latn TRK;\012languagesystem latn ROM;\012languagesystem latn MOL;\012";
name = Languagesystems;
}
);
features = (
{
automatic = 1;
code = "feature locl;\012feature sups;\012feature frac;\012feature ordn;\012feature lnum;\012feature onum;\012feature case;\012";
name = aalt;
},
{
automatic = 1;

glyphs = (
{
glyphname = A;
lastChange = "2022-04-11 10:19:11 +0000";
layers = (
{
anchors = (
{
name = bottom;
position = "{383, 0}";
},
{
name = ogonek;
position = "{679, 10}";
},
{
name = top;
position = "{357, 705}";
}
);
layerId = "4EF47A43-EA9F-416F-884D-AC541148DC09";
paths = (
{
closed = 1;
nodes = (
"545 75 LINE",
"507 32 LINE",
"442 27 LINE",
"442 0 LINE",
"806 0 LINE",
"806 27 LINE",
"742 30 LINE",
"701 75 LINE",
"437 705 LINE",
"183 705 LINE",
"183 678 LINE",
"259 675 LINE",
"303 640 LINE",
"61 75 LINE",
"19 30 LINE",
"-45 27 LINE",
"-45 0 LINE",
"207 0 LINE",
"207 27 LINE",
"151 30 LINE",
"127 100 LINE",
"331 593 LINE"
);
},
{
closed = 1;
nodes = (
"189 265 LINE",
"529 265 LINE",
"529 311 LINE",
"189 311 LINE"
);
}
);
width = 775;
}
);
leftKerningGroup = A;
rightKerningGroup = A;
unicode = 0041;
},
{
glyphname = AE;
lastChange = "2022-03-30 09:20:17 +0000";
layers = (
{
anchors = (
{
name = bottom;
position = "{421, 0}";
},
{
name = ogonek;
position = "{584, 10}";
},
{
name = top;
position = "{421, 700}";
},
{
name = topleft;
position = "{662, 700}";
}
);
layerId = "4EF47A43-EA9F-416F-884D-AC541148DC09";
paths = (
{
closed = 1;
nodes = (
"519 75 LINE",
"476 30 LINE",
"422 27 LINE",
"422 0 LINE",
"1048 0 LINE",
"1083 228 LINE",
"1058 228 LINE",
"985 67 LINE",
"925 40 LINE",
"702 38 LINE",
"666 82 LINE",
"666 337 LINE",
"877 336 LINE",
"920 304 LINE",
"935 230 LINE",
"958 230 LINE",
"958 487 LINE",
"935 487 LINE",
"920 413 LINE",
"875 382 LINE",
"875 381 LINE",
"666 380 LINE",
"666 629 LINE",
"702 673 LINE",
"905 671 LINE",
"965 625 LINE",
"1034 476 LINE",
"1059 476 LINE",
"1028 705 LINE",
"422 705 LINE",
"422 678 LINE",
"489 675 LINE",
"511 655 LINE",
"75 75 LINE",
"24 30 LINE",
"-45 27 LINE",
"-45 0 LINE",
"220 0 LINE",
"220 27 LINE",
"166 30 LINE",
"142 90 LINE",
"516 594 LINE"
);
},
{
closed = 1;
nodes = (
"264 275 LINE",
"544 275 LINE",
"544 314 LINE",
"264 314 LINE"
);
}
);
width = 1133;
}
);
leftKerningGroup = AE;
leftMetricsKey = "=A";
rightKerningGroup = E;
rightMetricsKey = "=E";
unicode = 00C6;
},
{
glyphname = B;
lastChange = "2022-03-30 09:20:17 +0000";
layers = (
{
anchors = (
{
name = bottom;
position = "{354, 0}";
},
{
name = top;
position = "{354, 700}";
}
);
layerId = "4EF47A43-EA9F-416F-884D-AC541148DC09";
paths = (
{
closed = 1;
nodes = (
"25 705 LINE",
"25 678 LINE",
"79 675 LINE",
"122 630 LINE",
"122 75 LINE",
"79 30 LINE",
"25 27 LINE",
"25 0 LINE",
"492 0 LINE",
"632 76 LINE",
"671 200 LINE",
"596 339 LINE",
"464 386 LINE",
"587 422 LINE",
"637 544 LINE",
"591 653 LINE",
"491 705 LINE"
);
},
{
closed = 1;
nodes = (
"271 361 LINE",
"418 361 LINE",
"501 255 LINE",
"511 124 LINE",
"443 35 LINE",
"302 35 LINE",
"271 65 LINE"
);
},
{
closed = 1;
nodes = (
"271 650 LINE",
"302 675 LINE",
"423 662 LINE",
"477 597 LINE",
"482 485 LINE",
"398 404 LINE",
"271 404 LINE"
);
}
);
width = 721;
}
);
leftKerningGroup = H;
leftMetricsKey = H;
unicode = 0042;
},
{
glyphname = C;
lastChange = "2023-03-20 09:58:11 +0000";
layers = (
{
anchors = (
{
name = bottom;
position = "{424, 0}";
},
{
name = top;
position = "{414, 700}";
}
);
layerId = "4EF47A43-EA9F-416F-884D-AC541148DC09";
leftMetricsKey = "=O";
rightMetricsKey = "=O-10";
paths = (
{
closed = 1;
nodes = (
"504 719 LINE",
"224 666 LINE",
"50 463 LINE",
"99 149 LINE",
"329 -13 LINE",
"569 6 LINE",
"694 140 LINE",
"709 246 LINE",
"680 249 LINE",
"609 117 LINE",
"447 71 LINE",
"293 162 LINE",
"223 373 LINE",
"257 592 LINE",
"394 658 LINE",
"589 612 LINE",
"656 467 LINE",
"681 467 LINE",
"692 654 LINE"
);
}
);
width = 749;
},
{
anchors = (
{
name = bottom;
position = "{354, 0}";
},
{
name = top;
position = "{354, 700}";
}
);
associatedMasterId = "4EF47A43-EA9F-416F-884D-AC541148DC09";
layerId = "77C4A9F5-E64C-4AAC-A1E2-E4DEA27A3E41";
leftMetricsKey = "=O";
rightMetricsKey = "=O-2";
name = "Sep 7 21, 15:11";
paths = (
{
closed = 1;
nodes = (
"641 467 LINE",
"616 467 LINE",
"539 612 LINE",
"344 658 LINE",
"227 582 LINE",
"205 353 LINE",
"273 156 LINE",
"396 63 LINE",
"560 67 LINE",
"613 139 LINE",
"624 243 LINE",
"649 243 LINE",
"652 181 LINE",
"619 67 LINE",
"519 -4 LINE",
"289 -14 LINE",
"79 139 LINE",
"30 423 LINE",
"189 661 LINE",
"446 713 LINE",
"642 654 LINE"
);
}
);
width = 707;
}
);
leftKerningGroup = O;
rightKerningGroup = C;
unicode = 0043;
},
{
glyphname = D;
lastChange = "2022-03-30 09:20:17 +0000";
layers = (
{
anchors = (
{
name = bottom;
position = "{392, 0}";
},
{
name = center;
position = "{392, 350}";
},
{
name = top;
position = "{362, 700}";
}
);
layerId = "4EF47A43-EA9F-416F-884D-AC541148DC09";
paths = (
{
closed = 1;
nodes = (
"25 705 LINE",
"25 678 LINE",
"79 675 LINE",
"122 630 LINE",
"122 75 LINE",
"79 30 LINE",
"25 27 LINE",
"25 0 LINE",
"474 0 LINE",
"679 117 LINE",
"759 370 LINE",
"698 569 LINE",
"516 705 LINE"
);
},
{
closed = 1;
nodes = (
"269 641 LINE",
"379 661 LINE",
"507 611 LINE",
"583 485 LINE",
"583 264 LINE",
"507 91 LINE",
"379 41 LINE",
"269 61 LINE"
);
}
);
width = 809;
}
);
leftKerningGroup = H;
leftMetricsKey = H;
rightKerningGroup = O;
rightMetricsKey = "=O";
unicode = 0044;
},
{
glyphname = Eth;
lastChange = "2022-03-30 09:20:17 +0000";
layers = (
{
components = (
{
name = D;
transform = "{1, 0, 0, 1, 3, 0}";
}
);
layerId = "4EF47A43-EA9F-416F-884D-AC541148DC09";
paths = (
{
closed = 1;
nodes = (
"25 323 LINE",
"375 323 LINE",
"375 372 LINE",
"25 372 LINE"
);
}
);
width = 812;
}
);
leftKerningGroup = Eth;
rightKerningGroup = O;
rightMetricsKey = O;
unicode = 00D0;
},
{
glyphname = E;
lastChange = "2023-03-20 09:58:56 +0000";
layers = (
{
anchors = (
{
name = bottom;
position = "{428, 0}";
},
{
name = ogonek;
position = "{555, 0}";
},
{
name = top;
position = "{368, 705}";
},
{
name = topleft;
position = "{129, 700}";
}
);
layerId = "4EF47A43-EA9F-416F-884D-AC541148DC09";
leftMetricsKey = "=H";
paths = (
{
closed = 1;
nodes = (
"25 705 LINE",
"25 678 LINE",
"79 675 LINE",
"122 630 LINE",
"122 75 LINE",
"79 30 LINE",
"25 27 LINE",
"25 0 LINE",
"646 0 LINE",
"686 228 LINE",
"661 228 LINE",
"573 67 LINE",
"523 40 LINE",
"301 38 LINE",
"265 72 LINE",
"265 337 LINE",
"458 336 LINE",
"508 304 LINE",
"536 220 LINE",
"559 220 LINE",
"559 497 LINE",
"536 497 LINE",
"508 413 LINE",
"456 382 LINE",
"456 381 LINE",
"265 380 LINE",
"265 639 LINE",
"301 673 LINE",
"504 671 LINE",
"554 625 LINE",
"633 476 LINE",
"658 476 LINE",
"627 705 LINE"
);
}
);
width = 736;
}
);
leftKerningGroup = H;
rightKerningGroup = E;
unicode = 0045;
},
{
glyphname = F;
lastChange = "2022-03-30 09:20:17 +0000";
layers = (
{
anchors = (
{
name = bottom;
position = "{381, 0}";
},
{
name = top;
position = "{381, 700}";
}
);
layerId = "4EF47A43-EA9F-416F-884D-AC541148DC09";
paths = (
{
closed = 1;
nodes = (
"457 322 LINE",
"507 290 LINE",
"535 206 LINE",
"558 206 LINE",
"558 483 LINE",
"535 483 LINE",
"507 399 LINE",
"455 368 LINE",
"455 367 LINE",
"264 366 LINE",
"264 624 LINE",
"300 668 LINE",
"503 666 LINE",
"563 629 LINE",
"630 463 LINE",
"655 463 LINE",
"626 705 LINE",
"25 705 LINE",
"25 678 LINE",
"79 675 LINE",
"122 630 LINE",
"122 76 LINE",
"79 31 LINE",
"25 28 LINE",
"25 1 LINE",
"391 1 LINE",
"391 28 LINE",
"317 31 LINE",
"264 76 LINE",
"264 323 LINE"
);
}
);
width = 695;
}
);
leftKerningGroup = H;
leftMetricsKey = H;
unicode = 0046;
},
{
glyphname = G;
lastChange = "2022-03-30 09:20:17 +0000";
layers = (
{
anchors = (
{
name = bottom;
position = "{430, 0}";
},
{
name = top;
position = "{420, 700}";
}
);
layerId = "4EF47A43-EA9F-416F-884D-AC541148DC09";
leftMetricsKey = "=O";
paths = (
{
closed = 1;
nodes = (
"193 668 LINE",
"485 720 LINE",
"691 661 LINE",
"690 442 LINE",
"666 442 LINE",
"588 619 LINE",
"383 665 LINE",
"245 589 LINE",
"224 360 LINE",
"294 159 LINE",
"433 65 LINE",
"553 91 LINE",
"593 190 LINE",
"593 273 LINE",
"456 281 LINE",
"456 313 LINE",
"784 313 LINE",
"784 291 LINE",
"740 288 LINE",
"707 243 LINE",
"708 243 LINE",
"708 0 LINE",
"677 0 LINE",
"626 118 LINE",
"526 7 LINE",
"333 -14 LINE",
"109 139 LINE",
"50 410 LINE"
);
}
);
width = 814;
},
{
anchors = (
{
name = bottom;
position = "{370, 0}";
},
{
name = top;
position = "{370, 700}";
}
);
associatedMasterId = "4EF47A43-EA9F-416F-884D-AC541148DC09";
background = {
paths = (
{
closed = 1;
nodes = (
"718 357 LINE",
"400 357 LINE",
"400 342 LINE",
"528 310 LINE",
"528 34 LINE",
"500 28 OFFCURVE",
"473 25 OFFCURVE",
"447 25 CURVE SMOOTH",
"355 25 OFFCURVE",
"281 57 OFFCURVE",
"225 121 CURVE SMOOTH",
"169 185 OFFCURVE",
"141 268 OFFCURVE",
"141 371 CURVE SMOOTH",
"141 468 OFFCURVE",
"164 548 OFFCURVE",
"211 611 CURVE SMOOTH",
"257 674 OFFCURVE",
"318 705 OFFCURVE",
"395 705 CURVE SMOOTH",
"438 705 OFFCURVE",
"483 694 OFFCURVE",
"531 671 CURVE",
"590 544 LINE",
"606 544 LINE",
"601 707 LINE",
"575 715 LINE SMOOTH",
"534 728 OFFCURVE",
"487 734 OFFCURVE",
"435 734 CURVE SMOOTH",
"325 734 OFFCURVE",
"235 699 OFFCURVE",
"164 630 CURVE SMOOTH",
"89 557 OFFCURVE",
"52 460 OFFCURVE",
"52 337 CURVE SMOOTH",
"52 224 OFFCURVE",
"86 136 OFFCURVE",
"154 73 CURVE SMOOTH",
"217 15 OFFCURVE",
"298 -14 OFFCURVE",
"397 -14 CURVE SMOOTH",
"452 -14 OFFCURVE",
"506 -5 OFFCURVE",
"560 14 CURVE SMOOTH",
"615 33 LINE",
"615 310 LINE",
"718 342 LINE"
);
}
);
};
layerId = "4CE94CEF-1661-406A-9039-7E280BC494DF";
name = "Sep 7 21, 15:13";
paths = (
{
closed = 1;
nodes = (
"641 467 LINE",
"617 467 LINE",
"539 612 LINE",
"344 658 LINE",
"225 582 LINE",
"204 353 LINE",
"274 159 LINE",
"394 65 LINE",
"540 56 LINE",
"540 243 LINE",
"664 243 LINE",
"664 73 LINE",
"536 -4 LINE",
"289 -14 LINE",
"79 139 LINE",
"30 423 LINE",
"189 661 LINE",
"446 713 LINE",
"642 654 LINE"
);
},
{
closed = 1;
nodes = (
"511 288 LINE",
"467 291 LINE",
"467 313 LINE",
"740 313 LINE",
"740 291 LINE",
"696 288 LINE",
"663 243 LINE",
"540 243 LINE"
);
}
);
width = 740;
}
);
leftKerningGroup = O;
rightKerningGroup = G;
unicode = 0047;
},
{
glyphname = H;
lastChange = "2022-03-30 09:20:17 +0000";
layers = (
{
anchors = (
{
name = bottom;
position = "{437, 0}";
},
{
name = center;
position = "{437, 350}";
},
{
name = top;
position = "{437, 705}";
},
{
name = topleft;
position = "{56, 705}";
}
);
layerId = "4EF47A43-EA9F-416F-884D-AC541148DC09";
paths = (
{
closed = 1;
nodes = (
"25 705 LINE",
"25 678 LINE",
"79 675 LINE",
"122 630 LINE",
"122 75 LINE",
"79 30 LINE",
"25 27 LINE",
"25 0 LINE",
"362 0 LINE",
"362 27 LINE",
"308 30 LINE",
"265 75 LINE",
"265 630 LINE",
"308 675 LINE",
"362 678 LINE",
"362 705 LINE"
);
},
{
closed = 1;
nodes = (
"511 705 LINE",
"511 678 LINE",
"565 675 LINE",
"608 630 LINE",
"608 75 LINE",
"565 30 LINE",
"511 27 LINE",
"511 0 LINE",
"848 0 LINE",
"848 27 LINE",
"794 30 LINE",
"751 75 LINE",
"751 630 LINE",
"794 675 LINE",
"848 678 LINE",
"848 705 LINE"
);
},
{
closed = 1;
nodes = (
"240 342 LINE",
"651 342 LINE",
"651 386 LINE",
"240 386 LINE"
);
}
);
width = 873;
}
);
leftKerningGroup = H;
rightKerningGroup = H;
unicode = 0048;
},
{
glyphname = Hbar;
lastChange = "2022-03-30 09:20:17 +0000";
layers = (
{
components = (
{
name = H;
}
);
layerId = "4EF47A43-EA9F-416F-884D-AC541148DC09";
paths = (
{
closed = 1;
nodes = (
"828 524 LINE",
"828 566 LINE",
"59 566 LINE",
"59 524 LINE"
);
}
);
width = 873;
}
);
leftMetricsKey = H;
rightMetricsKey = H;
unicode = 0126;
},
{
glyphname = I;
lastChange = "2022-03-30 09:20:17 +0000";
layers = (
{
anchors = (
{
name = bottom;
position = "{186, 0}";
},
{
name = ogonek;
position = "{228, 2}";
},
{
name = top;
position = "{202, 705}";
},
{
name = topleft;
position = "{27, 700}";
}
);
layerId = "4EF47A43-EA9F-416F-884D-AC541148DC09";
leftMetricsKey = "=H";
rightMetricsKey = "=H";
paths = (
{
closed = 1;
nodes = (
"25 705 LINE",
"25 678 LINE",
"81 675 LINE",
"122 630 LINE",
"122 75 LINE",
"82 30 LINE",
"25 27 LINE",
"25 0 LINE",
"364 0 LINE",
"364 27 LINE",
"307 30 LINE",
"266 75 LINE",
"266 630 LINE",
"307 675 LINE",
"364 678 LINE",
"364 705 LINE"
);
}
);
width = 389;
}
);
leftKerningGroup = H;
leftMetricsKey = H;
rightKerningGroup = H;
rightMetricsKey = H;
unicode = 0049;
},
{
glyphname = J;
lastChange = "2023-05-02 10:17:04 +0000";
layers = (
{
anchors = (
{
name = bottom;
position = "{205, 0}";
},
{
name = top;
position = "{225, 705}";
}
);
layerId = "4EF47A43-EA9F-416F-884D-AC541148DC09";
paths = (
{
closed = 1;
nodes = (
"335 675 LINE",
"392 678 LINE",
"392 705 LINE",
"35 705 LINE",
"35 678 LINE",
"102 675 LINE",
"145 630 LINE",
"145 70 LINE",
"120 -70 LINE",
"6 -144 LINE",
"18 -171 LINE",
"211 -76 LINE",
"295 61 LINE",
"295 630 LINE"
);
}
);
width = 422;
},
{
anchors = (
{
name = bottom;
position = "{184, 0}";
},
{
name = top;
position = "{184, 700}";
}
);
associatedMasterId = "4EF47A43-EA9F-416F-884D-AC541148DC09";
background = {
paths = (
{
closed = 1;
nodes = (
"248 720 LINE",
"-62 720 LINE",
"-62 705 LINE",
"59 673 LINE",
"59 -36 LINE SMOOTH",
"59 -54 OFFCURVE",
"53 -71 OFFCURVE",
"41 -87 CURVE",
"32 -98 OFFCURVE",
"23 -106 OFFCURVE",
"14 -110 CURVE",
"-59 -80 LINE SMOOTH",
"-77 -73 OFFCURVE",
"-92 -69 OFFCURVE",
"-104 -69 CURVE SMOOTH",
"-125 -69 OFFCURVE",
"-135 -79 OFFCURVE",
"-135 -99 CURVE SMOOTH",
"-135 -129 OFFCURVE",
"-107 -144 OFFCURVE",
"-51 -144 CURVE SMOOTH",
"-2 -144 OFFCURVE",
"41 -130 OFFCURVE",
"78 -103 CURVE SMOOTH",
"123 -70 OFFCURVE",
"146 -24 OFFCURVE",
"146 35 CURVE SMOOTH",
"146 672 LINE",
"248 705 LINE"
);
}
);
};
layerId = "BACEC988-1472-4B32-A48E-D67C19AEEDF0";
name = "Sep 7 21, 15:16";
paths = (
{
closed = 1;
nodes = (
"112 -66 LINE",
"-40 -61 LINE",
"-40 -190 LINE",
"95 -177 LINE",
"276 143 LINE",
"276 645 LINE",
"126 645 LINE",
"126 90 LINE"
);
},
{
closed = 1;
nodes = (
"309 675 LINE",
"353 678 LINE",
"353 700 LINE",
"18 700 LINE",
"18 678 LINE",
"93 675 LINE",
"126 630 LINE",
"276 630 LINE"
);
}
);
width = 368;
}
);
unicode = 004A;
},
{
glyphname = K;
lastChange = "2022-03-30 09:20:17 +0000";
layers = (
{
anchors = (
{
name = bottom;
position = "{433, 0}";
},
{
name = ogonek;
position = "{339, 10}";
},
{
name = top;
position = "{390, 704}";
},
{
name = topleft;
position = "{37, 705}";
}
);
layerId = "4EF47A43-EA9F-416F-884D-AC541148DC09";
paths = (
{
closed = 1;
nodes = (
"25 705 LINE",
"25 678 LINE",
"81 675 LINE",
"122 630 LINE",
"122 75 LINE",
"82 30 LINE",
"25 27 LINE",
"25 0 LINE",
"364 0 LINE",
"364 27 LINE",
"307 30 LINE",
"266 75 LINE",
"266 630 LINE",
"307 675 LINE",
"364 678 LINE",
"364 705 LINE"
);
},
{
closed = 1;
nodes = (
"300 349 LINE",
"558 0 LINE",
"783 0 LINE",
"783 22 LINE",
"709 31 LINE",
"658 81 LINE",
"400 428 LINE"
);
},
{
closed = 1;
nodes = (
"230 257 LINE",
"638 644 LINE",
"683 675 LINE",
"746 678 LINE",
"746 705 LINE",
"430 705 LINE",
"430 678 LINE",
"524 675 LINE",
"524 600 LINE",
"202 293 LINE"
);
}
);
width = 753;
},
{
anchors = (
{
name = bottom;
position = "{365, 0}";
},
{
name = top;
position = "{365, 700}";
}
);
associatedMasterId = "4EF47A43-EA9F-416F-884D-AC541148DC09";
background = {
paths = (
{
closed = 1;
nodes = (
"714 15 LINE",
"600 48 LINE",
"344 410 LINE",
"572 672 LINE",
"674 705 LINE",
"674 720 LINE",
"406 720 LINE",
"406 705 LINE",
"507 672 LINE",
"277 371 LINE",
"382 218 LINE",
"486 48 LINE",
"391 15 LINE",
"391 0 LINE",
"714 0 LINE"
);
},
{
closed = 1;
nodes = (
"316 15 LINE",
"224 48 LINE",
"224 672 LINE",
"316 705 LINE",
"316 720 LINE",
"35 720 LINE",
"35 705 LINE",
"137 672 LINE",
"137 48 LINE",
"35 15 LINE",
"35 0 LINE",
"316 0 LINE"
);
}
);
};
layerId = "2A3D7468-C107-4E5A-B6E3-A223AC3ECC14";
name = "Sep 7 21, 15:20";
paths = (
{
closed = 1;
nodes = (
"98 0 LINE",
"248 0 LINE",
"248 700 LINE",
"98 700 LINE"
);
},
{
closed = 1;
nodes = (
"64 25 LINE",
"20 22 LINE",
"20 0 LINE",
"325 0 LINE",
"325 22 LINE",
"281 25 LINE",
"248 70 LINE",
"98 70 LINE"
);
},
{
closed = 1;
nodes = (
"248 630 LINE",
"281 675 LINE",
"325 678 LINE",
"325 700 LINE",
"20 700 LINE",
"20 678 LINE",
"64 675 LINE",
"97 630 LINE"
);
},
{
closed = 1;
nodes = (
"261 370 LINE",
"453 37 LINE",
"572 0 LINE",
"740 0 LINE",
"740 22 LINE",
"696 25 LINE",
"645 70 LINE",
"396 370 LINE"
);
},
{
closed = 1;
nodes = (
"261 370 LINE",
"289 334 LINE",
"621 648 LINE",
"573 689 LINE"
);
},
{
closed = 1;
nodes = (
"614 642 LINE",
"662 675 LINE",
"706 678 LINE",
"706 700 LINE",
"409 700 LINE",
"409 678 LINE",
"453 675 LINE",
"453 566 LINE"
);
}
);
width = 730;
}
);
leftKerningGroup = H;
leftMetricsKey = H;
rightKerningGroup = K;
unicode = 004B;
},
{
glyphname = L;
lastChange = "2023-03-20 09:59:09 +0000";
layers = (
{
anchors = (
{
name = bottom;
position = "{342, 0}";
},
{
name = center;
position = "{342, 353}";
},
{
name = top;
position = "{219, 705}";
},
{
name = topright;
position = "{465, 461}";
}
);
layerId = "4EF47A43-EA9F-416F-884D-AC541148DC09";
paths = (
{
closed = 1;
nodes = (
"25 705 LINE",
"25 678 LINE",
"82 675 LINE",
"122 630 LINE",
"122 75 LINE",
"82 30 LINE",
"25 27 LINE",
"25 0 LINE",
"618 0 LINE",
"660 252 LINE",
"635 252 LINE",
"555 75 LINE",
"497 37 LINE",
"300 37 LINE",
"265 80 LINE",
"265 630 LINE",
"315 675 LINE",
"388 678 LINE",
"388 705 LINE"
);
}
);
width = 675;
}
);
leftKerningGroup = H;
leftMetricsKey = H;
rightKerningGroup = L;
unicode = 004C;
},
{
glyphname = Lslash;
lastChange = "2022-04-12 08:12:54 +0000";
layers = (
{
components = (
{
name = L;
transform = "{1, 0, 0, 1, 20, 0}";
}
);
layerId = "4EF47A43-EA9F-416F-884D-AC541148DC09";
paths = (
{
closed = 1;
nodes = (
"435 511 LINE",
"411 552 LINE",
"21 329 LINE",
"45 288 LINE"
);
}
);
width = 694;
}
);
leftKerningGroup = H;
rightKerningGroup = L;
unicode = 0141;
},
{
glyphname = M;
lastChange = "2022-03-30 09:20:17 +0000";
layers = (
{
anchors = (
{
name = bottom;
position = "{462, 0}";
},
{
name = top;
position = "{494, 705}";
}
);
layerId = "4EF47A43-EA9F-416F-884D-AC541148DC09";
leftMetricsKey = "=H";
rightMetricsKey = "=H";
paths = (
{
closed = 1;
nodes = (
"701 705 LINE",
"495 212 LINE",
"290 705 LINE",
"25 705 LINE",
"25 678 LINE",
"78 675 LINE",
"122 635 LINE",
"124 94 LINE",
"86 30 LINE",
"27 27 LINE",
"27 0 LINE",
"276 0 LINE",
"276 27 LINE",
"216 30 LINE",
"179 95 LINE",
"177 609 LINE",
"439 0 LINE",
"488 0 LINE",
"711 609 LINE",
"711 75 LINE",
"670 30 LINE",
"613 27 LINE",
"613 0 LINE",
"948 0 LINE",
"948 27 LINE",
"891 30 LINE",
"851 75 LINE",
"851 635 LINE",
"891 675 LINE",
"948 678 LINE",
"948 705 LINE"
);
}
);
width = 973;
}
);
leftKerningGroup = H;
leftMetricsKey = "=H";
rightKerningGroup = H;
rightMetricsKey = "=H";
unicode = 004D;
},
{
glyphname = N;
lastChange = "2022-03-30 09:20:17 +0000";
layers = (
{
anchors = (
{
name = bottom;
position = "{382, 0}";
},
{
name = top;
position = "{391, 705}";
}
);
layerId = "4EF47A43-EA9F-416F-884D-AC541148DC09";
leftMetricsKey = "=H";
rightMetricsKey = "=H";
paths = (
{
closed = 1;
nodes = (
"25 705 LINE",
"25 678 LINE",
"78 675 LINE",
"121 635 LINE",
"122 85 LINE",
"82 30 LINE",
"25 27 LINE",
"25 0 LINE",
"274 0 LINE",
"274 27 LINE",
"215 30 LINE",
"177 85 LINE",
"176 562 LINE",
"610 0 LINE",
"680 0 LINE",
"680 622 LINE",
"718 675 LINE",
"777 678 LINE",
"777 705 LINE",
"529 705 LINE",
"529 678 LINE",
"590 675 LINE",
"626 620 LINE",
"626 225 LINE",
"252 705 LINE"
);
},
{
closed = 0;
nodes = (
"122 0 LINE"
);
}
);
width = 802;
}
);
leftKerningGroup = H;
leftMetricsKey = "=H";
rightKerningGroup = N;
rightMetricsKey = "=H-10";
unicode = 004E;
},
{
glyphname = Eng;
lastChange = "2022-03-30 09:20:17 +0000";
layers = (
{
anchors = (
{
name = bottom;
position = "{391, 0}";
},
{
name = top;
position = "{400, 705}";
}
);
components = (
{
name = N;
}
);
layerId = "4EF47A43-EA9F-416F-884D-AC541148DC09";
paths = (
{
closed = 1;
nodes = (
"592 -96 LINE",
"501 -153 LINE",
"514 -183 LINE",
"623 -146 LINE",
"680 -67 LINE",
"680 32 LINE",
"605 32 LINE",
"611 -37 LINE"
);
}
);
width = 792;
}
);
leftKerningGroup = H;
leftMetricsKey = N;
rightKerningGroup = N;
unicode = 014A;
},
{
glyphname = O;
lastChange = "2022-04-09 17:35:37 +0000";
layers = (
{
anchors = (
{
name = bottom;
position = "{445, 0}";
},
{
name = center;
position = "{445, 350}";
},
{
name = ogonek;
position = "{768, 10}";
},
{
name = top;
position = "{434, 705}";
},
{
name = topleft;
position = "{61, 705}";
},
{
name = topright;
position = "{829, 705}";
}
);
layerId = "4EF47A43-EA9F-416F-884D-AC541148DC09";
paths = (
{
closed = 1;
nodes = (
"739 117 LINE",
"810 353 LINE",
"739 589 LINE",
"546 705 LINE",
"314 705 LINE",
"121 589 LINE",
"50 353 LINE",
"121 117 LINE",
"314 0 LINE",
"546 0 LINE"
);
},
{
closed = 1;
nodes = (
"307 65 LINE",
"231 266 LINE",
"231 467 LINE",
"307 641 LINE",
"430 663 LINE",
"553 641 LINE",
"629 467 LINE",
"629 266 LINE",
"553 65 LINE",
"430 43 LINE"
);
}
);
width = 860;
},
{
anchors = (
{
name = bottom;
position = "{424, 0}";
},
{
name = center;
position = "{424, 350}";
},
{
name = ogonek;
position = "{747, 10}";
},
{
name = top;
position = "{413, 700}";
},
{
name = topleft;
position = "{40, 700}";
},
{
name = topright;
position = "{808, 700}";
}
);
associatedMasterId = "4EF47A43-EA9F-416F-884D-AC541148DC09";
layerId = "CA821901-5DF3-45F6-AA13-BA8BC6F34ED8";
name = "17 feb 22, 15:27";
paths = (
{
closed = 1;
nodes = (
"377 -13 LINE",
"128 105 LINE",
"50 413 LINE",
"202 664 LINE",
"472 720 LINE",
"721 596 LINE",
"805 315 LINE",
"648 39 LINE"
);
},
{
closed = 1;
nodes = (
"231 586 LINE",
"235 306 LINE",
"349 70 LINE",
"505 51 LINE",
"631 130 LINE",
"621 401 LINE",
"500 643 LINE",
"360 664 LINE"
);
}
);
width = 855;
}
);
leftKerningGroup = O;
rightKerningGroup = O;
unicode = 004F;
},
{
glyphname = Oslash;
lastChange = "2022-03-30 09:20:17 +0000";
layers = (
{
components = (
{
name = O;
}
);
layerId = "4EF47A43-EA9F-416F-884D-AC541148DC09";
paths = (
{
closed = 1;
nodes = (
"686 715 LINE",
"626 715 LINE",
"141 -9 LINE",
"205 -9 LINE"
);
}
);
width = 860;
}
);
leftKerningGroup = O;
leftMetricsKey = "=O";
rightKerningGroup = O;
rightMetricsKey = "=O";
unicode = 00D8;
},
{
glyphname = OE;
lastChange = "2022-03-30 09:20:17 +0000";
layers = (
{
anchors = (
{
name = bottom;
position = "{886, 0}";
},
{
name = center;
position = "{801, 350}";
},
{
name = ogonek;
position = "{1124, 10}";
},
{
name = top;
position = "{886, 705}";
},
{
name = topleft;
position = "{417, 705}";
},
{
name = topright;
position = "{1185, 700}";
}
);
layerId = "4EF47A43-EA9F-416F-884D-AC541148DC09";
paths = (
{
closed = 1;
nodes = (
"1105 228 LINE",
"1080 228 LINE",
"1007 67 LINE",
"947 40 LINE",
"724 38 LINE",
"688 82 LINE",
"688 337 LINE",
"899 336 LINE",
"942 304 LINE",
"957 230 LINE",
"980 230 LINE",
"980 487 LINE",
"957 487 LINE",
"942 413 LINE",
"897 382 LINE",
"897 381 LINE",
"688 380 LINE",
"688 629 LINE",
"724 673 LINE",
"927 671 LINE",
"987 625 LINE",
"1056 476 LINE",
"1081 476 LINE",
"1050 705 LINE",
"314 705 LINE",
"121 589 LINE",
"50 353 LINE",
"121 117 LINE",
"314 0 LINE",
"1070 0 LINE"
);
},
{
closed = 1;
nodes = (
"541 650 LINE",
"541 55 LINE",
"419 32 LINE",
"307 65 LINE",
"231 266 LINE",
"231 467 LINE",
"307 641 LINE",
"419 676 LINE"
);
}
);
width = 1155;
}
);
leftKerningGroup = O;
leftMetricsKey = "=O";
rightKerningGroup = E;
rightMetricsKey = "=E";
unicode = 0152;
},
{
glyphname = P;
lastChange = "2022-03-30 09:20:17 +0000";
layers = (
{
layerId = "4EF47A43-EA9F-416F-884D-AC541148DC09";
leftMetricsKey = "=H";
paths = (
{
closed = 1;
nodes = (
"25 705 LINE",
"25 678 LINE",
"82 675 LINE",
"122 635 LINE",
"122 75 LINE",
"121 75 LINE",
"81 30 LINE",
"25 27 LINE",
"25 0 LINE",
"401 0 LINE",
"401 27 LINE",
"309 30 LINE",
"266 75 LINE",
"266 296 LINE",
"421 289 LINE",
"555 342 LINE",
"629 492 LINE",
"575 637 LINE",
"469 705 LINE"
);
},
{
closed = 1;
nodes = (
"266 640 LINE",
"297 670 LINE",
"411 654 LINE",
"475 568 LINE",
"486 442 LINE",
"443 359 LINE",
"351 324 LINE",
"266 372 LINE"
);
}
);
width = 669;
}
);
leftKerningGroup = H;
leftMetricsKey = "=H-5";
rightKerningGroup = P;
unicode = 0050;
},
{
glyphname = Thorn;
lastChange = "2022-03-30 09:20:17 +0000";
layers = (
{
components = (
{
name = I;
}
);
layerId = "4EF47A43-EA9F-416F-884D-AC541148DC09";
paths = (
{
closed = 1;
nodes = (
"440 149 LINE",
"584 212 LINE",
"656 342 LINE",
"604 507 LINE",
"498 575 LINE",
"244 575 LINE",
"244 163 LINE",
"265 161 LINE"
);
},
{
closed = 1;
nodes = (
"265 510 LINE",
"296 540 LINE",
"400 524 LINE",
"504 428 LINE",
"515 302 LINE",
"472 219 LINE",
"370 194 LINE",
"265 247 LINE"
);
}
);
width = 691;
}
);
leftKerningGroup = H;
leftMetricsKey = H;
rightKerningGroup = P;
unicode = 00DE;
},
{
glyphname = Q;
lastChange = "2022-03-30 09:20:17 +0000";
layers = (
{
anchors = (
{
name = bottom;
position = "{400, 0}";
},
{
name = top;
position = "{400, 700}";
}
);
components = (
{
name = O;
}
);
layerId = "4EF47A43-EA9F-416F-884D-AC541148DC09";
paths = (
{
closed = 1;
nodes = (
"781 -106 LINE",
"672 -100 LINE",
"555 -61 LINE",
"505 15 LINE",
"337 14 LINE",
"453 -97 LINE",
"618 -137 LINE",
"781 -137 LINE"
);
}
);
width = 846;
}
);
leftKerningGroup = O;
leftMetricsKey = O;
unicode = 0051;
},
{
glyphname = R;
lastChange = "2022-03-30 09:20:17 +0000";
layers = (
{
anchors = (
{
name = bottom;
position = "{371, 0}";
},
{
name = top;
position = "{371, 700}";
}
);
layerId = "4EF47A43-EA9F-416F-884D-AC541148DC09";
paths = (
{
closed = 1;
nodes = (
"25 705 LINE",
"25 678 LINE",
"82 675 LINE",
"122 635 LINE",
"122 70 LINE",
"82 30 LINE",
"25 27 LINE",
"25 0 LINE",
"365 0 LINE",
"365 27 LINE",
"299 30 LINE",
"266 70 LINE",
"266 317 LINE",
"346 317 LINE",
"480 38 LINE",
"524 0 LINE",
"734 0 LINE",
"734 22 LINE",
"686 26 LINE",
"629 70 LINE",
"494 291 LINE",
"445 325 LINE",
"556 354 LINE",
"635 499 LINE",
"583 647 LINE",
"467 705 LINE"
);
},
{
closed = 1;
nodes = (
"266 640 LINE",
"297 670 LINE",
"389 664 LINE",
"468 588 LINE",
"489 479 LINE",
"447 386 LINE",
"361 351 LINE",
"266 399 LINE"
);
}
);
width = 734;
},
{
anchors = (
{
name = bottom;
position = "{346, 0}";
},
{
name = top;
position = "{346, 700}";
}
);
associatedMasterId = "4EF47A43-EA9F-416F-884D-AC541148DC09";
layerId = "DD071406-E1CD-4B17-AAE7-05CCACD1E4F3";
name = "15 feb 22, 11:17";
paths = (
{
closed = 1;
nodes = (
"7 700 LINE",
"7 678 LINE",
"64 675 LINE",
"97 630 LINE",
"97 70 LINE",
"64 25 LINE",
"7 22 LINE",
"7 0 LINE",
"336 0 LINE",
"336 22 LINE",
"280 25 LINE",
"247 70 LINE",
"247 313 LINE",
"327 308 LINE",
"451 38 LINE",
"495 0 LINE",
"705 0 LINE",
"705 22 LINE",
"661 25 LINE",
"610 70 LINE",
"475 291 LINE",
"416 309 LINE",
"534 354 LINE",
"606 494 LINE",
"554 642 LINE",
"448 700 LINE"
);
},
{
closed = 1;
nodes = (
"247 635 LINE",
"278 665 LINE",
"370 649 LINE",
"443 553 LINE",
"464 444 LINE",
"422 366 LINE",
"342 351 LINE",
"247 399 LINE"
);
}
);
width = 692;
}
);
leftKerningGroup = H;
leftMetricsKey = H;
rightKerningGroup = R;
unicode = 0052;
},
{
glyphname = S;
lastChange = "2023-03-20 09:58:23 +0000";
layers = (
{
anchors = (
{
name = bottom;
position = "{338, 0}";
},
{
name = top;
position = "{338, 700}";
}
);
layerId = "4EF47A43-EA9F-416F-884D-AC541148DC09";
paths = (
{
closed = 1;
nodes = (
"424 720 LINE",
"174 712 LINE",
"42 568 LINE",
"87 388 LINE",
"455 211 LINE",
"487 135 LINE",
"447 61 LINE",
"378 35 LINE",
"291 35 LINE",
"193 91 LINE",
"131 291 LINE",
"100 292 LINE",
"59 83 LINE",
"182 17 LINE",
"379 -12 LINE",
"566 71 LINE",
"616 245 LINE",
"543 346 LINE",
"246 482 LINE",
"205 561 LINE",
"232 650 LINE",
"320 686 LINE",
"424 667 LINE",
"482 606 LINE",
"517 456 LINE",
"547 456 LINE",
"588 646 LINE"
);
}
);
width = 670;
},
{
anchors = (
{
name = bottom;
position = "{310, 0}";
},
{
name = top;
position = "{310, 700}";
}
);
associatedMasterId = "4EF47A43-EA9F-416F-884D-AC541148DC09";
layerId = "E7FEFB33-2665-487F-AC40-4F8794B28DB7";
name = "15 feb 22, 11:31";
paths = (
{
closed = 1;
nodes = (
"419 727 LINE",
"187 708 LINE",
"30 572 LINE",
"64 400 LINE",
"427 221 LINE",
"428 80 LINE",
"341 36 LINE",
"159 116 LINE",
"84 284 LINE",
"59 285 LINE",
"25 82 LINE",
"292 -18 LINE",
"508 56 LINE",
"600 195 LINE",
"514 352 LINE",
"229 471 LINE",
"183 587 LINE",
"250 682 LINE",
"375 670 LINE",
"491 462 LINE",
"516 462 LINE",
"566 654 LINE"
);
}
);
width = 620;
},
{
anchors = (
{
name = bottom;
position = "{338, 0}";
},
{
name = top;
position = "{338, 700}";
}
);
associatedMasterId = "4EF47A43-EA9F-416F-884D-AC541148DC09";
layerId = "3D1978B4-0852-47A6-B4D9-B523EF5D3493";
name = "10 mar 23, 11:19";
paths = (
{
closed = 1;
nodes = (
"424 720 LINE",
"173 702 LINE",
"42 548 LINE",
"96 376 LINE",
"464 210 LINE",
"490 135 LINE",
"450 61 LINE",
"378 35 LINE",
"281 35 LINE",
"198 81 LINE",
"131 281 LINE",
"100 282 LINE",
"69 73 LINE",
"192 7 LINE",
"409 -12 LINE",
"594 92 LINE",
"628 245 LINE",
"545 349 LINE",
"248 473 LINE",
"196 561 LINE",
"232 649 LINE",
"320 685 LINE",
"424 666 LINE",
"479 616 LINE",
"514 456 LINE",
"544 456 LINE",
"585 646 LINE"
);
}
);
width = 670;
}
);
leftKerningGroup = S;
rightKerningGroup = S;
unicode = 0053;
},
{
glyphname = Germandbls;
lastChange = "2022-03-30 09:20:17 +0000";
layers = (
{
layerId = "4EF47A43-EA9F-416F-884D-AC541148DC09";
paths = (
{
closed = 1;
nodes = (
"25 0 LINE",
"270 0 LINE",
"270 705 LINE",
"25 705 LINE",
"25 678 LINE",
"79 675 LINE",
"122 635 LINE",
"122 70 LINE",
"79 30 LINE",
"25 27 LINE"
);
},
{
closed = 1;
nodes = (
"481 372 LINE",
"577 337 LINE",
"636 253 LINE",
"636 118 LINE",
"586 46 LINE",
"483 39 LINE",
"416 96 LINE",
"391 224 LINE",
"367 224 LINE",
"326 46 LINE",
"514 -15 LINE",
"700 46 LINE",
"767 203 LINE",
"706 356 LINE",
"571 412 LINE",
"483 404 LINE",
"711 678 LINE",
"711 705 LINE",
"161 705 LINE",
"161 674 LINE",
"575 674 LINE",
"364 422 LINE",
"364 353 LINE",
"365 352 LINE"
);
}
);
width = 789;
}
);
leftKerningGroup = H;
leftMetricsKey = H;
unicode = 1E9E;
},
{
glyphname = Schwa;
lastChange = "2022-03-30 09:20:17 +0000";
layers = (
{
layerId = "4EF47A43-EA9F-416F-884D-AC541148DC09";
paths = (
{
closed = 1;
nodes = (
"40 282 LINE",
"80 97 LINE",
"290 -11 LINE",
"576 38 LINE",
"732 287 LINE",
"670 585 LINE",
"429 719 LINE",
"196 698 LINE",
"54 575 LINE",
"41 454 LINE",
"67 449 LINE",
"153 593 LINE",
"280 635 LINE",
"465 571 LINE",
"536 345 LINE",
"501 106 LINE",
"400 44 LINE",
"276 70 LINE",
"214 162 LINE",
"205 240 LINE",
"593 240 LINE",
"593 282 LINE"
);
}
);
width = 782;
}
);
leftKerningGroup = O;
rightKerningGroup = O;
rightMetricsKey = O;
unicode = 018F;
},
{
glyphname = T;
lastChange = "2023-05-02 10:16:45 +0000";
layers = (
{
anchors = (
{
name = bottom;
position = "{348, 0}";
},
{
name = center;
position = "{348, 350}";
},
{
name = top;
position = "{348, 700}";
}
);
layerId = "4EF47A43-EA9F-416F-884D-AC541148DC09";
paths = (
{
closed = 1;
nodes = (
"37 705 LINE",
"6 451 LINE",
"33 451 LINE",
"98 630 LINE",
"156 670 LINE",
"272 670 LINE",
"272 70 LINE",
"229 25 LINE",
"159 22 LINE",
"159 0 LINE",
"535 0 LINE",
"535 22 LINE",
"465 25 LINE",
"422 70 LINE",
"422 670 LINE",
"539 670 LINE",
"597 630 LINE",
"662 451 LINE",
"689 451 LINE",
"658 705 LINE"
);
}
);
width = 695;
}
);
leftKerningGroup = T;
rightKerningGroup = T;
unicode = 0054;
},
{
glyphname = Tbar;
lastChange = "2022-04-09 16:56:10 +0000";
layers = (
{
components = (
{
name = T;
}
);
layerId = "4EF47A43-EA9F-416F-884D-AC541148DC09";
paths = (
{
closed = 1;
nodes = (
"132 440 LINE",
"132 391 LINE",
"564 391 LINE",
"564 440 LINE"
);
}
);
width = 696;
}
);
leftKerningGroup = T;
rightKerningGroup = T;
unicode = 0166;
},
{
glyphname = U;
lastChange = "2022-03-30 09:20:17 +0000";
layers = (
{
anchors = (
{
name = bottom;
position = "{392, 0}";
},
{
name = ogonek;
position = "{568, 40}";
},
{
name = top;
position = "{405, 705}";
},
{
name = topright;
position = "{733, 700}";
}
);
layerId = "4EF47A43-EA9F-416F-884D-AC541148DC09";
paths = (
{
closed = 1;
nodes = (
"585 50 LINE",
"663 211 LINE",
"663 635 LINE",
"709 675 LINE",
"766 678 LINE",
"766 705 LINE",
"493 705 LINE",
"493 678 LINE",
"560 675 LINE",
"603 635 LINE",
"603 209 LINE",
"512 75 LINE",
"337 79 LINE",
"240 214 LINE",
"240 635 LINE",
"283 675 LINE",
"348 678 LINE",
"348 705 LINE",
"-10 705 LINE",
"-10 678 LINE",
"53 675 LINE",
"90 635 LINE",
"90 195 LINE",
"181 41 LINE",
"409 -12 LINE"
);
}
);
width = 782;
}
);
unicode = 0055;
},
{
glyphname = V;
lastChange = "2023-05-02 10:14:57 +0000";
layers = (
{
anchors = (
{
name = bottom;
position = "{339, 0}";
},
{
name = top;
position = "{339, 705}";
}
);
layerId = "4EF47A43-EA9F-416F-884D-AC541148DC09";
paths = (
{
closed = 1;
nodes = (
"-59 705 LINE",
"-59 678 LINE",
"2 674 LINE",
"40 635 LINE",
"331 0 LINE",
"384 0 LINE",
"631 636 LINE",
"673 674 LINE",
"727 678 LINE",
"727 705 LINE",
"467 705 LINE",
"467 678 LINE",
"551 674 LINE",
"551 592 LINE",
"396 192 LINE",
"203 639 LINE",
"233 674 LINE",
"307 678 LINE",
"307 705 LINE"
);
}
);
width = 676;
}
);
unicode = 0056;
},
{
glyphname = W;
lastChange = "2022-03-30 09:20:17 +0000";
layers = (
{
anchors = (
{
name = bottom;
position = "{533, 0}";
},
{
name = top;
position = "{553, 705}";
}
);
layerId = "4EF47A43-EA9F-416F-884D-AC541148DC09";
paths = (
{
closed = 1;
nodes = (
"529 592 LINE",
"373 159 LINE",
"213 632 LINE",
"249 675 LINE",
"319 679 LINE",
"319 705 LINE",
"-36 705 LINE",
"-36 679 LINE",
"28 675 LINE",
"66 637 LINE",
"287 0 LINE",
"377 0 LINE",
"547 513 LINE"
);
},
{
closed = 1;
nodes = (
"711 0 LINE",
"801 0 LINE",
"995 647 LINE",
"1031 675 LINE",
"1092 679 LINE",
"1092 705 LINE",
"843 705 LINE",
"843 679 LINE",
"905 675 LINE",
"932 619 LINE",
"798 159 LINE",
"625 653 LINE",
"645 675 LINE",
"720 679 LINE",
"720 705 LINE",
"383 705 LINE",
"383 679 LINE",
"445 675 LINE",
"488 648 LINE"
);
}
);
width = 1072;
},
{
anchors = (
{
name = bottom;
position = "{453, 0}";
},
{
name = top;
position = "{453, 700}";
}
);
associatedMasterId = "4EF47A43-EA9F-416F-884D-AC541148DC09";
layerId = "D54D4306-2C6B-42D0-86A0-372FA765772C";
name = "15 feb 22, 11:18";
paths = (
{
closed = 1;
nodes = (
"-110 704 LINE",
"-110 682 LINE",
"-56 679 LINE",
"-23 634 LINE",
"249 0 LINE",
"272 0 LINE",
"416 401 LINE",
"589 0 LINE",
"612 0 LINE",
"839 634 LINE",
"882 679 LINE",
"936 682 LINE",
"936 704 LINE",
"706 704 LINE",
"706 682 LINE",
"770 679 LINE",
"770 583 LINE",
"655 230 LINE",
"491 612 LINE",
"500 636 LINE",
"531 679 LINE",
"575 682 LINE",
"575 704 LINE",
"240 704 LINE",
"240 682 LINE",
"284 679 LINE",
"317 634 LINE",
"391 460 LINE",
"315 230 LINE",
"140 636 LINE",
"172 679 LINE",
"216 682 LINE",
"216 704 LINE"
);
}
);
width = 906;
}
);
leftKerningGroup = W;
rightKerningGroup = W;
unicode = 0057;
},
{
glyphname = X;
lastChange = "2022-03-30 09:20:17 +0000";
layers = (
{
anchors = (
{
name = bottom;
position = "{379, 0}";
},
{
name = top;
position = "{379, 705}";
}
);
layerId = "4EF47A43-EA9F-416F-884D-AC541148DC09";
paths = (
{
closed = 1;
nodes = (
"279 675 LINE",
"353 678 LINE",
"353 705 LINE",
"-53 705 LINE",
"-53 678 LINE",
"17 671 LINE",
"63 636 LINE",
"485 70 LINE",
"448 30 LINE",
"374 27 LINE",
"374 0 LINE",
"785 0 LINE",
"785 27 LINE",
"711 35 LINE",
"665 69 LINE",
"246 635 LINE"
);
},
{
closed = 1;
nodes = (
"323 344 LINE",
"92 67 LINE",
"41 30 LINE",
"-33 27 LINE",
"-33 0 LINE",
"242 0 LINE",
"242 27 LINE",
"168 30 LINE",
"168 69 LINE",
"383 344 LINE"
);
},
{
closed = 1;
nodes = (
"427 374 LINE",
"643 648 LINE",
"673 675 LINE",
"743 678 LINE",
"743 705 LINE",
"484 705 LINE",
"484 678 LINE",
"558 675 LINE",
"558 635 LINE",
"367 374 LINE"
);
}
);
width = 746;
}
);
unicode = 0058;
},
{
glyphname = Y;
lastChange = "2022-04-09 16:56:47 +0000";
layers = (
{
anchors = (
{
name = bottom;
position = "{337, 0}";
},
{
name = top;
position = "{396, 705}";
},
{
name = topleft;
position = "{13, 700}";
}
);
layerId = "4EF47A43-EA9F-416F-884D-AC541148DC09";
paths = (
{
closed = 1;
nodes = (
"-49 705 LINE",
"-49 678 LINE",
"25 675 LINE",
"58 635 LINE",
"277 322 LINE",
"277 70 LINE",
"234 30 LINE",
"177 27 LINE",
"177 0 LINE",
"525 0 LINE",
"525 27 LINE",
"465 30 LINE",
"422 70 LINE",
"422 319 LINE",
"602 629 LINE",
"653 675 LINE",
"718 678 LINE",
"718 705 LINE",
"456 705 LINE",
"456 678 LINE",
"547 675 LINE",
"554 630 LINE",
"396 369 LINE",
"202 652 LINE",
"223 675 LINE",
"327 678 LINE",
"327 705 LINE"
);
}
);
width = 662;
}
);
leftKerningGroup = Y;
rightKerningGroup = Y;
unicode = 0059;
},
{
glyphname = Z;
lastChange = "2022-03-30 09:20:17 +0000";
layers = (
{
anchors = (
{
name = bottom;
position = "{356, 0}";
},
{
name = center;
position = "{356, 353}";
},
{
name = top;
position = "{376, 705}";
}
);
layerId = "4EF47A43-EA9F-416F-884D-AC541148DC09";
paths = (
{
closed = 1;
nodes = (
"483 665 LINE",
"229 665 LINE",
"147 634 LINE",
"85 463 LINE",
"53 463 LINE",
"75 705 LINE",
"75 706 LINE",
"662 705 LINE",
"673 690 LINE",
"223 42 LINE",
"508 42 LINE",
"587 79 LINE",
"642 243 LINE",
"675 243 LINE",
"645 0 LINE",
"45 0 LINE",
"34 19 LINE"
);
}
);
width = 707;
}
);
leftKerningGroup = Z;
rightKerningGroup = Z;
unicode = 005A;
},
{
glyphname = a;
lastChange = "2023-05-02 10:27:55 +0000";
layers = (
{
anchors = (
{
name = bottom;
position = "{307, 0}";
},
{
name = ogonek;
position = "{492, -3}";
},
{
name = top;
position = "{317, 505}";
}
);
layerId = "4EF47A43-EA9F-416F-884D-AC541148DC09";
paths = (
{
closed = 1;
nodes = (
"605 0 LINE",
"605 27 LINE",
"535 32 LINE",
"503 68 LINE",
"503 373 LINE",
"432 489 LINE",
"245 514 LINE",
"68 434 LINE",
"140 285 LINE",
"162 285 LINE",
"203 449 LINE",
"319 466 LINE",
"366 387 LINE",
"366 0 LINE"
);
},
{
closed = 1;
nodes = (
"263 49 LINE",
"199 88 LINE",
"199 179 LINE",
"376 256 LINE",
"376 278 LINE",
"105 217 LINE",
"50 111 LINE",
"131 -10 LINE",
"297 0 LINE",
"373 84 LINE",
"373 115 LINE"
);
}
);
width = 616;
},
{
anchors = (
{
name = bottom;
position = "{288, 0}";
},
{
name = ogonek;
position = "{362, -7}";
},
{
name = top;
position = "{278, 500}";
}
);
associatedMasterId = "4EF47A43-EA9F-416F-884D-AC541148DC09";
layerId = "96F2739E-4168-4492-AC31-EA5D97E5693D";
name = "Sep 7 21, 17:15";
paths = (
{
closed = 1;
nodes = (
"339 387 LINE",
"292 472 LINE",
"176 449 LINE",
"135 285 LINE",
"113 285 LINE",
"41 434 LINE",
"218 514 LINE",
"405 489 LINE",
"476 373 LINE",
"476 92 LINE",
"508 56 LINE",
"578 51 LINE",
"578 29 LINE",
"339 -14 LINE"
);
},
{
closed = 1;
nodes = (
"346 92 LINE",
"270 0 LINE",
"104 -14 LINE",
"23 111 LINE",
"78 217 LINE",
"349 278 LINE",
"349 263 LINE",
"172 174 LINE",
"172 88 LINE",
"236 45 LINE",
"346 111 LINE"
);
}
);
width = 568;
}
);
leftKerningGroup = a;
rightKerningGroup = n;
rightMetricsKey = "=n-5";
unicode = 0061;
},
{
glyphname = ae;
lastChange = "2022-04-09 17:37:28 +0000";
layers = (
{
layerId = "4EF47A43-EA9F-416F-884D-AC541148DC09";
paths = (
{
closed = 1;
nodes = (
"376 125 LINE",
"284 49 LINE",
"199 88 LINE",
"199 182 LINE",
"373 247 LINE"
);
},
{
closed = 1;
nodes = (
"483 373 LINE",
"427 495 LINE",
"245 514 LINE",
"68 434 LINE",
"140 285 LINE",
"162 285 LINE",
"203 449 LINE",
"319 461 LINE",
"369 387 LINE",
"372 281 LINE",
"105 220 LINE",
"50 111 LINE",
"131 -10 LINE",
"297 0 LINE",
"408 94 LINE",
"503 63 LINE"
);
},
{
closed = 1;
nodes = (
"392 162 LINE",
"400 94 LINE",
"549 -12 LINE",
"769 5 LINE",
"872 149 LINE",
"856 164 LINE",
"704 63 LINE",
"575 104 LINE",
"501 260 LINE",
"532 432 LINE",
"605 475 LINE",
"692 455 LINE",
"739 378 LINE",
"742 327 LINE",
"505 328 LINE",
"505 293 LINE",
"873 293 LINE",
"841 430 LINE",
"692 517 LINE",
"468 480 LINE",
"432 410 LINE"
);
}
);
width = 912;
},
{
anchors = (
{
name = bottom;
position = "{431, 0}";
},
{
name = top;
position = "{431, 500}";
}
);
associatedMasterId = "4EF47A43-EA9F-416F-884D-AC541148DC09";
layerId = "917A4C90-58E5-4DA1-9BAE-995CB0FD6CF6";
name = "Sep 7 21, 18:53";
paths = (
{
closed = 1;
nodes = (
"352 387 LINE",
"336 416 OFFCURVE",
"321 444 OFFCURVE",
"305 472 CURVE",
"266 464 OFFCURVE",
"228 457 OFFCURVE",
"189 449 CURVE",
"175 394 OFFCURVE",
"162 340 OFFCURVE",
"148 285 CURVE",
"126 285 LINE",
"54 434 LINE",
"113 461 OFFCURVE",
"173 486 OFFCURVE",
"231 514 CURVE",
"294 505 OFFCURVE",
"355 498 OFFCURVE",
"418 489 CURVE",
"442 451 OFFCURVE",
"455 426 OFFCURVE",
"479 387 CURVE",
"475 88 LINE",
"352 86 LINE"
);
},
{
closed = 1;
nodes = (
"418 112 LINE",
"285 -4 LINE",
"117 -18 LINE",
"36 111 LINE",
"54 146 OFFCURVE",
"73 181 OFFCURVE",
"91 217 CURVE",
"174 236 OFFCURVE",
"279 260 OFFCURVE",
"362 278 CURVE",
"362 266 LINE",
"307 237 OFFCURVE",
"239 204 OFFCURVE",
"185 174 CURVE",
"185 146 OFFCURVE",
"185 117 OFFCURVE",
"185 88 CURVE",
"206 74 OFFCURVE",
"228 59 OFFCURVE",
"249 45 CURVE",
"283 64 OFFCURVE",
"385 114 OFFCURVE",
"418 134 CURVE"
);
},
{
closed = 1;
nodes = (
"475 292 LINE",
"710 324 LINE",
"654 455 LINE",
"567 475 LINE",
"494 432 LINE",
"479 260 LINE",
"543 104 LINE",
"672 63 LINE",
"824 122 LINE",
"837 111 LINE",
"804 74 OFFCURVE",
"770 37 OFFCURVE",
"737 0 CURVE",
"670 -4 OFFCURVE",
"615 -9 OFFCURVE",
"548 -13 CURVE",
"496 19 OFFCURVE",
"437 56 OFFCURVE",
"385 88 CURVE",
"362 308 LINE",
"452 480 LINE",
"654 518 LINE",
"793 440 LINE",
"841 267 LINE",
"475 267 LINE"
);
}
);
width = 861;
}
);
leftKerningGroup = a;
leftMetricsKey = "=a";
rightKerningGroup = o;
rightMetricsKey = "=e";
unicode = 00E6;
},
{
glyphname = b;
lastChange = "2023-05-02 10:15:54 +0000";
layers = (
{
layerId = "4EF47A43-EA9F-416F-884D-AC541148DC09";
rightMetricsKey = "=o";
paths = (
{
closed = 1;
nodes = (
"235 440 LINE",
"426 518 LINE",
"599 429 LINE",
"639 259 LINE",
"576 87 LINE",
"374 -14 LINE",
"235 -4 LINE",
"98 50 LINE",
"98 657 LINE",
"81 700 LINE",
"5 692 LINE",
"5 719 LINE",
"235 770 LINE"
);
},
{
closed = 1;
nodes = (
"317 43 LINE",
"443 58 LINE",
"486 138 LINE",
"480 335 LINE",
"379 443 LINE",
"235 401 LINE",
"235 108 LINE"
);
}
);
width = 683;
}
);
leftKerningGroup = h;
leftMetricsKey = "=h-20";
rightKerningGroup = o;
unicode = 0062;
},
{
glyphname = c;
lastChange = "2022-03-30 09:20:17 +0000";
layers = (
{
anchors = (
{
name = bottom;
position = "{327, 0}";
},
{
name = top;
position = "{287, 505}";
}
);
layerId = "4EF47A43-EA9F-416F-884D-AC541148DC09";
leftMetricsKey = "=o";
rightMetricsKey = "=o-8";
paths = (
{
closed = 1;
nodes = (
"495 477 LINE",
"367 518 LINE",
"154 480 LINE",
"44 308 LINE",
"94 82 LINE",
"250 -14 LINE",
"450 0 LINE",
"547 152 LINE",
"524 169 LINE",
"392 65 LINE",
"254 104 LINE",
"200 260 LINE",
"211 432 LINE",
"285 476 LINE",
"399 449 LINE",
"460 293 LINE",
"475 293 LINE",
"542 407 LINE"
);
}
);
width = 583;
}
);
leftKerningGroup = o;
leftMetricsKey = "=o";
rightMetricsKey = "=o-10";
unicode = 0063;
},
{
glyphname = d;
lastChange = "2022-04-09 17:30:01 +0000";
layers = (
{
layerId = "4EF47A43-EA9F-416F-884D-AC541148DC09";
leftMetricsKey = "=o";
paths = (
{
closed = 1;
nodes = (
"352 719 LINE",
"352 694 LINE",
"443 703 LINE",
"460 663 LINE",
"460 0 LINE",
"691 0 LINE",
"691 27 LINE",
"629 32 LINE",
"597 68 LINE",
"597 770 LINE"
);
},
{
closed = 1;
nodes = (
"326 77 LINE",
"194 189 LINE",
"175 352 LINE",
"236 452 LINE",
"350 466 LINE",
"463 408 LINE",
"472 488 LINE",
"323 518 LINE",
"118 438 LINE",
"44 254 LINE",
"104 68 LINE",
"303 -13 LINE",
"465 79 LINE",
"465 118 LINE"
);
}
);
width = 706;
},
{
anchors = (
{
name = bottom;
position = "{312, 0}";
},
{
name = center;
position = "{312, 250}";
},
{
name = top;
position = "{312, 770}";
},
{
name = topright;
position = "{604, 500}";
}
);
associatedMasterId = "4EF47A43-EA9F-416F-884D-AC541148DC09";
layerId = "102153D9-3F51-406D-B093-6979C825A063";
leftMetricsKey = "=o";
name = "Sep 7 21, 18:12";
paths = (
{
closed = 1;
nodes = (
"427 97 LINE",
"253 -13 LINE",
"68 69 LINE",
"20 244 LINE",
"87 431 LINE",
"286 514 LINE",
"427 477 LINE",
"427 409 LINE",
"313 466 LINE",
"209 452 LINE",
"148 352 LINE",
"167 189 LINE",
"289 77 LINE",
"427 121 LINE"
);
},
{
closed = 1;
nodes = (
"548 101 LINE",
"580 65 LINE",
"650 60 LINE",
"650 38 LINE",
"411 -13 LINE",
"411 663 LINE",
"394 703 LINE",
"324 708 LINE",
"324 730 LINE",
"548 770 LINE"
);
}
);
width = 624;
}
);
leftKerningGroup = o;
leftMetricsKey = "=|b";
rightKerningGroup = d;
rightMetricsKey = "=|h-10";
unicode = 0064;
},
{
glyphname = eth;
lastChange = "2022-03-30 09:33:47 +0000";
layers = (
{
layerId = "4EF47A43-EA9F-416F-884D-AC541148DC09";
paths = (
{
closed = 1;
nodes = (
"218 772 LINE",
"190 720 LINE",
"319 663 LINE",
"432 545 LINE",
"482 265 LINE",
"451 111 LINE",
"313 67 LINE",
"191 189 LINE",
"172 352 LINE",
"233 438 LINE",
"337 456 LINE",
"482 376 LINE",
"456 477 LINE",
"310 518 LINE",
"111 441 LINE",
"44 254 LINE",
"92 69 LINE",
"297 -13 LINE",
"485 39 LINE",
"609 213 LINE",
"581 446 LINE",
"420 674 LINE"
);
},
{
closed = 1;
nodes = (
"236 546 LINE",
"541 730 LINE",
"515 774 LINE",
"209 590 LINE"
);
}
);
width = 653;
},
{
associatedMasterId = "4EF47A43-EA9F-416F-884D-AC541148DC09";
layerId = "6C3DED75-B054-436E-96FE-84E3DCCC0D00";
name = "Sep 7 21, 15:36";
paths = (
{
closed = 1;
nodes = (
"451 271 LINE",
"340 453 LINE",
"258 461 LINE",
"181 415 LINE",
"169 221 LINE",
"266 59 LINE",
"355 53 LINE",
"425 96 LINE",
"460 356 LINE",
"445 537 LINE",
"371 630 LINE",
"209 690 LINE",
"214 732 LINE",
"347 719 LINE",
"482 633 LINE",
"526 488 LINE",
"556 356 LINE",
"594 200 LINE",
"471 39 LINE",
"241 -13 LINE",
"75 76 LINE",
"20 301 LINE",
"125 466 LINE",
"355 517 LINE",
"540 425 LINE"
);
}
);
width = 600;
}
);
leftKerningGroup = o;
leftMetricsKey = o;
rightKerningGroup = o;
rightMetricsKey = o;
unicode = 00F0;
},
{
glyphname = dcroat;
lastChange = "2022-03-30 09:20:17 +0000";
layers = (
{
components = (
{
name = d;
}
);
layerId = "4EF47A43-EA9F-416F-884D-AC541148DC09";
paths = (
{
closed = 1;
nodes = (
"254 590 LINE",
"693 590 LINE",
"693 625 LINE",
"254 625 LINE"
);
}
);
width = 708;
}
);
leftMetricsKey = d;
rightMetricsKey = d;
unicode = 0111;
},
{
glyphname = e;
lastChange = "2022-04-12 08:05:33 +0000";
layers = (
{
anchors = (
{
name = bottom;
position = "{297, 0}";
},
{
name = ogonek;
position = "{405, 0}";
},
{
name = top;
position = "{297, 505}";
}
);
layerId = "4EF47A43-EA9F-416F-884D-AC541148DC09";
leftMetricsKey = "=o";
rightMetricsKey = "=o-5";
paths = (
{
closed = 1;
nodes = (
"555 293 LINE",
"517 430 LINE",
"368 517 LINE",
"154 480 LINE",
"44 308 LINE",
"86 94 LINE",
"250 -13 LINE",
"451 5 LINE",
"554 149 LINE",
"538 164 LINE",
"386 63 LINE",
"257 104 LINE",
"183 260 LINE",
"208 432 LINE",
"281 475 LINE",
"368 455 LINE",
"421 378 LINE",
"424 327 LINE",
"187 328 LINE",
"187 293 LINE"
);
}
);
width = 594;
}
);
leftKerningGroup = o;
leftMetricsKey = "=o";
rightKerningGroup = o;
rightMetricsKey = "=o-5";
unicode = 0065;
},
{
glyphname = schwa;
lastChange = "2022-03-30 09:20:17 +0000";
layers = (
{
background = {
paths = (
{
closed = 1;
nodes = (
"41 211 LINE",
"79 74 LINE",
"228 -13 LINE",
"442 24 LINE",
"552 196 LINE",
"510 410 LINE",
"346 517 LINE",
"145 499 LINE",
"42 355 LINE",
"58 340 LINE",
"210 441 LINE",
"339 400 LINE",
"413 244 LINE",
"388 72 LINE",
"315 29 LINE",
"228 49 LINE",
"175 126 LINE",
"172 177 LINE",
"409 176 LINE",
"409 211 LINE"
);
}
);
};
layerId = "4EF47A43-EA9F-416F-884D-AC541148DC09";
paths = (
{
closed = 1;
nodes = (
"41 205 LINE",
"79 74 LINE",
"228 -13 LINE",
"442 24 LINE",
"555 204 LINE",
"510 420 LINE",
"346 517 LINE",
"155 499 LINE",
"42 355 LINE",
"61 336 LINE",
"208 434 LINE",
"339 400 LINE",
"413 246 LINE",
"390 72 LINE",
"315 26 LINE",
"225 47 LINE",
"179 118 LINE",
"175 171 LINE",
"462 171 LINE",
"462 205 LINE"
);
}
);
width = 599;
}
);
leftKerningGroup = o;
rightKerningGroup = o;
unicode = 0259;
},
{
glyphname = f;
lastChange = "2022-03-30 09:20:17 +0000";
layers = (
{
layerId = "4EF47A43-EA9F-416F-884D-AC541148DC09";
paths = (
{
closed = 1;
nodes = (
"97 30 LINE",
"43 27 LINE",
"43 0 LINE",
"405 0 LINE",
"405 27 LINE",
"310 30 LINE",
"267 75 LINE",
"267 677 LINE",
"309 730 LINE",
"391 723 LINE",
"441 538 LINE",
"463 538 LINE",
"516 702 LINE",
"357 770 LINE",
"205 735 LINE",
"130 593 LINE",
"130 75 LINE"
);
},
{
closed = 1;
nodes = (
"68 473 LINE",
"394 473 LINE",
"394 505 LINE",
"68 505 LINE"
);
}
);
width = 446;
}
);
rightKerningGroup = f;
unicode = 0066;
},
{
glyphname = g;
lastChange = "2023-03-27 09:09:53 +0000";
layers = (
{
anchors = (
{
name = bottom;
position = "{318, -240}";
},
{
name = top;
position = "{318, 505}";
}
);
layerId = "4EF47A43-EA9F-416F-884D-AC541148DC09";
paths = (
{
closed = 1;
nodes = (
"406 157 LINE",
"533 251 LINE",
"531 411 LINE",
"412 506 LINE",
"196 505 LINE",
"81 403 LINE",
"83 254 LINE",
"200 157 LINE"
);
},
{
closed = 1;
nodes = (
"359 461 LINE",
"404 340 LINE",
"389 220 LINE",
"330 183 LINE",
"263 208 LINE",
"210 325 LINE",
"236 448 LINE",
"293 483 LINE"
);
},
{
closed = 1;
nodes = (
"200 184 LINE",
"69 95 LINE",
"79 29 LINE",
"175 -27 LINE",
"437 -49 LINE",
"470 -109 LINE",
"451 -164 LINE",
"398 -190 LINE",
"214 -187 LINE",
"151 -118 LINE",
"157 -67 LINE",
"242 9 LINE",
"224 22 LINE",
"51 -76 LINE",
"34 -130 LINE",
"87 -194 LINE",
"208 -240 LINE",
"394 -237 LINE",
"584 -119 LINE",
"588 -12 LINE",
"502 54 LINE",
"193 98 LINE",
"190 131 LINE",
"249 168 LINE"
);
},
{
closed = 1;
nodes = (
"514 505 LINE",
"429 479 LINE",
"449 452 LINE",
"568 453 LINE",
"607 560 LINE",
"584 565 LINE"
);
}
);
width = 635;
}
);
leftKerningGroup = g;
rightKerningGroup = g;
unicode = 0067;
},
{
glyphname = h;
lastChange = "2023-05-02 10:16:19 +0000";
layers = (
{
layerId = "4EF47A43-EA9F-416F-884D-AC541148DC09";
leftMetricsKey = "=n-5";
rightMetricsKey = "=n";
paths = (
{
closed = 1;
nodes = (
"589 75 LINE",
"589 404 LINE",
"538 495 LINE",
"408 514 LINE",
"249 426 LINE",
"249 770 LINE",
"25 724 LINE",
"25 697 LINE",
"95 702 LINE",
"112 662 LINE",
"112 75 LINE",
"79 30 LINE",
"25 27 LINE",
"25 0 LINE",
"336 0 LINE",
"336 27 LINE",
"282 30 LINE",
"249 75 LINE",
"249 389 LINE",
"382 438 LINE",
"452 364 LINE",
"452 75 LINE",
"419 30 LINE",
"365 27 LINE",
"365 0 LINE",
"676 0 LINE",
"676 27 LINE",
"622 30 LINE"
);
}
);
width = 692;
}
);
leftKerningGroup = h;
rightKerningGroup = n;
rightMetricsKey = "=n";
unicode = 0068;
},
{
glyphname = hbar;
lastChange = "2022-03-30 09:20:17 +0000";
layers = (
{
components = (
{
name = h;
transform = "{1, 0, 0, 1, 6, 0}";
}
);
layerId = "4EF47A43-EA9F-416F-884D-AC541148DC09";
paths = (
{
closed = 1;
nodes = (
"25 592 LINE",
"366 592 LINE",
"366 625 LINE",
"25 625 LINE"
);
}
);
width = 698;
}
);
leftKerningGroup = h;
leftMetricsKey = h;
rightKerningGroup = n;
rightMetricsKey = h;
unicode = 0127;
},
{
glyphname = i;
lastChange = "2023-03-04 16:35:17 +0000";
layers = (
{
anchors = (
{
name = bottom;
position = "{183, 0}";
},
{
name = ogonek;
position = "{323, 10}";
},
{
name = top;
position = "{183, 500}";
}
);
components = (
{
name = idotless;
}
);
layerId = "4EF47A43-EA9F-416F-884D-AC541148DC09";
leftMetricsKey = "=n";
rightMetricsKey = "=n";
paths = (
{
closed = 1;
nodes = (
"272 680 LINE",
"259 745 LINE",
"203 771 LINE",
"138 758 LINE",
"103 706 LINE",
"120 635 LINE",
"177 609 LINE",
"242 620 LINE"
);
}
);
width = 357;
}
);
rightKerningGroup = d;
unicode = 0069;
},
{
glyphname = idotless;
lastChange = "2022-03-30 09:20:17 +0000";
layers = (
{
anchors = (
{
name = bottom;
position = "{177, 0}";
},
{
name = ogonek;
position = "{183, 2}";
},
{
name = top;
position = "{177, 500}";
}
);
layerId = "4EF47A43-EA9F-416F-884D-AC541148DC09";
paths = (
{
closed = 1;
nodes = (
"229 518 LINE",
"40 468 LINE",
"40 441 LINE",
"102 450 LINE",
"117 416 LINE",
"117 75 LINE",
"84 30 LINE",
"30 27 LINE",
"30 0 LINE",
"341 0 LINE",
"341 27 LINE",
"287 30 LINE",
"254 75 LINE",
"254 518 LINE"
);
}
);
width = 357;
}
);
leftKerningGroup = n;
unicode = 0131;
},
{
glyphname = iogonek;
lastChange = "2022-04-09 17:30:10 +0000";
layers = (
{
components = (
{
name = idotless;
},
{
name = ogonekcomb;
transform = "{1, 0, 0, 1, 49, 2}";
}
);
layerId = "4EF47A43-EA9F-416F-884D-AC541148DC09";
paths = (
{
closed = 1;
nodes = (
"272 680 LINE",
"259 745 LINE",
"203 771 LINE",
"138 758 LINE",
"103 706 LINE",
"120 635 LINE",
"177 609 LINE",
"242 620 LINE"
);
}
);
width = 351;
}
);
rightKerningGroup = d;
unicode = 012F;
},
{
glyphname = j;
lastChange = "2022-04-09 17:30:04 +0000";
layers = (
{
components = (
{
alignment = -1;
name = jdotless;
transform = "{1, 0, 0, 1, -13, 0}";
}
);
layerId = "4EF47A43-EA9F-416F-884D-AC541148DC09";
paths = (
{
closed = 1;
nodes = (
"261 680 LINE",
"248 745 LINE",
"192 771 LINE",
"127 758 LINE",
"92 706 LINE",
"109 635 LINE",
"166 609 LINE",
"231 620 LINE"
);
}
);
width = 358;
},
{
associatedMasterId = "4EF47A43-EA9F-416F-884D-AC541148DC09";
layerId = "0FC65351-E99B-4574-9075-106840036883";
name = "Sep 7 21, 15:24";
paths = (
{
closed = 1;
nodes = (
"104 353 LINE",
"104 0 LINE",
"100 -38 OFFCURVE",
"92 -82 OFFCURVE",
"88 -120 CURVE",
"-60 -113 LINE",
"-58 -174 LINE",
"-60 -230 LINE",
"-15 -226 OFFCURVE",
"30 -221 OFFCURVE",
"75 -217 CURVE",
"130 -122 OFFCURVE",
"186 -28 OFFCURVE",
"241 67 CURVE",
"241 500 LINE",
"178 500 LINE",
"27 460 LINE",
"27 438 LINE",
"87 423 LINE"
);
},
{
closed = 1;
nodes = (
"200 622 OFFCURVE",
"181 619 OFFCURVE",
"157 615 CURVE",
"138 623 OFFCURVE",
"121 631 OFFCURVE",
"103 639 CURVE",
"99 660 OFFCURVE",
"92 681 OFFCURVE",
"87 702 CURVE",
"98 719 OFFCURVE",
"108 736 OFFCURVE",
"120 752 CURVE",
"141 756 OFFCURVE",
"161 760 OFFCURVE",
"182 764 CURVE",
"199 755 OFFCURVE",
"217 747 OFFCURVE",
"235 739 CURVE",
"239 720 OFFCURVE",
"244 701 OFFCURVE",
"248 682 CURVE",
"238 663 OFFCURVE",
"229 644 OFFCURVE",
"219 625 CURVE"
);
}
);
width = 313;
}
);
leftKerningGroup = j;
rightKerningGroup = d;
unicode = 006A;
},
{
glyphname = jdotless;
lastChange = "2022-03-30 09:20:17 +0000";
layers = (
{
layerId = "4EF47A43-EA9F-416F-884D-AC541148DC09";
paths = (
{
closed = 1;
nodes = (
"122 414 LINE",
"122 0 LINE",
"97 -140 LINE",
"-17 -214 LINE",
"-5 -241 LINE",
"188 -146 LINE",
"259 -20 LINE",
"259 515 LINE",
"253 515 LINE",
"28 463 LINE",
"28 434 LINE",
"105 444 LINE"
);
}
);
width = 356;
}
);
leftKerningGroup = j;
unicode = 0237;
},
{
glyphname = k;
lastChange = "2022-04-12 08:06:09 +0000";
layers = (
{
anchors = (
{
name = bottom;
position = "{321, 0}";
},
{
name = top;
position = "{321, 770}";
}
);
layerId = "4EF47A43-EA9F-416F-884D-AC541148DC09";
leftMetricsKey = "=h";
paths = (
{
closed = 1;
nodes = (
"247 233 LINE",
"556 467 LINE",
"576 481 LINE",
"620 484 LINE",
"620 506 LINE",
"407 506 LINE",
"407 484 LINE",
"464 481 LINE",
"464 429 LINE",
"478 452 LINE",
"227 270 LINE"
);
},
{
closed = 1;
nodes = (
"25 718 LINE",
"25 688 LINE",
"95 699 LINE",
"112 662 LINE",
"112 75 LINE",
"79 30 LINE",
"25 27 LINE",
"25 0 LINE",
"337 0 LINE",
"337 27 LINE",
"282 30 LINE",
"249 75 LINE",
"249 771 LINE"
);
},
{
closed = 1;
nodes = (
"267 261 LINE",
"419 25 LINE",
"464 0 LINE",
"664 0 LINE",
"664 27 LINE",
"601 33 LINE",
"375 336 LINE"
);
}
);
width = 641;
}
);
leftKerningGroup = h;
rightKerningGroup = k;
unicode = 006B;
},
{
glyphname = l;
lastChange = "2023-05-02 10:16:12 +0000";
layers = (
{
anchors = (
{
name = bottom;
position = "{189, 0}";
},
{
name = center;
position = "{189, 385}";
},
{
name = top;
position = "{189, 770}";
},
{
name = topright;
position = "{327, 505}";
}
);
layerId = "4EF47A43-EA9F-416F-884D-AC541148DC09";
leftMetricsKey = "=n-3";
paths = (
{
closed = 1;
nodes = (
"27 724 LINE",
"27 696 LINE",
"97 707 LINE",
"114 667 LINE",
"114 74 LINE",
"82 30 LINE",
"28 27 LINE",
"28 0 LINE",
"338 0 LINE",
"338 27 LINE",
"282 30 LINE",
"251 75 LINE",
"251 770 LINE"
);
}
);
width = 363;
}
);
leftKerningGroup = h;
rightKerningGroup = d;
rightMetricsKey = "=|h";
unicode = 006C;
},
{
glyphname = lslash;
lastChange = "2022-03-30 09:20:17 +0000";
layers = (
{
components = (
{
name = l;
transform = "{1, 0, 0, 1, 8, 0}";
}
);
layerId = "4EF47A43-EA9F-416F-884D-AC541148DC09";
paths = (
{
closed = 1;
nodes = (
"345 472 LINE",
"325 503 LINE",
"27 320 LINE",
"47 289 LINE"
);
}
);
width = 371;
}
);
leftKerningGroup = h;
leftMetricsKey = l;
rightMetricsKey = l;
unicode = 0142;
},
{
glyphname = m;
lastChange = "2022-03-30 09:20:17 +0000";
layers = (
{
layerId = "4EF47A43-EA9F-416F-884D-AC541148DC09";
leftMetricsKey = "=n";
rightMetricsKey = "=n";
paths = (
{
closed = 1;
nodes = (
"1012 27 LINE",
"956 30 LINE",
"925 75 LINE",
"925 408 LINE",
"876 497 LINE",
"756 518 LINE",
"575 412 LINE",
"575 379 LINE",
"721 442 LINE",
"788 368 LINE",
"788 75 LINE",
"755 30 LINE",
"701 27 LINE",
"701 0 LINE",
"1012 0 LINE"
);
},
{
closed = 1;
nodes = (
"665 27 LINE",
"611 30 LINE",
"589 62 LINE",
"589 408 LINE",
"540 497 LINE",
"420 518 LINE",
"231 409 LINE",
"231 377 LINE",
"385 442 LINE",
"452 368 LINE",
"452 75 LINE",
"419 30 LINE",
"365 27 LINE",
"365 0 LINE",
"665 0 LINE"
);
},
{
closed = 1;
nodes = (
"30 439 LINE",
"100 451 LINE",
"117 411 LINE",
"117 75 LINE",
"84 30 LINE",
"30 27 LINE",
"30 0 LINE",
"339 0 LINE",
"339 27 LINE",
"285 30 LINE",
"254 75 LINE",
"254 514 LINE",
"30 465 LINE"
);
}
);
width = 1028;
}
);
leftKerningGroup = n;
rightKerningGroup = n;
unicode = 006D;
},
{
glyphname = n;
lastChange = "2023-03-20 09:56:45 +0000";
layers = (
{
anchors = (
{
name = bottom;
position = "{353, 0}";
},
{
name = top;
position = "{353, 505}";
}
);
layerId = "4EF47A43-EA9F-416F-884D-AC541148DC09";
paths = (
{
closed = 1;
nodes = (
"30 438 LINE",
"100 449 LINE",
"117 409 LINE",
"117 75 LINE",
"84 30 LINE",
"30 27 LINE",
"30 0 LINE",
"339 0 LINE",
"339 27 LINE",
"285 30 LINE",
"254 75 LINE",
"254 389 LINE",
"387 438 LINE",
"457 364 LINE",
"457 75 LINE",
"424 30 LINE",
"370 27 LINE",
"370 0 LINE",
"679 0 LINE",
"679 27 LINE",
"625 30 LINE",
"594 75 LINE",
"594 404 LINE",
"542 493 LINE",
"413 514 LINE",
"254 418 LINE",
"254 514 LINE",
"30 465 LINE"
);
}
);
width = 695;
}
);
leftKerningGroup = n;
rightKerningGroup = n;
unicode = 006E;
},
{
glyphname = eng;
lastChange = "2022-03-30 09:20:17 +0000";
layers = (
{
layerId = "4EF47A43-EA9F-416F-884D-AC541148DC09";
paths = (
{
closed = 1;
nodes = (
"425 -154 LINE",
"362 -194 LINE",
"374 -217 LINE",
"530 -160 LINE",
"594 -45 LINE",
"594 404 LINE",
"542 493 LINE",
"413 514 LINE",
"254 414 LINE",
"254 514 LINE",
"30 464 LINE",
"30 437 LINE",
"100 448 LINE",
"117 408 LINE",
"117 75 LINE",
"84 30 LINE",
"30 27 LINE",
"30 0 LINE",
"339 0 LINE",
"339 27 LINE",
"285 30 LINE",
"254 75 LINE",
"254 389 LINE",
"387 438 LINE",
"457 364 LINE",
"457 -84 LINE"
);
}
);
width = 660;
}
);
leftKerningGroup = n;
leftMetricsKey = n;
rightKerningGroup = n;
rightMetricsKey = "=n+50";
unicode = 014B;
},
{
glyphname = o;
lastChange = "2023-05-02 10:15:15 +0000";
layers = (
{
anchors = (
{
name = bottom;
position = "{310, 0}";
},
{
name = center;
position = "{310, 250}";
},
{
name = ogonek;
position = "{560, 10}";
},
{
name = top;
position = "{310, 500}";
},
{
name = topright;
position = "{602, 500}";
}
);
layerId = "4EF47A43-EA9F-416F-884D-AC541148DC09";
paths = (
{
closed = 1;
nodes = (
"592 131 LINE",
"590 368 LINE",
"424 505 LINE",
"190 505 LINE",
"44 366 LINE",
"46 129 LINE",
"193 1 LINE",
"428 0 LINE"
);
},
{
closed = 1;
nodes = (
"397 451 LINE",
"463 250 LINE",
"398 55 LINE",
"318 35 LINE",
"232 55 LINE",
"173 250 LINE",
"231 450 LINE",
"317 471 LINE"
);
}
);
width = 636;
}
);
leftKerningGroup = o;
rightKerningGroup = o;
unicode = 006F;
},
{
glyphname = oslash;
lastChange = "2022-03-30 09:33:36 +0000";
layers = (
{
components = (
{
name = o;
}
);
layerId = "4EF47A43-EA9F-416F-884D-AC541148DC09";
paths = (
{
closed = 1;
nodes = (
"543 518 LINE",
"491 518 LINE",
"95 -29 LINE",
"151 -29 LINE"
);
}
);
width = 636;
}
);
leftKerningGroup = o;
leftMetricsKey = "=o";
rightKerningGroup = o;
rightMetricsKey = "=o";
unicode = 00F8;
},
{
glyphname = p;
lastChange = "2022-03-30 09:20:17 +0000";
layers = (
{
layerId = "4EF47A43-EA9F-416F-884D-AC541148DC09";
rightMetricsKey = "=o";
paths = (
{
closed = 1;
nodes = (
"398 437 LINE",
"485 329 LINE",
"491 138 LINE",
"448 58 LINE",
"328 38 LINE",
"232 102 LINE",
"232 23 LINE",
"383 -13 LINE",
"580 88 LINE",
"644 253 LINE",
"604 424 LINE",
"411 518 LINE",
"232 431 LINE",
"232 390 LINE"
);
},
{
closed = 1;
nodes = (
"15 467 LINE",
"15 438 LINE",
"85 448 LINE",
"102 408 LINE",
"102 -165 LINE",
"69 -210 LINE",
"15 -213 LINE",
"15 -240 LINE",
"383 -240 LINE",
"383 -213 LINE",
"292 -210 LINE",
"239 -165 LINE",
"239 518 LINE"
);
}
);
width = 688;
}
);
leftMetricsKey = "=h-10";
rightKerningGroup = o;
unicode = 0070;
},
{
glyphname = thorn;
lastChange = "2022-03-30 09:20:17 +0000";
layers = (
{
layerId = "4EF47A43-EA9F-416F-884D-AC541148DC09";
paths = (
{
closed = 1;
nodes = (
"405 437 LINE",
"492 329 LINE",
"498 138 LINE",
"455 58 LINE",
"335 38 LINE",
"239 102 LINE",
"239 23 LINE",
"390 -13 LINE",
"587 88 LINE",
"651 253 LINE",
"611 424 LINE",
"418 518 LINE",
"239 431 LINE",
"239 390 LINE"
);
},
{
closed = 1;
nodes = (
"22 723 LINE",
"22 695 LINE",
"92 706 LINE",
"109 666 LINE",
"109 -164 LINE",
"76 -209 LINE",
"22 -212 LINE",
"22 -240 LINE",
"373 -240 LINE",
"373 -212 LINE",
"299 -209 LINE",
"246 -164 LINE",
"246 771 LINE"
);
}
);
width = 695;
}
);
leftKerningGroup = h;
rightKerningGroup = o;
unicode = 00FE;
},
{
glyphname = q;
lastChange = "2022-03-30 09:20:17 +0000";
layers = (
{
layerId = "4EF47A43-EA9F-416F-884D-AC541148DC09";
leftMetricsKey = "=o";
paths = (
{
closed = 1;
nodes = (
"313 77 LINE",
"191 189 LINE",
"172 352 LINE",
"233 452 LINE",
"337 466 LINE",
"440 415 LINE",
"449 497 LINE",
"310 518 LINE",
"115 438 LINE",
"44 244 LINE",
"101 68 LINE",
"290 -13 LINE",
"442 79 LINE",
"442 118 LINE"
);
},
{
closed = 1;
nodes = (
"403 -205 LINE",
"299 -213 LINE",
"299 -240 LINE",
"660 -240 LINE",
"660 -213 LINE",
"606 -205 LINE",
"573 -165 LINE",
"573 518 LINE",
"553 518 LINE",
"509 473 LINE",
"449 497 LINE",
"436 492 LINE",
"436 -165 LINE"
);
}
);
width = 675;
}
);
leftKerningGroup = o;
rightMetricsKey = "=|h-10";
unicode = 0071;
},
{
glyphname = r;
lastChange = "2022-03-30 09:20:17 +0000";
layers = (
{
anchors = (
{
name = bottom;
position = "{179, 0}";
},
{
name = top;
position = "{274, 500}";
}
);
layerId = "4EF47A43-EA9F-416F-884D-AC541148DC09";
leftMetricsKey = "=n";
paths = (
{
closed = 1;
nodes = (
"30 0 LINE",
"392 0 LINE",
"392 28 LINE",
"297 31 LINE",
"254 76 LINE",
"254 517 LINE",
"30 464 LINE",
"30 437 LINE",
"100 445 LINE",
"117 405 LINE",
"117 76 LINE",
"84 31 LINE",
"30 28 LINE"
);
},
{
closed = 1;
nodes = (
"531 436 LINE",
"435 517 LINE",
"335 492 LINE",
"253 382 LINE",
"253 339 LINE",
"371 435 LINE",
"401 423 LINE",
"451 301 LINE",
"473 301 LINE"
);
}
);
width = 551;
}
);
leftKerningGroup = n;
unicode = 0072;
},
{
glyphname = s;
lastChange = "2022-04-09 16:57:46 +0000";
layers = (
{
anchors = (
{
name = bottom;
position = "{295, 0}";
},
{
name = top;
position = "{286, 505}";
}
);
layerId = "4EF47A43-EA9F-416F-884D-AC541148DC09";
paths = (
{
closed = 1;
nodes = (
"326 521 LINE",
"151 502 LINE",
"54 381 LINE",
"88 267 LINE",
"368 148 LINE",
"377 75 LINE",
"303 22 LINE",
"175 56 LINE",
"104 201 LINE",
"82 202 LINE",
"62 50 LINE",
"156 2 LINE",
"333 -12 LINE",
"475 64 LINE",
"492 178 LINE",
"450 256 LINE",
"219 344 LINE",
"177 405 LINE",
"208 473 LINE",
"288 485 LINE",
"381 445 LINE",
"428 329 LINE",
"450 329 LINE",
"473 467 LINE"
);
}
);
width = 541;
},
{
anchors = (
{
name = bottom;
position = "{253, 0}";
},
{
name = top;
position = "{253, 500}";
}
);
associatedMasterId = "4EF47A43-EA9F-416F-884D-AC541148DC09";
layerId = "45264F42-CB7F-4EDD-A293-53F2AF6F77B7";
name = "9 feb 22, 15:18";
paths = (
{
closed = 1;
nodes = (
"397 329 LINE",
"375 329 LINE",
"280 482 LINE",
"211 485 LINE",
"173 405 LINE",
"219 346 LINE",
"438 260 LINE",
"488 140 LINE",
"410 36 LINE",
"240 -18 LINE",
"35 47 LINE",
"80 196 LINE",
"102 195 LINE",
"161 71 LINE",
"278 30 LINE",
"346 64 LINE",
"346 152 LINE",
"67 282 LINE",
"46 401 LINE",
"158 502 LINE",
"308 517 LINE",
"443 472 LINE"
);
}
);
width = 506;
}
);
leftKerningGroup = s;
rightKerningGroup = s;
unicode = 0073;
},
{
glyphname = germandbls;
lastChange = "2022-03-30 09:20:17 +0000";
layers = (
{
layerId = "4EF47A43-EA9F-416F-884D-AC541148DC09";
paths = (
{
closed = 1;
nodes = (
"303 46 LINE",
"438 -15 LINE",
"615 38 LINE",
"655 204 LINE",
"557 353 LINE",
"431 427 LINE",
"541 501 LINE",
"587 609 LINE",
"541 710 LINE",
"410 771 LINE",
"195 729 LINE",
"112 589 LINE",
"112 60 LINE",
"73 30 LINE",
"25 27 LINE",
"25 0 LINE",
"249 0 LINE",
"249 647 LINE",
"318 728 LINE",
"432 679 LINE",
"451 537 LINE",
"332 426 LINE",
"331 375 LINE",
"452 314 LINE",
"533 165 LINE",
"487 32 LINE",
"373 68 LINE",
"351 187 LINE",
"333 187 LINE"
);
}
);
width = 705;
}
);
leftMetricsKey = "=B";
rightMetricsKey = "=B";
unicode = 00DF;
},
{
glyphname = t;
lastChange = "2022-03-30 09:20:17 +0000";
layers = (
{
anchors = (
{
name = bottom;
position = "{273, 0}";
},
{
name = center;
position = "{210, 250}";
},
{
name = top;
position = "{213, 628}";
},
{
name = topright;
position = "{387, 500}";
}
);
layerId = "4EF47A43-EA9F-416F-884D-AC541148DC09";
paths = (
{
closed = 1;
nodes = (
"342 74 LINE",
"271 75 LINE",
"233 124 LINE",
"233 471 LINE",
"392 471 LINE",
"392 505 LINE",
"233 505 LINE",
"233 630 LINE",
"213 630 LINE",
"160 551 LINE",
"99 515 LINE",
"26 504 LINE",
"26 471 LINE",
"85 471 LINE",
"96 445 LINE",
"96 107 LINE",
"139 11 LINE",
"288 -11 LINE",
"411 81 LINE",
"395 104 LINE"
);
}
);
width = 440;
}
);
leftKerningGroup = t;
rightKerningGroup = t;
unicode = 0074;
},
{
glyphname = tbar;
lastChange = "2022-03-30 09:20:17 +0000";
layers = (
{
components = (
{
name = t;
transform = "{1, 0, 0, 1, 10, 0}";
}
);
layerId = "4EF47A43-EA9F-416F-884D-AC541148DC09";
paths = (
{
closed = 1;
nodes = (
"26 333 LINE",
"388 333 LINE",
"388 365 LINE",
"26 365 LINE"
);
}
);
width = 450;
}
);
leftKerningGroup = t;
rightKerningGroup = t;
unicode = 0167;
},
{
glyphname = u;
lastChange = "2022-04-11 10:18:16 +0000";
layers = (
{
anchors = (
{
name = bottom;
position = "{343, 0}";
},
{
name = ogonek;
position = "{583, -8}";
},
{
name = top;
position = "{323, 500}";
},
{
name = topright;
position = "{651, 500}";
}
);
layerId = "4EF47A43-EA9F-416F-884D-AC541148DC09";
paths = (
{
closed = 1;
nodes = (
"240 516 LINE",
"16 470 LINE",
"16 446 LINE",
"86 441 LINE",
"103 401 LINE",
"103 96 LINE",
"155 7 LINE",
"284 -12 LINE",
"444 91 LINE",
"445 0 LINE",
"683 0 LINE",
"683 27 LINE",
"610 30 LINE",
"581 70 LINE",
"581 516 LINE",
"357 470 LINE",
"357 446 LINE",
"427 441 LINE",
"444 401 LINE",
"444 132 LINE",
"310 70 LINE",
"240 130 LINE"
);
}
);
width = 703;
}
);
leftKerningGroup = u;
rightKerningGroup = n;
unicode = 0075;
},
{
glyphname = v;
lastChange = "2022-03-30 09:20:17 +0000";
layers = (
{
layerId = "4EF47A43-EA9F-416F-884D-AC541148DC09";
paths = (
{
closed = 1;
nodes = (
"24 475 LINE",
"57 435 LINE",
"268 0 LINE",
"322 0 LINE",
"492 432 LINE",
"539 475 LINE",
"593 478 LINE",
"593 505 LINE",
"371 505 LINE",
"371 478 LINE",
"435 475 LINE",
"435 403 LINE",
"334 137 LINE",
"202 436 LINE",
"224 475 LINE",
"278 478 LINE",
"278 505 LINE",
"-30 505 LINE",
"-30 478 LINE"
);
}
);
width = 568;
}
);
leftKerningGroup = v;
rightKerningGroup = v;
unicode = 0076;
},
{
glyphname = w;
lastChange = "2022-04-09 17:24:47 +0000";
layers = (
{
anchors = (
{
name = bottom;
position = "{423, 0}";
},
{
name = top;
position = "{423, 505}";
}
);
layerId = "4EF47A43-EA9F-416F-884D-AC541148DC09";
paths = (
{
closed = 1;
nodes = (
"213 475 LINE",
"257 478 LINE",
"257 505 LINE",
"-42 505 LINE",
"-42 478 LINE",
"12 475 LINE",
"47 437 LINE",
"251 0 LINE",
"305 0 LINE",
"469 433 LINE",
"425 433 LINE",
"315 151 LINE",
"190 435 LINE"
);
},
{
closed = 1;
nodes = (
"546 475 LINE",
"600 478 LINE",
"600 505 LINE",
"281 505 LINE",
"281 478 LINE",
"335 475 LINE",
"373 435 LINE",
"567 0 LINE",
"621 0 LINE",
"773 437 LINE",
"804 475 LINE",
"858 478 LINE",
"858 505 LINE",
"656 505 LINE",
"656 478 LINE",
"710 475 LINE",
"710 396 LINE",
"631 151 LINE",
"513 435 LINE"
);
}
);
width = 820;
}
);
leftKerningGroup = w;
rightKerningGroup = w;
unicode = 0077;
},
{
glyphname = x;
lastChange = "2022-03-30 09:20:17 +0000";
layers = (
{
layerId = "4EF47A43-EA9F-416F-884D-AC541148DC09";
paths = (
{
closed = 1;
nodes = (
"-41 505 LINE",
"-41 478 LINE",
"13 475 LINE",
"42 449 LINE",
"352 70 LINE",
"328 30 LINE",
"274 27 LINE",
"274 0 LINE",
"615 0 LINE",
"615 27 LINE",
"561 30 LINE",
"530 60 LINE",
"225 435 LINE",
"245 475 LINE",
"292 478 LINE",
"292 505 LINE"
);
},
{
closed = 1;
nodes = (
"231 232 LINE",
"80 66 LINE",
"29 29 LINE",
"-23 26 LINE",
"-23 0 LINE",
"206 0 LINE",
"206 26 LINE",
"142 29 LINE",
"142 69 LINE",
"286 232 LINE"
);
},
{
closed = 1;
nodes = (
"338 266 LINE",
"526 475 LINE",
"604 478 LINE",
"604 505 LINE",
"351 505 LINE",
"351 478 LINE",
"427 475 LINE",
"427 436 LINE",
"283 266 LINE"
);
}
);
width = 585;
}
);
unicode = 0078;
},
{
glyphname = y;
lastChange = "2022-04-12 08:14:08 +0000";
layers = (
{
anchors = (
{
name = bottom;
position = "{297, 0}";
},
{
name = top;
position = "{326, 500}";
}
);
layerId = "4EF47A43-EA9F-416F-884D-AC541148DC09";
paths = (
{
closed = 1;
nodes = (
"211 -260 LINE",
"322 0 LINE",
"522 430 LINE",
"561 475 LINE",
"621 478 LINE",
"621 505 LINE",
"393 505 LINE",
"393 478 LINE",
"457 475 LINE",
"457 395 LINE",
"358 167 LINE",
"220 436 LINE",
"248 475 LINE",
"326 478 LINE",
"326 505 LINE",
"-19 505 LINE",
"-19 478 LINE",
"33 475 LINE",
"74 434 LINE",
"286 27 LINE",
"108 -194 LINE"
);
}
);
width = 595;
},
{
anchors = (
{
name = bottom;
position = "{255, 0}";
},
{
name = top;
position = "{255, 500}";
}
);
associatedMasterId = "4EF47A43-EA9F-416F-884D-AC541148DC09";
layerId = "CC5D989C-8B5A-44BC-977B-B74D24C0B43F";
name = "Sep 7 21, 15:24";
paths = (
{
closed = 1;
nodes = (
"18 -230 LINE",
"66 -225 OFFCURVE",
"114 -219 OFFCURVE",
"162 -214 CURVE",
"208 -143 OFFCURVE",
"254 -71 OFFCURVE",
"300 0 CURVE",
"230 0 LINE",
"211 -39 OFFCURVE",
"191 -78 OFFCURVE",
"172 -117 CURVE",
"121 -112 OFFCURVE",
"69 -106 OFFCURVE",
"18 -101 CURVE"
);
},
{
closed = 1;
nodes = (
"8 498 LINE",
"230 0 LINE",
"300 0 LINE",
"492 498 LINE",
"448 498 LINE",
"308 137 LINE",
"154 498 LINE"
);
},
{
closed = 1;
nodes = (
"215 475 LINE",
"259 478 LINE",
"259 500 LINE",
"-40 500 LINE",
"-40 478 LINE",
"4 475 LINE",
"37 430 LINE",
"182 430 LINE"
);
},
{
closed = 1;
nodes = (
"510 475 LINE",
"554 478 LINE",
"554 500 LINE",
"362 500 LINE",
"362 478 LINE",
"406 475 LINE",
"406 379 LINE",
"467 430 LINE"
);
}
);
width = 508;
},
{
anchors = (
{
name = bottom;
position = "{275, 0}";
},
{
name = top;
position = "{305, 500}";
}
);
associatedMasterId = "4EF47A43-EA9F-416F-884D-AC541148DC09";
layerId = "18CE942D-543D-4547-A9F8-14CA279CFC9C";
name = "20 feb 22, 10:12";
paths = (
{
closed = 1;
nodes = (
"190 -240 LINE",
"301 0 LINE",
"501 430 LINE",
"540 480 LINE",
"600 483 LINE",
"600 505 LINE",
"372 505 LINE",
"372 483 LINE",
"436 480 LINE",
"436 395 LINE",
"337 167 LINE",
"199 436 LINE",
"227 480 LINE",
"285 483 LINE",
"285 505 LINE",
"-40 505 LINE",
"-40 483 LINE",
"12 480 LINE",
"53 434 LINE",
"261 28 LINE",
"118 -207 LINE"
);
}
);
width = 558;
}
);
leftKerningGroup = v;
rightKerningGroup = v;
unicode = 0079;
},
{
glyphname = z;
lastChange = "2023-05-02 10:27:51 +0000";
layers = (
{
anchors = (
{
name = bottom;
position = "{295, 0}";
},
{
name = center;
position = "{295, 250}";
},
{
name = top;
position = "{295, 500}";
}
);
layerId = "4EF47A43-EA9F-416F-884D-AC541148DC09";
paths = (
{
closed = 1;
nodes = (
"527 505 LINE",
"88 505 LINE",
"70 319 LINE",
"94 319 LINE",
"154 444 LINE",
"197 475 LINE",
"371 475 LINE",
"55 23 LINE",
"65 0 LINE",
"514 0 LINE",
"535 178 LINE",
"511 178 LINE",
"464 61 LINE",
"430 34 LINE",
"228 34 LINE",
"538 482 LINE"
);
}
);
width = 590;
}
);
leftKerningGroup = z;
rightKerningGroup = z;
unicode = 007A;
},
{
glyphname = f_b;
lastChange = "2022-03-30 09:20:17 +0000";
layers = (
{
layerId = "4EF47A43-EA9F-416F-884D-AC541148DC09";
paths = (
{
closed = 1;
nodes = (
"67 473 LINE",
"393 473 LINE",
"393 505 LINE",
"67 505 LINE"
);
},
{
closed = 1;
nodes = (
"504 703 LINE",
"521 663 LINE",
"521 50 LINE",
"658 -4 LINE",
"797 -14 LINE",
"999 87 LINE",
"1062 259 LINE",
"1022 429 LINE",
"849 518 LINE",
"658 440 LINE",
"658 770 LINE"
);
},
{
closed = 1;
nodes = (
"658 401 LINE",
"802 443 LINE",
"903 335 LINE",
"909 138 LINE",
"866 58 LINE",
"740 43 LINE",
"658 108 LINE"
);
},
{
closed = 1;
nodes = (
"97 30 LINE",
"43 27 LINE",
"43 0 LINE",
"375 0 LINE",
"375 27 LINE",
"300 30 LINE",
"267 70 LINE",
"267 667 LINE",
"350 730 LINE",
"478 720 LINE",
"531 559 LINE",
"553 559 LINE",
"606 734 LINE",
"388 770 LINE",
"186 719 LINE",
"130 583 LINE",
"130 70 LINE"
);
}
);
width = 1106;
}
);
leftKerningGroup = f;
leftMetricsKey = f;
rightMetricsKey = b;
},
{
glyphname = f_f;
lastChange = "2022-03-30 09:20:17 +0000";
layers = (
{
layerId = "4EF47A43-EA9F-416F-884D-AC541148DC09";
paths = (
{
closed = 1;
nodes = (
"97 30 LINE",
"43 27 LINE",
"43 0 LINE",
"375 0 LINE",
"375 27 LINE",
"300 30 LINE",
"267 70 LINE",
"267 667 LINE",
"364 730 LINE",
"477 722 LINE",
"530 559 LINE",
"552 559 LINE",
"605 734 LINE",
"388 770 LINE",
"186 719 LINE",
"130 583 LINE",
"130 70 LINE"
);
},
{
closed = 1;
nodes = (
"494 30 LINE",
"440 27 LINE",
"440 0 LINE",
"792 0 LINE",
"792 27 LINE",
"707 30 LINE",
"664 70 LINE",
"664 677 LINE",
"706 730 LINE",
"788 723 LINE",
"838 538 LINE",
"860 538 LINE",
"913 702 LINE",
"754 770 LINE",
"602 735 LINE",
"527 593 LINE",
"527 70 LINE"
);
},
{
closed = 1;
nodes = (
"791 473 LINE",
"791 505 LINE",
"70 506 LINE",
"70 473 LINE"
);
}
);
width = 843;
}
);
leftKerningGroup = f;
leftMetricsKey = f;
rightKerningGroup = f;
rightMetricsKey = f;
},
{
glyphname = f_f_b;
lastChange = "2022-03-30 09:20:17 +0000";
layers = (
{
anchors = (
{
name = bottom;
position = "{1082, 0}";
},
{
name = top;
position = "{1082, 770}";
}
);
layerId = "4EF47A43-EA9F-416F-884D-AC541148DC09";
paths = (
{
closed = 1;
nodes = (
"97 30 LINE",
"43 27 LINE",
"43 0 LINE",
"375 0 LINE",
"375 27 LINE",
"300 30 LINE",
"267 70 LINE",
"267 687 LINE",
"344 730 LINE",
"461 722 LINE",
"514 549 LINE",
"536 549 LINE",
"589 724 LINE",
"388 770 LINE",
"186 719 LINE",
"130 583 LINE",
"130 70 LINE"
);
},
{
closed = 1;
nodes = (
"70 473 LINE",
"777 473 LINE",
"777 505 LINE",
"70 506 LINE"
);
},
{
closed = 1;
nodes = (
"888 703 LINE",
"905 663 LINE",
"905 50 LINE",
"1042 -4 LINE",
"1181 -14 LINE",
"1383 87 LINE",
"1446 259 LINE",
"1406 429 LINE",
"1233 518 LINE",
"1042 440 LINE",
"1042 770 LINE"
);
},
{
closed = 1;
nodes = (
"1042 401 LINE",
"1186 443 LINE",
"1287 335 LINE",
"1293 138 LINE",
"1250 58 LINE",
"1124 43 LINE",
"1042 108 LINE"
);
},
{
closed = 1;
nodes = (
"481 30 LINE",
"427 27 LINE",
"427 0 LINE",
"759 0 LINE",
"759 27 LINE",
"684 30 LINE",
"651 70 LINE",
"651 687 LINE",
"734 730 LINE",
"862 720 LINE",
"915 559 LINE",
"937 559 LINE",
"990 734 LINE",
"772 770 LINE",
"570 719 LINE",
"514 583 LINE",
"514 70 LINE"
);
}
);
width = 1490;
}
);
leftKerningGroup = f;
leftMetricsKey = f;
rightMetricsKey = b;
},
{
glyphname = f_f_i;
lastChange = "2022-03-30 09:20:17 +0000";
layers = (
{
background = {
paths = (
{
closed = 1;
nodes = (
"480 25 LINE",
"426 22 LINE",
"426 0 LINE",
"778 0 LINE",
"778 22 LINE",
"693 25 LINE",
"650 70 LINE",
"650 647 LINE",
"762 739 LINE",
"900 713 LINE",
"958 548 LINE",
"974 548 LINE",
"1029 702 LINE",
"870 770 LINE",
"628 751 LINE",
"513 623 LINE",
"513 70 LINE"
);
},
{
closed = 1;
nodes = (
"451 473 LINE",
"877 473 LINE",
"877 505 LINE",
"451 505 LINE"
);
},
{
closed = 1;
nodes = (
"867 505 LINE",
"867 474 LINE",
"930 468 LINE",
"944 440 LINE",
"944 75 LINE",
"911 30 LINE",
"857 27 LINE",
"857 0 LINE",
"1168 0 LINE",
"1168 27 LINE",
"1114 30 LINE",
"1081 75 LINE",
"1081 505 LINE"
);
}
);
};
layerId = "4EF47A43-EA9F-416F-884D-AC541148DC09";
paths = (
{
closed = 1;
nodes = (
"70 506 LINE",
"70 473 LINE",
"877 473 LINE",
"931 468 LINE",
"945 440 LINE",
"945 75 LINE",
"912 35 LINE",
"858 32 LINE",
"858 0 LINE",
"1169 0 LINE",
"1169 32 LINE",
"1115 35 LINE",
"1082 75 LINE",
"1082 505 LINE"
);
},
{
closed = 1;
nodes = (
"97 30 LINE",
"43 27 LINE",
"43 0 LINE",
"375 0 LINE",
"375 27 LINE",
"300 30 LINE",
"267 70 LINE",
"267 687 LINE",
"344 730 LINE",
"461 722 LINE",
"514 549 LINE",
"536 549 LINE",
"589 714 LINE",
"388 770 LINE",
"186 719 LINE",
"130 583 LINE",
"130 70 LINE"
);
},
{
closed = 1;
nodes = (
"481 30 LINE",
"427 27 LINE",
"427 0 LINE",
"759 0 LINE",
"759 27 LINE",
"684 30 LINE",
"651 70 LINE",
"650 647 LINE",
"762 739 LINE",
"900 713 LINE",
"952 548 LINE",
"974 548 LINE",
"1029 702 LINE",
"870 770 LINE",
"684 770 LINE",
"560 702 LINE",
"514 583 LINE",
"514 70 LINE"
);
}
);
width = 1185;
}
);
leftKerningGroup = f;
leftMetricsKey = f;
rightKerningGroup = d;
rightMetricsKey = i;
},
{
glyphname = f_h;
lastChange = "2022-03-30 09:20:17 +0000";
layers = (
{
layerId = "4EF47A43-EA9F-416F-884D-AC541148DC09";
paths = (
{
closed = 1;
nodes = (
"997 70 LINE",
"997 404 LINE",
"945 493 LINE",
"816 514 LINE",
"657 414 LINE",
"657 770 LINE",
"503 720 LINE",
"520 673 LINE",
"520 70 LINE",
"487 30 LINE",
"433 27 LINE",
"433 0 LINE",
"744 0 LINE",
"744 27 LINE",
"690 30 LINE",
"657 70 LINE",
"657 389 LINE",
"790 438 LINE",
"860 364 LINE",
"860 70 LINE",
"827 30 LINE",
"773 27 LINE",
"773 0 LINE",
"1084 0 LINE",
"1084 27 LINE",
"1030 30 LINE"
);
},
{
closed = 1;
nodes = (
"97 30 LINE",
"43 27 LINE",
"43 0 LINE",
"375 0 LINE",
"375 27 LINE",
"300 30 LINE",
"267 70 LINE",
"267 687 LINE",
"354 730 LINE",
"471 712 LINE",
"524 559 LINE",
"546 559 LINE",
"599 734 LINE",
"398 770 LINE",
"186 719 LINE",
"130 583 LINE",
"130 70 LINE"
);
},
{
closed = 1;
nodes = (
"70 473 LINE",
"385 473 LINE",
"385 505 LINE",
"70 506 LINE"
);
}
);
width = 1100;
}
);
leftKerningGroup = f;
leftMetricsKey = f;
rightKerningGroup = n;
rightMetricsKey = h;
},
{
glyphname = f_j;
lastChange = "2022-03-30 09:20:17 +0000";
layers = (
{
layerId = "4EF47A43-EA9F-416F-884D-AC541148DC09";
paths = (
{
closed = 1;
nodes = (
"97 30 LINE",
"43 27 LINE",
"43 0 LINE",
"395 0 LINE",
"395 27 LINE",
"310 30 LINE",
"267 70 LINE",
"267 647 LINE",
"379 739 LINE",
"517 713 LINE",
"575 548 LINE",
"591 548 LINE",
"646 702 LINE",
"487 770 LINE",
"245 751 LINE",
"130 623 LINE",
"130 70 LINE"
);
},
{
closed = 1;
nodes = (
"68 473 LINE",
"494 473 LINE",
"547 468 LINE",
"561 440 LINE",
"562 0 LINE",
"537 -140 LINE",
"423 -214 LINE",
"435 -241 LINE",
"628 -146 LINE",
"699 -20 LINE",
"698 -20 LINE",
"698 505 LINE",
"68 505 LINE"
);
},
{
closed = 0;
nodes = (
"262 513 LINE"
);
}
);
width = 796;
}
);
leftKerningGroup = f;
leftMetricsKey = f;
rightKerningGroup = d;
rightMetricsKey = j;
},
{
glyphname = fi;
lastChange = "2022-03-30 09:20:17 +0000";
layers = (
{
layerId = "4EF47A43-EA9F-416F-884D-AC541148DC09";
paths = (
{
closed = 1;
nodes = (
"97 30 LINE",
"43 27 LINE",
"43 0 LINE",
"395 0 LINE",
"395 27 LINE",
"310 30 LINE",
"267 75 LINE",
"267 647 LINE",
"379 739 LINE",
"517 713 LINE",
"575 548 LINE",
"591 548 LINE",
"646 702 LINE",
"487 770 LINE",
"245 751 LINE",
"130 623 LINE",
"130 75 LINE"
);
},
{
closed = 1;
nodes = (
"70 473 LINE",
"494 473 LINE",
"547 468 LINE",
"561 440 LINE",
"561 80 LINE",
"528 35 LINE",
"474 32 LINE",
"474 0 LINE",
"785 0 LINE",
"785 32 LINE",
"731 35 LINE",
"698 80 LINE",
"698 505 LINE",
"70 505 LINE"
);
}
);
width = 801;
}
);
leftKerningGroup = f;
leftMetricsKey = f;
rightKerningGroup = d;
rightMetricsKey = i;
unicode = FB01;
},
{
glyphname = fl;
lastChange = "2022-03-30 09:20:17 +0000";
layers = (
{
layerId = "4EF47A43-EA9F-416F-884D-AC541148DC09";
paths = (
{
closed = 1;
nodes = (
"657 770 LINE",
"503 720 LINE",
"520 673 LINE",
"520 70 LINE",
"487 30 LINE",
"433 27 LINE",
"433 0 LINE",
"744 0 LINE",
"744 27 LINE",
"690 30 LINE",
"657 70 LINE"
);
},
{
closed = 1;
nodes = (
"97 30 LINE",
"43 27 LINE",
"43 0 LINE",
"375 0 LINE",
"375 27 LINE",
"300 30 LINE",
"267 70 LINE",
"267 687 LINE",
"351 730 LINE",
"458 712 LINE",
"521 559 LINE",
"543 559 LINE",
"596 734 LINE",
"395 770 LINE",
"186 719 LINE",
"130 583 LINE",
"130 70 LINE"
);
},
{
closed = 1;
nodes = (
"71 473 LINE",
"385 473 LINE",
"385 505 LINE",
"71 506 LINE"
);
}
);
width = 769;
}
);
leftKerningGroup = f;
leftMetricsKey = f;
rightKerningGroup = d;
rightMetricsKey = l;
unicode = FB02;
},
{
glyphname = ordfeminine;
lastChange = "2022-03-30 09:20:17 +0000";
layers = (
{
layerId = "4EF47A43-EA9F-416F-884D-AC541148DC09";
paths = (
{
closed = 1;
nodes = (
"196 689 LINE",
"167 738 LINE",
"95 728 LINE",
"69 630 LINE",
"46 630 LINE",
"11 723 LINE",
"121 773 LINE",
"238 757 LINE",
"282 685 LINE",
"282 498 LINE",
"302 476 LINE",
"345 473 LINE",
"345 451 LINE",
"196 451 LINE"
);
},
{
closed = 1;
nodes = (
"201 505 LINE",
"154 453 LINE",
"50 447 LINE",
"0 522 LINE",
"34 592 LINE",
"203 630 LINE",
"203 609 LINE",
"92 564 LINE",
"92 508 LINE",
"132 488 LINE",
"201 531 LINE"
);
}
);
width = 345;
}
);
unicode = 00AA;
},
{
glyphname = ordmasculine;
lastChange = "2022-03-30 09:20:17 +0000";
layers = (
{
layerId = "4EF47A43-EA9F-416F-884D-AC541148DC09";
paths = (
{
closed = 1;
nodes = (
"350 577 LINE",
"317 715 LINE",
"205 771 LINE",
"64 739 LINE",
"0 640 LINE",
"33 502 LINE",
"134 448 LINE",
"275 480 LINE"
);
},
{
closed = 1;
nodes = (
"198 727 LINE",
"260 630 LINE",
"245 518 LINE",
"203 492 LINE",
"148 496 LINE",
"90 591 LINE",
"102 704 LINE",
"148 731 LINE"
);
}
);
width = 350;
}
);
unicode = 00BA;
},
{
glyphname = zero;
lastChange = "2023-03-20 10:14:37 +0000";
layers = (
{
layerId = "4EF47A43-EA9F-416F-884D-AC541148DC09";
paths = (
{
closed = 1;
nodes = (
"239 0 LINE",
"65 230 LINE",
"65 496 LINE",
"239 705 LINE",
"472 705 LINE",
"630 518 LINE",
"630 232 LINE",
"472 0 LINE"
);
},
{
closed = 1;
nodes = (
"265 635 LINE",
"208 342 LINE",
"267 77 LINE",
"353 42 LINE",
"427 71 LINE",
"488 344 LINE",
"426 635 LINE",
"347 665 LINE"
);
}
);
width = 695;
},
{
associatedMasterId = "4EF47A43-EA9F-416F-884D-AC541148DC09";
layerId = "654CC09B-E43D-4D2F-9537-88C369B0901B";
name = "15 feb 22, 12:17";
paths = (
{
closed = 1;
nodes = (
"404 20 OFFCURVE",
"328 2 OFFCURVE",
"251 -17 CURVE",
"85 146 LINE",
"30 397 LINE",
"135 659 LINE",
"365 714 LINE",
"550 571 LINE",
"604 300 LINE",
"481 39 LINE"
);
},
{
closed = 1;
nodes = (
"191 599 LINE",
"179 307 LINE",
"276 69 LINE",
"365 53 LINE",
"435 97 LINE",
"455 373 LINE",
"350 637 LINE",
"268 647 LINE"
);
}
);
width = 634;
}
);
unicode = 0030;
},
{
glyphname = one;
lastChange = "2023-03-20 10:17:20 +0000";
layers = (
{
layerId = "4EF47A43-EA9F-416F-884D-AC541148DC09";
paths = (
{
closed = 1;
nodes = (
"55 639 LINE",
"55 612 LINE",
"187 648 LINE",
"187 75 LINE",
"114 30 LINE",
"50 27 LINE",
"50 0 LINE",
"472 0 LINE",
"472 27 LINE",
"405 30 LINE",
"334 75 LINE",
"334 720 LINE",
"328 720 LINE"
);
}
);
width = 514;
}
);
unicode = 0031;
},
{
glyphname = two;
lastChange = "2023-03-20 10:18:10 +0000";
layers = (
{
layerId = "4EF47A43-EA9F-416F-884D-AC541148DC09";
paths = (
{
closed = 1;
nodes = (
"67 466 LINE",
"196 636 LINE",
"338 627 LINE",
"408 516 LINE",
"356 348 LINE",
"42 41 LINE",
"41 -1 LINE",
"534 0 LINE",
"574 214 LINE",
"551 214 LINE",
"510 125 LINE",
"463 99 LINE",
"177 103 LINE",
"211 151 LINE",
"535 378 LINE",
"563 568 LINE",
"455 700 LINE",
"252 714 LINE",
"78 641 LINE",
"40 474 LINE"
);
}
);
width = 618;
}
);
unicode = 0032;
},
{
glyphname = three;
lastChange = "2023-03-20 10:17:57 +0000";
layers = (
{
layerId = "4EF47A43-EA9F-416F-884D-AC541148DC09";
paths = (
{
closed = 1;
nodes = (
"50 586 LINE",
"129 687 LINE",
"253 725 LINE",
"443 684 LINE",
"519 567 LINE",
"474 446 LINE",
"303 383 LINE",
"481 349 LINE",
"549 190 LINE",
"448 29 LINE",
"251 -16 LINE",
"43 49 LINE",
"75 232 LINE",
"100 232 LINE",
"140 85 LINE",
"207 40 LINE",
"332 56 LINE",
"396 149 LINE",
"338 289 LINE",
"230 354 LINE",
"131 349 LINE",
"126 392 LINE",
"237 412 LINE",
"359 505 LINE",
"336 614 LINE",
"200 650 LINE",
"92 551 LINE"
);
}
);
width = 614;
},
{
associatedMasterId = "4EF47A43-EA9F-416F-884D-AC541148DC09";
layerId = "CDCB53D1-FC6D-4CD4-9C55-69259EF77A44";
name = "15 feb 22, 12:04";
paths = (
{
closed = 1;
nodes = (
"75 671 LINE",
"273 715 LINE",
"462 684 LINE",
"538 567 LINE",
"493 436 LINE",
"312 373 LINE",
"510 331 LINE",
"568 190 LINE",
"457 25 LINE",
"250 -23 LINE",
"72 45 LINE",
"59 212 LINE",
"99 212 LINE",
"196 24 LINE",
"341 52 LINE",
"405 149 LINE",
"347 289 LINE",
"239 358 LINE",
"174 358 LINE",
"174 392 LINE",
"266 392 LINE",
"378 505 LINE",
"355 624 LINE",
"199 671 LINE",
"90 487 LINE",
"57 484 LINE"
);
}
);
width = 607;
}
);
unicode = 0033;
},
{
glyphname = four;
lastChange = "2023-03-20 10:17:28 +0000";
layers = (
{
layerId = "4EF47A43-EA9F-416F-884D-AC541148DC09";
paths = (
{
closed = 1;
nodes = (
"346 273 LINE",
"75 273 LINE",
"71 228 LINE",
"346 562 LINE"
);
},
{
closed = 1;
nodes = (
"346 183 LINE",
"346 73 LINE",
"297 30 LINE",
"238 27 LINE",
"238 0 LINE",
"589 0 LINE",
"589 27 LINE",
"530 30 LINE",
"480 75 LINE",
"480 183 LINE",
"595 183 LINE",
"595 273 LINE",
"480 273 LINE",
"480 705 LINE",
"403 705 LINE",
"30 238 LINE",
"30 183 LINE"
);
}
);
width = 653;
}
);
unicode = 0034;
},
{
glyphname = five;
lastChange = "2023-03-20 10:15:23 +0000";
layers = (
{
layerId = "4EF47A43-EA9F-416F-884D-AC541148DC09";
paths = (
{
closed = 1;
nodes = (
"40 61 LINE",
"236 -14 LINE",
"437 32 LINE",
"562 213 LINE",
"515 372 LINE",
"322 464 LINE",
"119 393 LINE",
"158 644 LINE",
"116 580 LINE",
"505 580 LINE",
"505 705 LINE",
"121 705 LINE",
"65 321 LINE",
"97 306 LINE",
"182 376 LINE",
"309 386 LINE",
"413 268 LINE",
"409 98 LINE",
"354 47 LINE",
"207 50 LINE",
"138 101 LINE",
"111 233 LINE",
"75 233 LINE"
);
}
);
width = 602;
}
);
unicode = 0035;
},
{
glyphname = six;
lastChange = "2023-03-20 10:18:39 +0000";
layers = (
{
layerId = "4EF47A43-EA9F-416F-884D-AC541148DC09";
paths = (
{
closed = 1;
nodes = (
"148 331 LINE",
"271 381 LINE",
"389 381 LINE",
"475 283 LINE",
"475 140 LINE",
"431 66 LINE",
"299 72 LINE",
"222 199 LINE",
"197 450 LINE",
"233 586 LINE",
"332 661 LINE",
"435 663 LINE",
"499 605 LINE",
"518 503 LINE",
"550 503 LINE",
"584 668 LINE",
"397 720 LINE",
"209 681 LINE",
"95 544 LINE",
"36 331 LINE",
"97 117 LINE",
"258 -6 LINE",
"407 -1 LINE",
"538 75 LINE",
"610 220 LINE",
"570 372 LINE",
"461 448 LINE",
"311 448 LINE",
"138 360 LINE"
);
}
);
width = 640;
},
{
associatedMasterId = "4EF47A43-EA9F-416F-884D-AC541148DC09";
layerId = "A1127DAB-B70C-4EBF-8ABB-49E4D3954D38";
name = "15 feb 22, 12:09";
paths = (
{
closed = 1;
nodes = (
"169 331 LINE",
"292 381 LINE",
"410 381 LINE",
"496 283 LINE",
"496 140 LINE",
"452 54 LINE",
"320 60 LINE",
"233 199 LINE",
"208 450 LINE",
"244 586 LINE",
"343 671 LINE",
"456 663 LINE",
"510 605 LINE",
"549 523 LINE",
"571 523 LINE",
"595 658 LINE",
"398 714 LINE",
"230 671 LINE",
"116 544 LINE",
"57 331 LINE",
"118 117 LINE",
"270 -8 LINE",
"428 -1 LINE",
"559 75 LINE",
"631 220 LINE",
"591 372 LINE",
"482 448 LINE",
"332 448 LINE",
"159 360 LINE"
);
}
);
width = 678;
}
);
unicode = 0036;
},
{
glyphname = seven;
lastChange = "2023-03-20 10:19:28 +0000";
layers = (
{
layerId = "4EF47A43-EA9F-416F-884D-AC541148DC09";
paths = (
{
closed = 1;
nodes = (
"22 578 LINE",
"428 578 LINE",
"430 634 LINE",
"265 409 LINE",
"176 217 LINE",
"153 0 LINE",
"280 0 LINE",
"287 193 LINE",
"348 409 LINE",
"524 682 LINE",
"513 705 LINE",
"22 705 LINE"
);
}
);
width = 571;
}
);
unicode = 0037;
},
{
glyphname = eight;
lastChange = "2023-03-20 10:16:16 +0000";
layers = (
{
layerId = "4EF47A43-EA9F-416F-884D-AC541148DC09";
paths = (
{
closed = 1;
nodes = (
"368 720 LINE",
"186 699 LINE",
"89 579 LINE",
"130 417 LINE",
"410 266 LINE",
"480 173 LINE",
"455 79 LINE",
"367 38 LINE",
"245 100 LINE",
"208 256 LINE",
"239 331 LINE",
"322 393 LINE",
"297 394 LINE",
"128 319 LINE",
"64 217 LINE",
"128 49 LINE",
"343 -10 LINE",
"532 56 LINE",
"616 211 LINE",
"556 332 LINE",
"267 487 LINE",
"230 584 LINE",
"269 667 LINE",
"354 684 LINE",
"434 646 LINE",
"452 527 LINE",
"425 448 LINE",
"327 403 LINE",
"367 391 LINE",
"513 430 LINE",
"578 532 LINE",
"518 683 LINE"
);
}
);
width = 685;
}
);
unicode = 0038;
},
{
glyphname = nine;
lastChange = "2023-03-20 10:17:49 +0000";
layers = (
{
layerId = "4EF47A43-EA9F-416F-884D-AC541148DC09";
paths = (
{
closed = 1;
nodes = (
"472 385 LINE",
"349 331 LINE",
"231 359 LINE",
"165 474 LINE",
"165 607 LINE",
"239 668 LINE",
"341 652 LINE",
"424 513 LINE",
"421 272 LINE",
"357 136 LINE",
"288 61 LINE",
"138 24 LINE",
"148 -16 LINE",
"401 41 LINE",
"525 168 LINE",
"584 381 LINE",
"543 595 LINE",
"401 710 LINE",
"243 717 LINE",
"102 657 LINE",
"30 527 LINE",
"38 375 LINE",
"139 269 LINE",
"299 259 LINE",
"482 352 LINE"
);
}
);
width = 620;
},
{
associatedMasterId = "4EF47A43-EA9F-416F-884D-AC541148DC09";
layerId = "FC33BA25-7F9D-41C9-8680-0B35B724C48C";
name = "15 feb 22, 12:12";
paths = (
{
closed = 1;
nodes = (
"209 661 LINE",
"171 578 LINE",
"177 443 LINE",
"273 321 LINE",
"471 388 LINE",
"471 359 LINE",
"243 261 LINE",
"70 357 LINE",
"30 507 LINE",
"103 648 LINE",
"233 700 LINE",
"424 711 LINE",
"558 559 LINE",
"565 222 LINE",
"430 60 LINE",
"211 -13 LINE",
"103 84 LINE",
"137 104 LINE",
"313 41 LINE",
"434 153 LINE",
"434 466 LINE",
"358 637 LINE"
);
}
);
width = 614;
}
);
unicode = 0039;
},
{
glyphname = zero.osf;
lastChange = "2022-03-30 09:20:17 +0000";
layers = (
{
layerId = "4EF47A43-EA9F-416F-884D-AC541148DC09";
paths = (
{
closed = 1;
nodes = (
"199 0 LINE",
"55 163 LINE",
"55 356 LINE",
"199 505 LINE",
"432 505 LINE",
"560 372 LINE",
"560 165 LINE",
"432 0 LINE"
);
},
{
closed = 1;
nodes = (
"225 454 LINE",
"168 243 LINE",
"227 55 LINE",
"313 30 LINE",
"387 50 LINE",
"448 244 LINE",
"386 454 LINE",
"307 476 LINE"
);
}
);
width = 615;
}
);
},
{
glyphname = one.osf;
lastChange = "2022-03-30 09:20:17 +0000";
layers = (
{
layerId = "4EF47A43-EA9F-416F-884D-AC541148DC09";
paths = (
{
closed = 1;
nodes = (
"52 443 LINE",
"52 412 LINE",
"60 412 LINE",
"191 451 LINE",
"191 75 LINE",
"118 30 LINE",
"50 27 LINE",
"50 0 LINE",
"469 0 LINE",
"469 27 LINE",
"399 30 LINE",
"328 75 LINE",
"328 518 LINE",
"311 518 LINE"
);
}
);
width = 504;
}
);
},
{
glyphname = two.osf;
lastChange = "2022-03-30 09:20:17 +0000";
layers = (
{
layerId = "4EF47A43-EA9F-416F-884D-AC541148DC09";
paths = (
{
closed = 1;
nodes = (
"182 89 LINE",
"460 272 LINE",
"472 413 LINE",
"388 508 LINE",
"204 518 LINE",
"68 452 LINE",
"45 301 LINE",
"70 295 LINE",
"151 450 LINE",
"281 451 LINE",
"348 364 LINE",
"305 230 LINE",
"54 52 LINE",
"54 0 LINE",
"468 0 LINE",
"501 176 LINE",
"475 176 LINE",
"444 105 LINE",
"398 88 LINE"
);
}
);
width = 577;
},
{
associatedMasterId = "4EF47A43-EA9F-416F-884D-AC541148DC09";
layerId = "E749D733-EE6E-4C2B-B4CF-C9CCEF9B3396";
name = "17 feb 22, 15:58";
paths = (
{
closed = 1;
nodes = (
"110 501 LINE",
"255 557 LINE",
"405 547 LINE",
"489 452 LINE",
"467 311 LINE",
"173 95 LINE",
"161 73 LINE",
"513 88 LINE",
"495 0 LINE",
"82 0 LINE",
"83 52 LINE",
"304 272 LINE",
"355 403 LINE",
"298 490 LINE",
"203 499 LINE",
"122 344 LINE",
"97 350 LINE"
);
}
);
width = 607;
}
);
},
{
glyphname = three.osf;
lastChange = "2022-03-30 09:20:17 +0000";
layers = (
{
layerId = "4EF47A43-EA9F-416F-884D-AC541148DC09";
paths = (
{
closed = 1;
nodes = (
"40 381 LINE",
"119 482 LINE",
"243 520 LINE",
"423 479 LINE",
"499 362 LINE",
"454 245 LINE",
"293 170 LINE",
"481 128 LINE",
"539 -27 LINE",
"438 -192 LINE",
"241 -240 LINE",
"33 -172 LINE",
"65 15 LINE",
"90 15 LINE",
"130 -136 LINE",
"194 -182 LINE",
"322 -165 LINE",
"386 -68 LINE",
"328 86 LINE",
"200 151 LINE",
"125 141 LINE",
"119 179 LINE",
"227 209 LINE",
"337 300 LINE",
"316 419 LINE",
"180 455 LINE",
"72 356 LINE"
);
}
);
width = 591;
}
);
rightKerningGroup = three.osf;
},
{
glyphname = four.osf;
lastChange = "2022-03-30 09:20:17 +0000";
layers = (
{
layerId = "4EF47A43-EA9F-416F-884D-AC541148DC09";
paths = (
{
closed = 1;
nodes = (
"109 80 LINE",
"350 80 LINE",
"350 365 LINE"
);
},
{
closed = 1;
nodes = (
"468 505 LINE",
"468 80 LINE",
"586 80 LINE",
"586 0 LINE",
"468 0 LINE",
"468 -240 LINE",
"350 -240 LINE",
"350 0 LINE",
"30 0 LINE",
"30 55 LINE",
"407 505 LINE"
);
}
);
width = 601;
}
);
},
{
glyphname = five.osf;
lastChange = "2022-03-30 09:20:17 +0000";
layers = (
{
layerId = "4EF47A43-EA9F-416F-884D-AC541148DC09";
paths = (
{
closed = 1;
nodes = (
"40 -165 LINE",
"236 -240 LINE",
"451 -194 LINE",
"556 -23 LINE",
"519 172 LINE",
"326 264 LINE",
"116 183 LINE",
"151 400 LINE",
"499 400 LINE",
"499 505 LINE",
"121 505 LINE",
"65 131 LINE",
"97 116 LINE",
"182 186 LINE",
"313 186 LINE",
"417 58 LINE",
"404 -108 LINE",
"328 -189 LINE",
"197 -186 LINE",
"128 -125 LINE",
"101 7 LINE",
"75 7 LINE"
);
}
);
width = 599;
}
);
rightKerningGroup = three.osf;
},
{
glyphname = seven.osf;
lastChange = "2022-03-30 09:20:17 +0000";
layers = (
{
layerId = "4EF47A43-EA9F-416F-884D-AC541148DC09";
paths = (
{
closed = 1;
nodes = (
"38 398 LINE",
"419 398 LINE",
"281 199 LINE",
"192 7 LINE",
"166 -240 LINE",
"293 -240 LINE",
"303 -17 LINE",
"364 199 LINE",
"540 482 LINE",
"529 505 LINE",
"38 505 LINE"
);
}
);
width = 601;
}
);
},
{
glyphname = nine.osf;
lastChange = "2022-03-30 09:20:17 +0000";
layers = (
{
layerId = "4EF47A43-EA9F-416F-884D-AC541148DC09";
paths = (
{
closed = 1;
nodes = (
"492 180 LINE",
"369 126 LINE",
"241 144 LINE",
"165 269 LINE",
"185 402 LINE",
"259 463 LINE",
"371 447 LINE",
"454 308 LINE",
"451 57 LINE",
"387 -89 LINE",
"308 -164 LINE",
"158 -201 LINE",
"168 -241 LINE",
"421 -184 LINE",
"552 -47 LINE",
"604 166 LINE",
"563 390 LINE",
"421 505 LINE",
"263 512 LINE",
"122 452 LINE",
"50 322 LINE",
"58 170 LINE",
"159 66 LINE",
"319 54 LINE",
"502 147 LINE"
);
}
);
width = 640;
}
);
},
{
glyphname = zerosuperior;
lastChange = "2022-03-30 09:20:17 +0000";
layers = (
{
layerId = "4EF47A43-EA9F-416F-884D-AC541148DC09";
paths = (
{
closed = 1;
nodes = (
"175 319 LINE",
"65 445 LINE",
"65 591 LINE",
"175 705 LINE",
"303 705 LINE",
"404 603 LINE",
"404 446 LINE",
"303 319 LINE"
);
},
{
closed = 1;
nodes = (
"189 669 LINE",
"147 502 LINE",
"190 358 LINE",
"238 344 LINE",
"278 354 LINE",
"322 504 LINE",
"277 669 LINE",
"234 680 LINE"
);
}
);
width = 469;
}
);
leftMetricsKey = zero;
rightMetricsKey = zero;
unicode = 2070;
},
{
glyphname = onesuperior;
lastChange = "2022-03-30 09:20:17 +0000";
layers = (
{
layerId = "4EF47A43-EA9F-416F-884D-AC541148DC09";
paths = (
{
closed = 1;
nodes = (
"54 671 LINE",
"54 642 LINE",
"56 641 LINE",
"132 662 LINE",
"132 367 LINE",
"90 346 LINE",
"50 345 LINE",
"50 323 LINE",
"289 323 LINE",
"289 346 LINE",
"248 346 LINE",
"208 367 LINE",
"208 719 LINE",
"202 719 LINE"
);
}
);
width = 331;
}
);
leftMetricsKey = one;
rightMetricsKey = one;
unicode = 00B9;
},
{
glyphname = twosuperior;
lastChange = "2022-03-30 09:20:17 +0000";
layers = (
{
layerId = "4EF47A43-EA9F-416F-884D-AC541148DC09";
paths = (
{
closed = 1;
nodes = (
"76 578 LINE",
"124 667 LINE",
"198 667 LINE",
"243 606 LINE",
"208 513 LINE",
"40 346 LINE",
"40 324 LINE",
"314 324 LINE",
"336 440 LINE",
"317 440 LINE",
"281 372 LINE",
"120 375 LINE",
"139 401 LINE",
"315 531 LINE",
"330 634 LINE",
"272 706 LINE",
"166 714 LINE",
"60 675 LINE",
"50 582 LINE"
);
}
);
width = 380;
}
);
leftMetricsKey = two;
rightMetricsKey = two;
unicode = 00B2;
},
{
glyphname = threesuperior;
lastChange = "2022-03-30 09:20:17 +0000";
layers = (
{
layerId = "4EF47A43-EA9F-416F-884D-AC541148DC09";
paths = (
{
closed = 1;
nodes = (
"47 645 LINE",
"90 700 LINE",
"158 721 LINE",
"261 699 LINE",
"303 635 LINE",
"278 563 LINE",
"185 529 LINE",
"288 506 LINE",
"319 429 LINE",
"264 339 LINE",
"157 313 LINE",
"43 350 LINE",
"60 452 LINE",
"74 452 LINE",
"96 374 LINE",
"131 349 LINE",
"201 358 LINE",
"236 406 LINE",
"204 483 LINE",
"149 514 LINE",
"99 512 LINE",
"94 539 LINE",
"149 552 LINE",
"211 601 LINE",
"200 660 LINE",
"123 679 LINE",
"64 631 LINE"
);
}
);
width = 384;
}
);
leftMetricsKey = three;
rightMetricsKey = three;
unicode = 00B3;
},
{
glyphname = fraction;
lastChange = "2022-03-30 09:20:17 +0000";
layers = (
{
layerId = "4EF47A43-EA9F-416F-884D-AC541148DC09";
paths = (
{
closed = 1;
nodes = (
"593 705 LINE",
"528 705 LINE",
"10 0 LINE",
"75 0 LINE"
);
}
);
width = 603;
}
);
unicode = 2044;
},
{
export = 0;
glyphname = foursuperior;
lastChange = "2022-03-30 09:20:18 +0000";
layers = (
{
layerId = "4EF47A43-EA9F-416F-884D-AC541148DC09";
paths = (
{
closed = 1;
nodes = (
"214 143 LINE",
"105 143 LINE",
"105 173 LINE",
"214 300 LINE"
);
},
{
closed = 1;
nodes = (
"214 109 LINE",
"214 55 LINE",
"176 29 LINE",
"145 28 LINE",
"145 0 LINE",
"368 0 LINE",
"368 28 LINE",
"334 29 LINE",
"299 56 LINE",
"299 109 LINE",
"375 109 LINE",
"375 143 LINE",
"299 143 LINE",
"299 383 LINE",
"233 383 LINE",
"30 143 LINE",
"30 109 LINE"
);
}
);
width = 433;
}
);
unicode = 2074;
},
{
glyphname = period;
lastChange = "2022-03-30 09:41:28 +0000";
layers = (
{
layerId = "4EF47A43-EA9F-416F-884D-AC541148DC09";
paths = (
{
closed = 1;
nodes = (
"134 -12 LINE",
"81 11 LINE",
"66 71 LINE",
"97 121 LINE",
"156 133 LINE",
"207 110 LINE",
"221 52 LINE",
"192 -3 LINE"
);
}
);
width = 287;
}
);
leftKerningGroup = period;
rightKerningGroup = period;
rightMetricsKey = "=|";
unicode = 002E;
},
{
glyphname = comma;
lastChange = "2023-03-27 09:09:32 +0000";
layers = (
{
layerId = "4EF47A43-EA9F-416F-884D-AC541148DC09";
paths = (
{
closed = 1;
nodes = (
"229 41 LINE",
"208 116 LINE",
"149 140 LINE",
"89 118 LINE",
"66 64 LINE",
"90 1 LINE",
"154 -11 LINE",
"166 -40 LINE",
"76 -153 LINE",
"100 -172 LINE",
"209 -49 LINE"
);
}
);
width = 295;
}
);
leftKerningGroup = period;
leftMetricsKey = period;
rightKerningGroup = period;
rightMetricsKey = "=|";
unicode = 002C;
},
{
glyphname = exclam;
lastChange = "2023-03-27 08:41:10 +0000";
layers = (
{
components = (
{
name = period;
transform = "{1, 0, 0, 1, 4, 0}";
}
);
layerId = "4EF47A43-EA9F-416F-884D-AC541148DC09";
paths = (
{
closed = 1;
nodes = (
"80 705 LINE",
"214 705 LINE",
"166 184 LINE",
"126 184 LINE"
);
}
);
width = 325;
}
);
rightMetricsKey = "=+100";
unicode = 0021;
},
{
glyphname = question;
lastChange = "2023-03-27 08:42:33 +0000";
layers = (
{
components = (
{
name = period;
transform = "{1, 0, 0, 1, 100, 1}";
}
);
layerId = "4EF47A43-EA9F-416F-884D-AC541148DC09";
paths = (
{
closed = 1;
nodes = (
"107 679 LINE",
"244 720 LINE",
"429 693 LINE",
"514 537 LINE",
"448 397 LINE",
"319 355 LINE",
"265 271 LINE",
"257 184 LINE",
"225 184 LINE",
"205 301 LINE",
"372 481 LINE",
"374 595 LINE",
"275 677 LINE",
"176 639 LINE",
"138 465 LINE",
"123 465 LINE",
"60 600 LINE"
);
}
);
width = 564;
},
{
associatedMasterId = "4EF47A43-EA9F-416F-884D-AC541148DC09";
components = (
{
name = period;
transform = "{1, 0, 0, 1, 120, 1}";
}
);
layerId = "29093A3C-00D9-4F52-8451-810DD4B84EAB";
name = "15 feb 22, 12:20";
paths = (
{
closed = 1;
nodes = (
"77 686 LINE",
"214 727 LINE",
"379 690 LINE",
"464 534 LINE",
"398 394 LINE",
"279 335 LINE",
"239 144 LINE",
"207 144 LINE",
"175 321 LINE",
"332 478 LINE",
"334 592 LINE",
"245 674 LINE",
"156 646 LINE",
"98 472 LINE",
"83 472 LINE",
"30 607 LINE"
);
}
);
width = 494;
}
);
unicode = 003F;
},
{
glyphname = bullet;
lastChange = "2022-03-30 09:20:18 +0000";
layers = (
{
layerId = "4EF47A43-EA9F-416F-884D-AC541148DC09";
paths = (
{
closed = 1;
nodes = (
"228 127 LINE",
"129 172 LINE",
"100 285 LINE",
"155 380 LINE",
"272 403 LINE",
"368 358 LINE",
"393 249 LINE",
"339 150 LINE"
);
}
);
width = 493;
}
);
rightKerningGroup = bullet;
unicode = 2022;
},
{
glyphname = asterisk;
lastChange = "2022-03-30 09:20:18 +0000";
layers = (
{
layerId = "4EF47A43-EA9F-416F-884D-AC541148DC09";
paths = (
{
closed = 1;
nodes = (
"365 388 LINE",
"272 334 LINE",
"225 488 LINE",
"219 488 LINE",
"170 334 LINE",
"86 388 LINE",
"190 500 LINE",
"188 505 LINE",
"40 480 LINE",
"40 569 LINE",
"188 541 LINE",
"190 546 LINE",
"86 659 LINE",
"170 712 LINE",
"219 558 LINE",
"225 558 LINE",
"272 712 LINE",
"365 659 LINE",
"255 546 LINE",
"257 541 LINE",
"405 569 LINE",
"405 480 LINE",
"257 505 LINE",
"255 500 LINE"
);
}
);
width = 445;
}
);
unicode = 002A;
},
{
glyphname = numbersign;
lastChange = "2022-03-30 09:20:18 +0000";
layers = (
{
layerId = "4EF47A43-EA9F-416F-884D-AC541148DC09";
paths = (
{
closed = 1;
nodes = (
"139 0 LINE",
"204 0 LINE",
"394 700 LINE",
"329 700 LINE"
);
},
{
closed = 1;
nodes = (
"723 439 LINE",
"737 496 LINE",
"95 496 LINE",
"81 439 LINE"
);
},
{
closed = 1;
nodes = (
"684 186 LINE",
"699 244 LINE",
"63 243 LINE",
"49 185 LINE"
);
},
{
closed = 1;
nodes = (
"405 0 LINE",
"470 0 LINE",
"653 700 LINE",
"588 700 LINE"
);
}
);
width = 787;
}
);
unicode = 0023;
},
{
glyphname = slash;
lastChange = "2022-03-30 09:20:18 +0000";
layers = (
{
layerId = "4EF47A43-EA9F-416F-884D-AC541148DC09";
paths = (
{
closed = 1;
nodes = (
"93 -146 LINE",
"443 759 LINE",
"367 760 LINE",
"16 -146 LINE"
);
}
);
width = 427;
}
);
unicode = 002F;
},
{
glyphname = hyphen;
lastChange = "2022-03-30 09:20:18 +0000";
layers = (
{
layerId = "4EF47A43-EA9F-416F-884D-AC541148DC09";
paths = (
{
closed = 1;
nodes = (
"50 218 LINE",
"407 218 LINE",
"407 283 LINE",
"50 283 LINE"
);
}
);
width = 457;
}
);
leftKerningGroup = hyphen;
rightKerningGroup = hyphen;
unicode = 002D;
},
{
glyphname = endash;
lastChange = "2022-03-30 09:20:18 +0000";
layers = (
{
layerId = "4EF47A43-EA9F-416F-884D-AC541148DC09";
paths = (
{
closed = 1;
nodes = (
"0 224 LINE",
"625 224 LINE",
"625 277 LINE",
"0 277 LINE"
);
}
);
width = 625;
}
);
rightKerningGroup = hyphen;
unicode = 2013;
},
{
glyphname = emdash;
lastChange = "2022-03-30 09:20:18 +0000";
layers = (
{
layerId = "4EF47A43-EA9F-416F-884D-AC541148DC09";
paths = (
{
closed = 1;
nodes = (
"0 276 LINE",
"0 224 LINE",
"974 224 LINE",
"974 276 LINE"
);
}
);
width = 974;
}
);
rightKerningGroup = hyphen;
unicode = 2014;
},
{
glyphname = underscore;
lastChange = "2022-03-30 09:20:18 +0000";
layers = (
{
layerId = "4EF47A43-EA9F-416F-884D-AC541148DC09";
paths = (
{
closed = 1;
nodes = (
"20 -122 LINE",
"480 -122 LINE",
"480 -72 LINE",
"20 -72 LINE"
);
}
);
width = 500;
}
);
leftKerningGroup = period;
rightKerningGroup = period;
unicode = 005F;
},
{
glyphname = parenleft;
lastChange = "2022-03-30 09:20:18 +0000";
layers = (
{
layerId = "4EF47A43-EA9F-416F-884D-AC541148DC09";
paths = (
{
closed = 1;
nodes = (
"168 553 LINE",
"90 275 LINE",
"168 -12 LINE",
"361 -214 LINE",
"379 -196 LINE",
"276 -19 LINE",
"217 275 LINE",
"276 564 LINE",
"375 698 LINE",
"357 716 LINE"
);
}
);
width = 409;
}
);
unicode = 0028;
},
{
glyphname = braceleft;
lastChange = "2022-03-30 09:20:18 +0000";
layers = (
{
layerId = "4EF47A43-EA9F-416F-884D-AC541148DC09";
paths = (
{
closed = 1;
nodes = (
"131 270 LINE",
"207 308 LINE",
"274 391 LINE",
"274 617 LINE",
"380 724 LINE",
"371 740 LINE",
"206 665 LINE",
"165 583 LINE",
"165 365 LINE",
"137 298 LINE",
"52 277 LINE",
"52 264 LINE",
"137 242 LINE",
"165 175 LINE",
"165 -63 LINE",
"206 -145 LINE",
"371 -220 LINE",
"380 -204 LINE",
"274 -97 LINE",
"274 147 LINE",
"207 230 LINE"
);
}
);
width = 430;
}
);
unicode = 007B;
},
{
glyphname = bracketleft;
lastChange = "2022-03-30 09:20:18 +0000";
layers = (
{
layerId = "4EF47A43-EA9F-416F-884D-AC541148DC09";
paths = (
{
closed = 1;
nodes = (
"75 736 LINE",
"75 -216 LINE",
"76 -216 LINE",
"76 -220 LINE",
"334 -220 LINE",
"334 -193 LINE",
"200 -193 LINE",
"200 709 LINE",
"333 709 LINE",
"333 736 LINE"
);
}
);
width = 344;
}
);
unicode = 005B;
},
{
glyphname = guilsinglleft;
lastChange = "2022-03-30 09:35:30 +0000";
layers = (
{
layerId = "4EF47A43-EA9F-416F-884D-AC541148DC09";
paths = (
{
closed = 1;
nodes = (
"212 346 LINE",
"313 490 LINE",
"289 508 LINE",
"162 376 LINE",
"0 264 LINE",
"0 237 LINE",
"162 125 LINE",
"289 -8 LINE",
"313 12 LINE",
"212 162 LINE",
"145 254 LINE"
);
}
);
width = 373;
},
{
associatedMasterId = "4EF47A43-EA9F-416F-884D-AC541148DC09";
layerId = "CD16F4FA-F5F5-4372-AD01-EC29C583C7BC";
name = "Sep 7 21, 18:35";
paths = (
{
closed = 1;
nodes = (
"134 266 LINE",
"272 370 LINE",
"320 488 LINE",
"298 502 LINE",
"163 354 LINE",
"30 278 LINE",
"30 232 LINE",
"163 156 LINE",
"293 -4 LINE",
"316 9 LINE",
"272 141 LINE",
"134 252 LINE"
);
}
);
width = 339;
}
);
leftKerningGroup = guilsinglleft;
unicode = 2039;
},
{
glyphname = quotesingle;
lastChange = "2022-03-30 09:20:18 +0000";
layers = (
{
layerId = "4EF47A43-EA9F-416F-884D-AC541148DC09";
paths = (
{
closed = 1;
nodes = (
"73 559 LINE",
"40 770 LINE",
"124 770 LINE",
"90 559 LINE"
);
}
);
width = 164;
}
);
leftKerningGroup = quotesingle;
rightKerningGroup = quotesingle;
unicode = 0027;
},
{
glyphname = florin;
lastChange = "2022-03-30 09:20:18 +0000";
layers = (
{
layerId = "4EF47A43-EA9F-416F-884D-AC541148DC09";
paths = (
{
closed = 1;
nodes = (
"213 29 LINE",
"121 46 LINE",
"91 188 LINE",
"69 188 LINE",
"26 57 LINE",
"175 -11 LINE",
"327 24 LINE",
"373 132 LINE",
"373 677 LINE",
"415 730 LINE",
"497 723 LINE",
"547 551 LINE",
"569 551 LINE",
"612 702 LINE",
"463 770 LINE",
"311 735 LINE",
"236 593 LINE",
"236 70 LINE"
);
},
{
closed = 1;
nodes = (
"141 424 LINE",
"497 424 LINE",
"497 476 LINE",
"141 476 LINE"
);
}
);
width = 627;
}
);
unicode = 0192;
},
{
glyphname = at;
lastChange = "2022-03-30 09:20:18 +0000";
layers = (
{
layerId = "4EF47A43-EA9F-416F-884D-AC541148DC09";
paths = (
{
closed = 1;
nodes = (
"524 153 LINE",
"536 244 LINE",
"566 424 LINE",
"526 429 LINE",
"510 401 LINE",
"469 424 LINE",
"379 435 LINE",
"266 355 LINE",
"229 185 LINE",
"294 91 LINE",
"377 85 LINE",
"451 157 LINE",
"468 97 LINE",
"551 66 LINE",
"685 106 LINE",
"765 279 LINE",
"712 470 LINE",
"461 595 LINE",
"188 526 LINE",
"53 278 LINE",
"128 22 LINE",
"371 -97 LINE",
"623 -46 LINE",
"612 0 LINE",
"352 -16 LINE",
"181 105 LINE",
"149 311 LINE",
"267 494 LINE",
"479 522 LINE",
"666 392 LINE",
"680 256 LINE",
"605 125 LINE",
"552 125 LINE"
);
},
{
closed = 1;
nodes = (
"452 235 LINE",
"388 154 LINE",
"352 165 LINE",
"320 236 LINE",
"322 333 LINE",
"371 387 LINE",
"430 390 LINE",
"475 333 LINE"
);
}
);
width = 815;
},
{
associatedMasterId = "4EF47A43-EA9F-416F-884D-AC541148DC09";
layerId = "386510AC-1B45-4B34-BCCF-F6EBB2588957";
name = "15 feb 22, 12:27";
paths = (
{
closed = 1;
nodes = (
"683 276 LINE",
"750 496 LINE",
"705 504 LINE",
"672 467 LINE",
"581 532 LINE",
"451 561 LINE",
"278 456 LINE",
"217 200 LINE",
"315 38 LINE",
"436 18 LINE",
"603 273 LINE",
"567 45 LINE",
"620 4 LINE",
"767 34 LINE",
"942 323 LINE",
"870 567 LINE",
"558 731 LINE",
"203 638 LINE",
"30 324 LINE",
"128 -9 LINE",
"441 -168 LINE",
"760 -92 LINE",
"756 -74 LINE",
"408 -99 LINE",
"157 71 LINE",
"109 383 LINE",
"287 640 LINE",
"592 680 LINE",
"858 494 LINE",
"879 292 LINE",
"766 102 LINE",
"666 59 LINE"
);
},
{
closed = 1;
nodes = (
"437 108 LINE",
"364 134 LINE",
"322 265 LINE",
"351 405 LINE",
"428 507 LINE",
"529 505 LINE",
"606 366 LINE"
);
}
);
width = 972;
}
);
unicode = 0040;
},
{
glyphname = ampersand;
lastChange = "2022-03-30 09:20:18 +0000";
layers = (
{
layerId = "4EF47A43-EA9F-416F-884D-AC541148DC09";
paths = (
{
closed = 1;
nodes = (
"234 416 LINE",
"61 306 LINE",
"35 115 LINE",
"178 -17 LINE",
"392 0 LINE",
"485 102 LINE",
"634 363 LINE",
"719 371 LINE",
"719 402 LINE",
"460 401 LINE",
"460 371 LINE",
"536 363 LINE",
"536 307 LINE",
"457 152 LINE",
"315 69 LINE",
"177 130 LINE",
"161 271 LINE",
"260 386 LINE"
);
},
{
closed = 1;
nodes = (
"221 477 LINE",
"201 600 LINE",
"270 671 LINE",
"385 655 LINE",
"453 486 LINE",
"472 486 LINE",
"531 623 LINE",
"480 680 LINE",
"299 720 LINE",
"141 680 LINE",
"76 554 LINE",
"96 424 LINE",
"506 9 LINE",
"558 0 LINE",
"722 0 LINE",
"722 22 LINE",
"678 25 LINE",
"620 52 LINE"
);
}
);
width = 720;
},
{
associatedMasterId = "4EF47A43-EA9F-416F-884D-AC541148DC09";
layerId = "312D34E1-DC52-4122-9181-288A6FA7036B";
name = "15 feb 22, 14:47";
paths = (
{
closed = 1;
nodes = (
"209 396 LINE",
"75 296 LINE",
"40 105 LINE",
"163 -17 LINE",
"357 0 LINE",
"450 102 LINE",
"568 381 LINE",
"506 381 LINE",
"432 132 LINE",
"280 49 LINE",
"150 120 LINE",
"136 251 LINE",
"225 376 LINE"
);
},
{
closed = 1;
nodes = (
"203 507 LINE",
"186 620 LINE",
"245 671 LINE",
"350 655 LINE",
"414 516 LINE",
"427 516 LINE",
"486 613 LINE",
"445 680 LINE",
"314 716 LINE",
"124 646 LINE",
"87 464 LINE",
"479 38 LINE",
"543 0 LINE",
"687 0 LINE",
"687 22 LINE",
"643 25 LINE",
"605 52 LINE"
);
},
{
closed = 1;
nodes = (
"547 346 LINE",
"571 386 LINE",
"633 392 LINE",
"633 417 LINE",
"371 416 LINE",
"371 391 LINE",
"490 385 LINE",
"490 320 LINE"
);
}
);
width = 700;
}
);
unicode = 0026;
},
{
glyphname = paragraph;
lastChange = "2022-03-30 09:20:18 +0000";
layers = (
{
layerId = "4EF47A43-EA9F-416F-884D-AC541148DC09";
paths = (
{
closed = 1;
nodes = (
"193 705 LINE",
"89 656 LINE",
"20 528 LINE",
"50 392 LINE",
"156 308 LINE",
"261 308 LINE",
"263 705 LINE"
);
},
{
closed = 1;
nodes = (
"258 -240 LINE",
"315 -240 LINE",
"315 705 LINE",
"258 705 LINE"
);
},
{
closed = 1;
nodes = (
"391 -240 LINE",
"448 -240 LINE",
"448 628 LINE",
"489 670 LINE",
"543 673 LINE",
"543 705 LINE",
"391 705 LINE"
);
},
{
closed = 1;
nodes = (
"271 655 LINE",
"463 655 LINE",
"463 705 LINE",
"271 705 LINE"
);
}
);
width = 608;
}
);
unicode = 00B6;
},
{
glyphname = section;
lastChange = "2022-03-30 09:20:18 +0000";
layers = (
{
layerId = "4EF47A43-EA9F-416F-884D-AC541148DC09";
paths = (
{
closed = 1;
nodes = (
"304 335 LINE",
"224 323 LINE",
"193 255 LINE",
"235 194 LINE",
"466 106 LINE",
"508 28 LINE",
"491 -86 LINE",
"349 -162 LINE",
"172 -148 LINE",
"78 -100 LINE",
"98 52 LINE",
"120 51 LINE",
"191 -94 LINE",
"319 -128 LINE",
"393 -75 LINE",
"384 -2 LINE",
"104 117 LINE",
"70 231 LINE",
"167 352 LINE",
"342 371 LINE"
);
},
{
closed = 1;
nodes = (
"328 156 LINE",
"402 209 LINE",
"393 282 LINE",
"113 401 LINE",
"79 515 LINE",
"176 636 LINE",
"351 655 LINE",
"498 601 LINE",
"475 463 LINE",
"453 463 LINE",
"406 579 LINE",
"313 619 LINE",
"233 607 LINE",
"202 539 LINE",
"244 478 LINE",
"475 390 LINE",
"517 312 LINE",
"500 198 LINE",
"358 122 LINE"
);
}
);
width = 587;
}
);
unicode = 00A7;
},
{
glyphname = copyright;
lastChange = "2022-03-30 09:20:18 +0000";
layers = (
{
anchors = (
{
name = bottom;
position = "{451, 100}";
},
{
name = top;
position = "{451, 600}";
}
);
layerId = "4EF47A43-EA9F-416F-884D-AC541148DC09";
paths = (
{
closed = 1;
nodes = (
"746 44 LINE",
"897 295 LINE",
"815 592 LINE",
"526 743 LINE",
"199 657 LINE",
"50 391 LINE",
"130 113 LINE",
"418 -42 LINE"
);
},
{
closed = 1;
nodes = (
"138 439 LINE",
"289 643 LINE",
"553 672 LINE",
"779 511 LINE",
"813 257 LINE",
"665 65 LINE",
"392 36 LINE",
"172 198 LINE"
);
},
{
closed = 1;
nodes = (
"617 386 LINE",
"605 386 LINE",
"555 514 LINE",
"461 536 LINE",
"400 500 LINE",
"391 359 LINE",
"435 230 LINE",
"549 198 LINE",
"658 284 LINE",
"677 270 LINE",
"597 144 LINE",
"432 133 LINE",
"304 212 LINE",
"262 398 LINE",
"353 540 LINE",
"528 571 LINE",
"634 537 LINE",
"673 480 LINE"
);
}
);
width = 947;
}
);
unicode = 00A9;
},
{
glyphname = registered;
lastChange = "2022-03-30 09:20:18 +0000";
layers = (
{
anchors = (
{
name = bottom;
position = "{326, 340}";
}
);
layerId = "4EF47A43-EA9F-416F-884D-AC541148DC09";
paths = (
{
closed = 1;
nodes = (
"488 269 LINE",
"590 441 LINE",
"532 633 LINE",
"348 729 LINE",
"141 675 LINE",
"39 503 LINE",
"96 313 LINE",
"280 215 LINE"
);
},
{
closed = 1;
nodes = (
"121 366 LINE",
"93 534 LINE",
"196 668 LINE",
"366 686 LINE",
"511 583 LINE",
"539 416 LINE",
"438 280 LINE",
"263 262 LINE"
);
},
{
closed = 1;
nodes = (
"194 613 LINE",
"194 597 LINE",
"215 596 LINE",
"231 578 LINE",
"231 372 LINE",
"215 355 LINE",
"194 353 LINE",
"194 337 LINE",
"324 337 LINE",
"324 353 LINE",
"299 355 LINE",
"286 372 LINE",
"286 458 LINE",
"317 458 LINE",
"369 355 LINE",
"391 340 LINE",
"466 340 LINE",
"466 353 LINE",
"448 355 LINE",
"426 372 LINE",
"376 451 LINE",
"358 464 LINE",
"400 476 LINE",
"427 529 LINE",
"407 584 LINE",
"363 613 LINE"
);
},
{
closed = 1;
nodes = (
"286 581 LINE",
"298 593 LINE",
"333 587 LINE",
"363 554 LINE",
"371 514 LINE",
"355 489 LINE",
"322 481 LINE",
"286 496 LINE"
);
}
);
width = 637;
}
);
unicode = 00AE;
},
{
glyphname = trademark;
lastChange = "2022-03-30 09:20:18 +0000";
layers = (
{
anchors = (
{
name = bottom;
position = "{-82, 0}";
},
{
name = top;
position = "{-82, 700}";
}
);
layerId = "4EF47A43-EA9F-416F-884D-AC541148DC09";
paths = (
{
closed = 1;
nodes = (
"45 705 LINE",
"30 558 LINE",
"48 558 LINE",
"82 657 LINE",
"113 679 LINE",
"172 679 LINE",
"172 370 LINE",
"148 346 LINE",
"111 345 LINE",
"111 325 LINE",
"313 325 LINE",
"313 345 LINE",
"276 346 LINE",
"253 370 LINE",
"253 679 LINE",
"310 679 LINE",
"341 657 LINE",
"375 558 LINE",
"395 558 LINE",
"380 705 LINE"
);
},
{
closed = 1;
nodes = (
"788 705 LINE",
"681 435 LINE",
"570 705 LINE",
"427 705 LINE",
"427 686 LINE",
"455 685 LINE",
"479 660 LINE",
"480 381 LINE",
"459 346 LINE",
"428 345 LINE",
"428 325 LINE",
"562 325 LINE",
"562 345 LINE",
"530 346 LINE",
"510 381 LINE",
"508 647 LINE",
"650 325 LINE",
"676 325 LINE",
"797 647 LINE",
"797 370 LINE",
"775 346 LINE",
"744 345 LINE",
"744 325 LINE",
"925 325 LINE",
"925 345 LINE",
"894 346 LINE",
"872 370 LINE",
"872 660 LINE",
"894 685 LINE",
"925 686 LINE",
"925 705 LINE"
);
}
);
width = 955;
}
);
unicode = 2122;
},
{
glyphname = degree;
lastChange = "2022-03-30 09:20:18 +0000";
layers = (
{
layerId = "4EF47A43-EA9F-416F-884D-AC541148DC09";
paths = (
{
closed = 1;
nodes = (
"186 570 LINE",
"220 626 LINE",
"201 689 LINE",
"141 720 LINE",
"74 702 LINE",
"40 646 LINE",
"59 584 LINE",
"119 552 LINE"
);
},
{
closed = 1;
nodes = (
"182 646 LINE",
"149 577 LINE",
"103 598 LINE",
"80 635 LINE",
"108 697 LINE",
"159 683 LINE"
);
}
);
width = 260;
}
);
unicode = 00B0;
},
{
glyphname = bar;
lastChange = "2022-03-30 09:20:18 +0000";
layers = (
{
layerId = "4EF47A43-EA9F-416F-884D-AC541148DC09";
paths = (
{
closed = 1;
nodes = (
"85 -140 LINE",
"144 -140 LINE",
"144 705 LINE",
"85 705 LINE"
);
}
);
width = 229;
}
);
unicode = 007C;
},
{
glyphname = brokenbar;
lastChange = "2022-03-30 09:20:18 +0000";
layers = (
{
layerId = "4EF47A43-EA9F-416F-884D-AC541148DC09";
paths = (
{
closed = 1;
nodes = (
"144 349 LINE",
"144 705 LINE",
"85 705 LINE",
"85 349 LINE"
);
},
{
closed = 1;
nodes = (
"85 232 LINE",
"85 -140 LINE",
"144 -140 LINE",
"144 232 LINE"
);
}
);
width = 229;
}
);
unicode = 00A6;
},
{
glyphname = dagger;
lastChange = "2022-03-30 09:20:18 +0000";
layers = (
{
layerId = "4EF47A43-EA9F-416F-884D-AC541148DC09";
paths = (
{
closed = 1;
nodes = (
"93 417 LINE",
"102 481 LINE",
"136 506 LINE",
"294 523 LINE",
"458 504 LINE",
"490 481 LINE",
"499 417 LINE",
"522 417 LINE",
"522 662 LINE",
"499 662 LINE",
"490 598 LINE",
"454 574 LINE",
"294 556 LINE",
"137 574 LINE",
"102 598 LINE",
"93 662 LINE",
"70 662 LINE",
"70 417 LINE"
);
},
{
closed = 1;
nodes = (
"130 746 LINE",
"130 721 LINE",
"194 718 LINE",
"226 675 LINE",
"250 70 LINE",
"218 33 LINE",
"156 30 LINE",
"156 0 LINE",
"440 0 LINE",
"440 30 LINE",
"378 33 LINE",
"346 70 LINE",
"370 673 LINE",
"404 718 LINE",
"468 721 LINE",
"468 746 LINE"
);
}
);
width = 592;
}
);
unicode = 2020;
},
{
glyphname = daggerdbl;
lastChange = "2022-03-30 09:20:18 +0000";
layers = (
{
layerId = "4EF47A43-EA9F-416F-884D-AC541148DC09";
paths = (
{
closed = 1;
nodes = (
"126 740 LINE",
"126 718 LINE",
"190 715 LINE",
"222 672 LINE",
"246 67 LINE",
"214 30 LINE",
"152 27 LINE",
"152 0 LINE",
"436 0 LINE",
"436 27 LINE",
"374 30 LINE",
"342 67 LINE",
"366 670 LINE",
"400 715 LINE",
"464 718 LINE",
"464 740 LINE"
);
},
{
closed = 1;
nodes = (
"93 417 LINE",
"102 481 LINE",
"136 506 LINE",
"294 523 LINE",
"458 504 LINE",
"490 481 LINE",
"499 417 LINE",
"522 417 LINE",
"522 662 LINE",
"499 662 LINE",
"490 598 LINE",
"454 574 LINE",
"294 556 LINE",
"137 574 LINE",
"102 598 LINE",
"93 662 LINE",
"70 662 LINE",
"70 417 LINE"
);
},
{
closed = 1;
nodes = (
"93 117 LINE",
"102 181 LINE",
"136 206 LINE",
"294 223 LINE",
"458 204 LINE",
"490 181 LINE",
"499 117 LINE",
"522 117 LINE",
"522 362 LINE",
"499 362 LINE",
"490 298 LINE",
"454 274 LINE",
"294 256 LINE",
"137 274 LINE",
"102 298 LINE",
"93 362 LINE",
"70 362 LINE",
"70 117 LINE"
);
}
);
width = 592;
}
);
unicode = 2021;
},
{
glyphname = at.case;
lastChange = "2022-03-30 09:20:18 +0000";
layers = (
{
layerId = "4EF47A43-EA9F-416F-884D-AC541148DC09";
paths = (
{
closed = 1;
nodes = (
"521 257 LINE",
"533 348 LINE",
"563 528 LINE",
"523 533 LINE",
"507 505 LINE",
"466 528 LINE",
"376 539 LINE",
"263 459 LINE",
"226 289 LINE",
"291 195 LINE",
"374 189 LINE",
"448 261 LINE",
"465 201 LINE",
"548 170 LINE",
"682 210 LINE",
"762 383 LINE",
"709 574 LINE",
"458 699 LINE",
"185 630 LINE",
"50 382 LINE",
"125 126 LINE",
"368 7 LINE",
"620 58 LINE",
"609 104 LINE",
"349 88 LINE",
"178 209 LINE",
"146 415 LINE",
"264 598 LINE",
"476 626 LINE",
"663 496 LINE",
"677 360 LINE",
"602 229 LINE",
"549 229 LINE"
);
},
{
closed = 1;
nodes = (
"449 339 LINE",
"385 258 LINE",
"349 269 LINE",
"317 340 LINE",
"319 437 LINE",
"368 491 LINE",
"427 494 LINE",
"472 437 LINE"
);
}
);
width = 812;
},
{
associatedMasterId = "4EF47A43-EA9F-416F-884D-AC541148DC09";
layerId = "386510AC-1B45-4B34-BCCF-F6EBB2588957";
name = "15 feb 22, 12:27";
paths = (
{
closed = 1;
nodes = (
"683 276 LINE",
"750 496 LINE",
"705 504 LINE",
"672 467 LINE",
"581 532 LINE",
"451 561 LINE",
"278 456 LINE",
"217 200 LINE",
"315 38 LINE",
"436 18 LINE",
"603 273 LINE",
"567 45 LINE",
"620 4 LINE",
"767 34 LINE",
"942 323 LINE",
"870 567 LINE",
"558 731 LINE",
"203 638 LINE",
"30 324 LINE",
"128 -9 LINE",
"441 -168 LINE",
"760 -92 LINE",
"756 -74 LINE",
"408 -99 LINE",
"157 71 LINE",
"109 383 LINE",
"287 640 LINE",
"592 680 LINE",
"858 494 LINE",
"879 292 LINE",
"766 102 LINE",
"666 59 LINE"
);
},
{
closed = 1;
nodes = (
"437 108 LINE",
"364 134 LINE",
"322 265 LINE",
"351 405 LINE",
"428 507 LINE",
"529 505 LINE",
"606 366 LINE"
);
}
);
width = 972;
}
);
},
{
glyphname = cent;
lastChange = "2022-03-30 09:20:18 +0000";
layers = (
{
components = (
{
name = c;
}
);
layerId = "4EF47A43-EA9F-416F-884D-AC541148DC09";
paths = (
{
closed = 1;
nodes = (
"281 487 LINE",
"336 487 LINE",
"336 641 LINE",
"281 641 LINE"
);
},
{
closed = 1;
nodes = (
"281 -142 LINE",
"336 -142 LINE",
"336 3 LINE",
"281 3 LINE"
);
}
);
width = 583;
}
);
leftMetricsKey = "=c";
rightMetricsKey = "=c";
unicode = 00A2;
},
{
glyphname = currency;
lastChange = "2022-03-30 09:20:18 +0000";
layers = (
{
layerId = "4EF47A43-EA9F-416F-884D-AC541148DC09";
paths = (
{
closed = 1;
nodes = (
"376 136 LINE",
"482 242 LINE",
"482 394 LINE",
"367 498 LINE",
"204 498 LINE",
"97 393 LINE",
"97 245 LINE",
"212 136 LINE"
);
},
{
closed = 1;
nodes = (
"142 422 LINE",
"174 456 LINE",
"82 549 LINE",
"50 515 LINE"
);
},
{
closed = 1;
nodes = (
"440 319 LINE",
"325 178 LINE",
"205 203 LINE",
"150 310 LINE",
"256 459 LINE",
"370 435 LINE"
);
},
{
closed = 1;
nodes = (
"495 549 LINE",
"403 456 LINE",
"435 422 LINE",
"526 515 LINE"
);
},
{
closed = 1;
nodes = (
"82 88 LINE",
"174 181 LINE",
"142 215 LINE",
"50 121 LINE"
);
},
{
closed = 1;
nodes = (
"435 215 LINE",
"403 181 LINE",
"495 88 LINE",
"526 121 LINE"
);
}
);
width = 576;
}
);
unicode = 00A4;
},
{
glyphname = dollar;
lastChange = "2023-03-27 08:42:40 +0000";
layers = (
{
anchors = (
{
name = bottom;
position = "{302, 0}";
},
{
name = top;
position = "{302, 700}";
}
);
guideLines = (
{
angle = 180;
position = "{319, -134}";
}
);
layerId = "4EF47A43-EA9F-416F-884D-AC541148DC09";
paths = (
{
closed = 1;
nodes = (
"291 -84 LINE",
"346 -84 LINE",
"346 770 LINE",
"291 770 LINE"
);
},
{
closed = 1;
nodes = (
"368 720 LINE",
"155 703 LINE",
"42 537 LINE",
"99 370 LINE",
"418 228 LINE",
"431 107 LINE",
"352 35 LINE",
"207 81 LINE",
"130 281 LINE",
"99 282 LINE",
"72 73 LINE",
"191 7 LINE",
"383 -12 LINE",
"553 92 LINE",
"587 249 LINE",
"504 362 LINE",
"242 473 LINE",
"203 561 LINE",
"246 654 LINE",
"335 671 LINE",
"423 616 LINE",
"468 456 LINE",
"498 456 LINE",
"549 646 LINE"
);
}
);
width = 641;
}
);
leftMetricsKey = "=S";
rightMetricsKey = "=S";
unicode = 0024;
},
{
glyphname = euro;
lastChange = "2022-03-30 09:20:18 +0000";
layers = (
{
anchors = (
{
name = bottom;
position = "{453, 0}";
},
{
name = top;
position = "{423, 700}";
}
);
layerId = "4EF47A43-EA9F-416F-884D-AC541148DC09";
paths = (
{
closed = 1;
nodes = (
"513 719 LINE",
"273 676 LINE",
"99 463 LINE",
"148 149 LINE",
"368 -14 LINE",
"578 6 LINE",
"693 140 LINE",
"718 246 LINE",
"689 249 LINE",
"618 117 LINE",
"456 71 LINE",
"332 162 LINE",
"262 373 LINE",
"296 592 LINE",
"403 658 LINE",
"598 612 LINE",
"665 467 LINE",
"690 467 LINE",
"701 654 LINE"
);
},
{
closed = 1;
nodes = (
"31 427 LINE",
"31 368 LINE",
"466 368 LINE",
"475 428 LINE"
);
},
{
closed = 1;
nodes = (
"30 301 LINE",
"30 242 LINE",
"465 242 LINE",
"474 302 LINE"
);
}
);
width = 758;
}
);
rightMetricsKey = "=C";
unicode = 20AC;
},
{
glyphname = sterling;
lastChange = "2022-03-30 09:20:18 +0000";
layers = (
{
layerId = "4EF47A43-EA9F-416F-884D-AC541148DC09";
paths = (
{
closed = 1;
nodes = (
"266 667 LINE",
"416 651 LINE",
"495 449 LINE",
"513 449 LINE",
"559 609 LINE",
"512 679 LINE",
"324 720 LINE",
"163 687 LINE",
"74 523 LINE",
"173 259 LINE",
"139 131 LINE",
"55 29 LINE",
"62 0 LINE",
"523 0 LINE",
"566 215 LINE",
"525 215 LINE",
"479 101 LINE",
"410 58 LINE",
"194 58 LINE",
"293 175 LINE",
"303 345 LINE",
"211 587 LINE"
);
},
{
closed = 1;
nodes = (
"43 400 LINE",
"43 348 LINE",
"445 348 LINE",
"454 401 LINE"
);
},
{
closed = 1;
nodes = (
"42 291 LINE",
"42 239 LINE",
"444 239 LINE",
"453 292 LINE"
);
}
);
width = 608;
},
{
associatedMasterId = "4EF47A43-EA9F-416F-884D-AC541148DC09";
layerId = "D1A4D24E-CB89-4631-8E05-B5AE530B18DF";
name = "15 feb 22, 15:07";
paths = (
{
closed = 1;
nodes = (
"256 671 LINE",
"366 645 LINE",
"437 449 LINE",
"452 449 LINE",
"509 603 LINE",
"462 673 LINE",
"314 714 LINE",
"156 661 LINE",
"71 517 LINE",
"140 259 LINE",
"106 131 LINE",
"23 37 LINE",
"41 0 LINE",
"483 0 LINE",
"526 209 LINE",
"506 215 LINE",
"410 98 LINE",
"154 98 LINE",
"237 175 LINE",
"270 345 LINE",
"208 581 LINE"
);
},
{
closed = 1;
nodes = (
"410 339 LINE",
"429 394 LINE",
"22 394 LINE",
"22 339 LINE"
);
},
{
closed = 1;
nodes = (
"381 244 LINE",
"400 299 LINE",
"22 299 LINE",
"22 244 LINE"
);
}
);
width = 526;
}
);
unicode = 00A3;
},
{
glyphname = yen;
lastChange = "2023-05-02 10:16:29 +0000";
layers = (
{
anchors = (
{
name = bottom;
position = "{347, 0}";
},
{
name = top;
position = "{347, 700}";
},
{
name = topleft;
position = "{23, 700}";
}
);
layerId = "4EF47A43-EA9F-416F-884D-AC541148DC09";
paths = (
{
closed = 1;
nodes = (
"-49 706 LINE",
"-49 684 LINE",
"25 681 LINE",
"58 636 LINE",
"257 322 LINE",
"257 70 LINE",
"214 30 LINE",
"157 27 LINE",
"157 0 LINE",
"502 0 LINE",
"502 27 LINE",
"445 30 LINE",
"402 70 LINE",
"402 319 LINE",
"560 630 LINE",
"611 681 LINE",
"676 684 LINE",
"676 706 LINE",
"414 706 LINE",
"414 684 LINE",
"505 681 LINE",
"512 631 LINE",
"376 373 LINE",
"202 653 LINE",
"223 681 LINE",
"297 684 LINE",
"297 706 LINE"
);
},
{
closed = 1;
nodes = (
"146 327 LINE",
"146 275 LINE",
"506 275 LINE",
"506 328 LINE"
);
},
{
closed = 1;
nodes = (
"145 221 LINE",
"145 169 LINE",
"506 169 LINE",
"506 222 LINE"
);
}
);
width = 620;
}
);
leftMetricsKey = Y;
rightMetricsKey = Y;
unicode = 00A5;
},
{
glyphname = plus;
lastChange = "2022-03-30 09:20:18 +0000";
layers = (
{
layerId = "4EF47A43-EA9F-416F-884D-AC541148DC09";
name = Bold;
paths = (
{
closed = 1;
nodes = (
"60 350 LINE",
"60 289 LINE",
"545 289 LINE",
"545 350 LINE"
);
},
{
closed = 1;
nodes = (
"336 565 LINE",
"269 565 LINE",
"269 74 LINE",
"336 74 LINE"
);
}
);
width = 605;
}
);
leftKerningGroup = math;
rightKerningGroup = math;
unicode = 002B;
},
{
glyphname = minus;
lastChange = "2022-03-30 09:20:18 +0000";
layers = (
{
layerId = "4EF47A43-EA9F-416F-884D-AC541148DC09";
name = Bold;
paths = (
{
closed = 1;
nodes = (
"60 351 LINE",
"60 288 LINE",
"545 288 LINE",
"545 351 LINE"
);
}
);
width = 605;
}
);
leftKerningGroup = math;
rightKerningGroup = math;
unicode = 2212;
},
{
glyphname = multiply;
lastChange = "2022-03-30 09:20:18 +0000";
layers = (
{
layerId = "4EF47A43-EA9F-416F-884D-AC541148DC09";
name = Bold;
paths = (
{
closed = 1;
nodes = (
"105 553 LINE",
"60 508 LINE",
"482 86 LINE",
"527 131 LINE"
);
},
{
closed = 1;
nodes = (
"526 508 LINE",
"482 553 LINE",
"60 131 LINE",
"104 86 LINE"
);
}
);
width = 587;
}
);
leftKerningGroup = math;
rightKerningGroup = math;
unicode = 00D7;
},
{
glyphname = notequal;
lastChange = "2022-03-30 09:20:18 +0000";
layers = (
{
components = (
{
name = equal;
}
);
layerId = "4EF47A43-EA9F-416F-884D-AC541148DC09";
name = Bold;
paths = (
{
closed = 1;
nodes = (
"456 530 LINE",
"402 560 LINE",
"154 111 LINE",
"207 81 LINE"
);
}
);
width = 605;
}
);
leftKerningGroup = math;
rightKerningGroup = math;
unicode = 2260;
},
{
glyphname = greater;
lastChange = "2022-03-30 09:20:18 +0000";
layers = (
{
layerId = "4EF47A43-EA9F-416F-884D-AC541148DC09";
name = Bold;
paths = (
{
closed = 1;
nodes = (
"40 548 LINE",
"40 481 LINE",
"389 321 LINE",
"40 160 LINE",
"40 93 LINE",
"509 311 LINE",
"509 330 LINE"
);
}
);
width = 555;
}
);
unicode = 003E;
},
{
glyphname = greaterequal;
lastChange = "2022-03-30 09:20:18 +0000";
layers = (
{
layerId = "4EF47A43-EA9F-416F-884D-AC541148DC09";
name = Bold;
paths = (
{
closed = 1;
nodes = (
"40 555 LINE",
"40 495 LINE",
"374 362 LINE",
"40 241 LINE",
"40 181 LINE",
"484 351 LINE",
"484 373 LINE"
);
},
{
closed = 1;
nodes = (
"40 137 LINE",
"40 83 LINE",
"484 83 LINE",
"484 137 LINE"
);
}
);
width = 530;
}
);
leftMetricsKey = greater;
rightMetricsKey = greater;
unicode = 2265;
},
{
glyphname = plusminus;
lastChange = "2022-03-30 09:20:18 +0000";
layers = (
{
layerId = "4EF47A43-EA9F-416F-884D-AC541148DC09";
name = Bold;
paths = (
{
closed = 1;
nodes = (
"60 415 LINE",
"60 355 LINE",
"535 355 LINE",
"535 415 LINE"
);
},
{
closed = 1;
nodes = (
"333 545 LINE",
"272 545 LINE",
"272 224 LINE",
"333 224 LINE"
);
},
{
closed = 1;
nodes = (
"70 135 LINE",
"70 72 LINE",
"545 72 LINE",
"545 135 LINE"
);
}
);
width = 605;
}
);
unicode = 00B1;
},
{
glyphname = asciitilde;
lastChange = "2022-03-30 09:20:18 +0000";
layers = (
{
layerId = "4EF47A43-EA9F-416F-884D-AC541148DC09";
paths = (
{
closed = 1;
nodes = (
"100 386 LINE",
"144 390 LINE",
"343 324 LINE",
"393 384 LINE",
"421 373 LINE",
"368 250 LINE",
"319 232 LINE",
"110 303 LINE",
"60 244 LINE",
"30 260 LINE"
);
}
);
width = 451;
}
);
unicode = 007E;
},
{
glyphname = logicalnot;
lastChange = "2022-03-30 09:20:18 +0000";
layers = (
{
layerId = "4EF47A43-EA9F-416F-884D-AC541148DC09";
paths = (
{
closed = 1;
nodes = (
"50 418 LINE",
"50 354 LINE",
"535 354 LINE",
"535 418 LINE"
);
},
{
closed = 1;
nodes = (
"535 361 LINE",
"470 361 LINE",
"470 140 LINE",
"535 140 LINE"
);
}
);
width = 595;
}
);
unicode = 00AC;
},
{
glyphname = asciicircum;
lastChange = "2022-03-30 09:20:18 +0000";
layers = (
{
layerId = "4EF47A43-EA9F-416F-884D-AC541148DC09";
paths = (
{
closed = 1;
nodes = (
"193 705 LINE",
"48 444 LINE",
"107 444 LINE",
"206 626 LINE",
"306 444 LINE",
"365 444 LINE",
"219 705 LINE"
);
}
);
width = 413;
}
);
unicode = 005E;
},
{
glyphname = micro;
lastChange = "2022-03-30 09:20:18 +0000";
layers = (
{
layerId = "4EF47A43-EA9F-416F-884D-AC541148DC09";
paths = (
{
closed = 1;
nodes = (
"235 3 LINE",
"309 -4 LINE",
"439 86 LINE",
"439 0 LINE",
"673 0 LINE",
"673 22 LINE",
"605 25 LINE",
"576 65 LINE",
"576 516 LINE",
"357 470 LINE",
"357 448 LINE",
"422 443 LINE",
"439 403 LINE",
"439 131 LINE",
"325 72 LINE",
"235 126 LINE",
"235 516 LINE",
"16 470 LINE",
"16 448 LINE",
"81 443 LINE",
"98 403 LINE",
"98 -240 LINE",
"235 -240 LINE"
);
}
);
width = 693;
}
);
leftMetricsKey = u;
rightMetricsKey = u;
unicode = 00B5;
},
{
glyphname = percent;
lastChange = "2022-03-30 09:20:18 +0000";
layers = (
{
layerId = "4EF47A43-EA9F-416F-884D-AC541148DC09";
paths = (
{
closed = 1;
nodes = (
"174 1 LINE",
"669 705 LINE",
"601 705 LINE",
"106 1 LINE"
);
},
{
closed = 1;
nodes = (
"533 -10 LINE",
"450 75 LINE",
"429 180 LINE",
"493 296 LINE",
"618 310 LINE",
"701 232 LINE",
"721 129 LINE",
"657 5 LINE"
);
},
{
closed = 1;
nodes = (
"522 251 LINE",
"505 142 LINE",
"547 41 LINE",
"593 30 LINE",
"627 51 LINE",
"640 155 LINE",
"605 258 LINE",
"563 270 LINE"
);
},
{
closed = 1;
nodes = (
"144 386 LINE",
"61 471 LINE",
"40 576 LINE",
"104 692 LINE",
"229 706 LINE",
"312 628 LINE",
"332 525 LINE",
"268 401 LINE"
);
},
{
closed = 1;
nodes = (
"134 647 LINE",
"116 538 LINE",
"158 438 LINE",
"204 426 LINE",
"238 447 LINE",
"251 552 LINE",
"215 654 LINE",
"174 666 LINE"
);
}
);
width = 761;
}
);
unicode = 0025;
},
{
glyphname = perthousand;
lastChange = "2022-03-30 09:20:18 +0000";
layers = (
{
layerId = "4EF47A43-EA9F-416F-884D-AC541148DC09";
paths = (
{
closed = 1;
nodes = (
"174 1 LINE",
"669 705 LINE",
"601 705 LINE",
"106 1 LINE"
);
},
{
closed = 1;
nodes = (
"533 -10 LINE",
"450 75 LINE",
"429 180 LINE",
"493 296 LINE",
"618 310 LINE",
"701 232 LINE",
"721 129 LINE",
"657 5 LINE"
);
},
{
closed = 1;
nodes = (
"522 251 LINE",
"505 142 LINE",
"547 41 LINE",
"593 30 LINE",
"627 51 LINE",
"640 155 LINE",
"605 258 LINE",
"563 270 LINE"
);
},
{
closed = 1;
nodes = (
"144 386 LINE",
"61 471 LINE",
"40 576 LINE",
"104 692 LINE",
"229 706 LINE",
"312 628 LINE",
"332 525 LINE",
"268 401 LINE"
);
},
{
closed = 1;
nodes = (
"134 647 LINE",
"116 538 LINE",
"158 438 LINE",
"204 426 LINE",
"238 447 LINE",
"251 552 LINE",
"215 654 LINE",
"174 666 LINE"
);
},
{
closed = 1;
nodes = (
"899 -10 LINE",
"816 75 LINE",
"795 180 LINE",
"859 296 LINE",
"984 310 LINE",
"1067 232 LINE",
"1087 129 LINE",
"1023 5 LINE"
);
},
{
closed = 1;
nodes = (
"888 251 LINE",
"871 142 LINE",
"913 41 LINE",
"959 30 LINE",
"993 51 LINE",
"1006 155 LINE",
"971 258 LINE",
"929 270 LINE"
);
}
);
width = 1127;
}
);
unicode = 2030;
},
{
glyphname = upArrow;
lastChange = "2022-03-30 09:20:18 +0000";
layers = (
{
layerId = "4EF47A43-EA9F-416F-884D-AC541148DC09";
paths = (
{
closed = 1;
nodes = (
"70 385 LINE",
"172 428 LINE",
"271 521 LINE",
"269 29 LINE",
"344 30 LINE",
"345 521 LINE",
"441 428 LINE",
"545 384 LINE",
"564 404 LINE",
"451 501 LINE",
"325 705 LINE",
"289 705 LINE",
"163 501 LINE",
"50 404 LINE"
);
}
);
width = 614;
},
{
associatedMasterId = "4EF47A43-EA9F-416F-884D-AC541148DC09";
layerId = "29B4A4AC-0483-4CCB-AEE1-542E1014E251";
name = "Sep 7 21, 18:29";
width = 600;
}
);
unicode = 2191;
},
{
glyphname = leftRightArrow;
lastChange = "2022-03-30 09:20:18 +0000";
layers = (
{
layerId = "4EF47A43-EA9F-416F-884D-AC541148DC09";
paths = (
{
closed = 1;
nodes = (
"615 595 LINE",
"658 493 LINE",
"751 395 LINE",
"224 395 LINE",
"317 493 LINE",
"360 595 LINE",
"341 615 LINE",
"244 502 LINE",
"40 376 LINE",
"40 340 LINE",
"244 214 LINE",
"341 101 LINE",
"361 120 LINE",
"317 224 LINE",
"224 320 LINE",
"751 320 LINE",
"658 224 LINE",
"614 120 LINE",
"634 101 LINE",
"731 214 LINE",
"935 340 LINE",
"935 376 LINE",
"731 502 LINE",
"634 615 LINE"
);
}
);
width = 975;
}
);
unicode = 2194;
},
{
glyphname = dotaccentcomb;
lastChange = "2022-03-30 09:20:18 +0000";
layers = (
{
anchors = (
{
name = _top;
position = "{116, 500}";
},
{
name = top;
position = "{116, 764}";
}
);
layerId = "4EF47A43-EA9F-416F-884D-AC541148DC09";
paths = (
{
closed = 1;
nodes = (
"188 674 LINE",
"176 727 LINE",
"128 750 LINE",
"71 739 LINE",
"40 692 LINE",
"55 633 LINE",
"104 611 LINE",
"161 620 LINE"
);
}
);
width = 228;
}
);
unicode = 0307;
},
{
glyphname = gravecomb;
lastChange = "2022-04-12 08:29:17 +0000";
layers = (
{
anchors = (
{
name = _top;
position = "{195, 505}";
},
{
name = top;
position = "{165, 768}";
}
);
layerId = "4EF47A43-EA9F-416F-884D-AC541148DC09";
paths = (
{
closed = 1;
nodes = (
"40 691 LINE",
"100 768 LINE",
"290 588 LINE",
"268 562 LINE"
);
}
);
width = 330;
}
);
unicode = 0300;
},
{
glyphname = caroncomb.alt;
lastChange = "2022-04-11 10:21:01 +0000";
layers = (
{
anchors = (
{
name = _topright;
position = "{47, 505}";
}
);
layerId = "4EF47A43-EA9F-416F-884D-AC541148DC09";
paths = (
{
closed = 1;
nodes = (
"60 751 LINE",
"95 769 LINE",
"125 767 LINE",
"148 751 LINE",
"150 716 LINE",
"79 515 LINE",
"42 515 LINE",
"49 723 LINE"
);
}
);
width = 175;
}
);
},
{
glyphname = circumflexcomb;
lastChange = "2022-03-30 09:20:18 +0000";
layers = (
{
anchors = (
{
name = _top;
position = "{186, 505}";
},
{
name = top;
position = "{186, 760}";
}
);
layerId = "4EF47A43-EA9F-416F-884D-AC541148DC09";
paths = (
{
closed = 1;
nodes = (
"168 760 LINE",
"203 760 LINE",
"331 606 LINE",
"309 584 LINE",
"185 675 LINE",
"61 584 LINE",
"40 606 LINE"
);
}
);
width = 371;
}
);
unicode = 0302;
},
{
glyphname = brevecomb;
lastChange = "2022-03-30 09:20:18 +0000";
layers = (
{
anchors = (
{
name = _top;
position = "{183, 505}";
},
{
name = top;
position = "{183, 755}";
}
);
layerId = "4EF47A43-EA9F-416F-884D-AC541148DC09";
paths = (
{
closed = 1;
nodes = (
"326 752 LINE",
"324 669 LINE",
"242 590 LINE",
"128 590 LINE",
"40 670 LINE",
"44 755 LINE",
"74 755 LINE",
"92 686 LINE",
"183 647 LINE",
"272 684 LINE",
"290 752 LINE"
);
}
);
width = 366;
}
);
unicode = 0306;
},
{
glyphname = ringcomb;
lastChange = "2022-03-30 09:20:18 +0000";
layers = (
{
anchors = (
{
name = _top;
position = "{147, 505}";
},
{
name = top;
position = "{147, 776}";
}
);
layerId = "4EF47A43-EA9F-416F-884D-AC541148DC09";
paths = (
{
closed = 1;
nodes = (
"216 590 LINE",
"257 657 LINE",
"234 732 LINE",
"162 769 LINE",
"81 748 LINE",
"40 681 LINE",
"63 607 LINE",
"135 569 LINE"
);
},
{
closed = 1;
nodes = (
"211 681 LINE",
"172 609 LINE",
"117 613 LINE",
"89 657 LINE",
"125 731 LINE",
"183 725 LINE"
);
}
);
width = 297;
}
);
unicode = 030A;
},
{
glyphname = tildecomb;
lastChange = "2022-03-30 09:20:18 +0000";
layers = (
{
anchors = (
{
name = _top;
position = "{209, 505}";
},
{
name = top;
position = "{209, 725}";
}
);
layerId = "4EF47A43-EA9F-416F-884D-AC541148DC09";
paths = (
{
closed = 1;
nodes = (
"103 713 LINE",
"155 722 LINE",
"306 673 LINE",
"358 725 LINE",
"377 717 LINE",
"324 620 LINE",
"268 609 LINE",
"115 659 LINE",
"63 606 LINE",
"40 616 LINE"
);
}
);
width = 417;
}
);
unicode = 0303;
},
{
glyphname = macroncomb;
lastChange = "2022-03-30 09:20:18 +0000";
layers = (
{
anchors = (
{
name = _top;
position = "{190, 505}";
},
{
name = top;
position = "{180, 672}";
}
);
layerId = "4EF47A43-EA9F-416F-884D-AC541148DC09";
paths = (
{
closed = 1;
nodes = (
"40 682 LINE",
"40 620 LINE",
"318 620 LINE",
"318 682 LINE"
);
}
);
width = 358;
}
);
unicode = 0304;
},
{
glyphname = commaturnedabovecomb;
lastChange = "2022-03-30 09:20:18 +0000";
layers = (
{
anchors = (
{
name = _top;
position = "{130, 505}";
},
{
name = top;
position = "{130, 888}";
}
);
layerId = "4EF47A43-EA9F-416F-884D-AC541148DC09";
paths = (
{
closed = 1;
nodes = (
"58 675 LINE",
"71 607 LINE",
"128 576 LINE",
"188 598 LINE",
"211 652 LINE",
"187 706 LINE",
"123 718 LINE",
"120 746 LINE",
"201 819 LINE",
"177 838 LINE",
"77 755 LINE"
);
}
);
width = 251;
}
);
unicode = 0312;
},
{
glyphname = cedillacomb;
lastChange = "2022-03-30 09:20:18 +0000";
layers = (
{
anchors = (
{
name = _bottom;
position = "{138, 0}";
},
{
name = bottom;
position = "{138, -240}";
}
);
layerId = "4EF47A43-EA9F-416F-884D-AC541148DC09";
paths = (
{
closed = 1;
nodes = (
"40 -111 LINE",
"64 -127 LINE",
"127 -93 LINE",
"171 -123 LINE",
"150 -185 LINE",
"42 -217 LINE",
"47 -240 LINE",
"163 -221 LINE",
"238 -147 LINE",
"200 -53 LINE",
"110 -55 LINE",
"146 13 LINE",
"95 13 LINE"
);
}
);
width = 278;
},
{
anchors = (
{
name = _bottom;
position = "{274, 0}";
},
{
name = bottom;
position = "{274, -276}";
}
);
associatedMasterId = "4EF47A43-EA9F-416F-884D-AC541148DC09";
layerId = "BC8397D6-A648-4D42-AE44-4AFAEB80FFE3";
name = "15 feb 22, 15:21";
paths = (
{
closed = 1;
nodes = (
"213 -102 LINE",
"304 -109 LINE",
"337 -153 LINE",
"329 -215 LINE",
"209 -220 LINE",
"176 -276 LINE",
"311 -254 LINE",
"391 -182 LINE",
"366 -85 LINE",
"279 -73 LINE",
"331 13 LINE",
"280 13 LINE"
);
}
);
width = 600;
}
);
unicode = 0327;
},
{
glyphname = ogonekcomb;
lastChange = "2022-03-30 09:20:18 +0000";
layers = (
{
anchors = (
{
name = _ogonek;
position = "{164, 0}";
}
);
layerId = "4EF47A43-EA9F-416F-884D-AC541148DC09";
paths = (
{
closed = 1;
nodes = (
"40 -80 LINE",
"46 -181 LINE",
"150 -240 LINE",
"225 -210 LINE",
"276 -166 LINE",
"259 -150 LINE",
"199 -177 LINE",
"147 -167 LINE",
"112 -119 LINE",
"121 -62 LINE",
"180 10 LINE",
"135 10 LINE"
);
}
);
width = 316;
}
);
unicode = 0328;
},
{
glyphname = circumflexcomb.case;
lastChange = "2022-03-30 09:20:18 +0000";
layers = (
{
anchors = (
{
name = _top;
position = "{185, 505}";
},
{
name = top;
position = "{196, 745}";
}
);
layerId = "4EF47A43-EA9F-416F-884D-AC541148DC09";
paths = (
{
closed = 1;
nodes = (
"168 729 LINE",
"203 729 LINE",
"331 582 LINE",
"308 560 LINE",
"185 654 LINE",
"62 559 LINE",
"40 582 LINE"
);
}
);
width = 371;
}
);
},
